<svg viewBox="0 0 43 43" fill="none" xmlns="http://www.w3.org/2000/svg"><path d="M42.59 10.09a1.062 1.062 0 00-.914-.187l-8.111 2.114a1.057 1.057 0 00.533 2.047l6.787-1.77v24.602L25.75 40.844 11.935 36.7a1.058 1.058 0 00-.697.031l-9.123 3.65V15.87l6.384-2.553a1.057 1.057 0 00-.785-1.964l-7.05 2.82c-.4.16-.664.55-.664.982v26.786a1.058 1.058 0 001.45.982l10.231-4.092 13.745 4.123c.186.056.383.06.57.01l16.213-4.229c.466-.121.791-.542.791-1.023V10.926c0-.327-.152-.636-.41-.837z" fill="currentColor"/><path d="M19.047 27.481c.93 1.437 1.56 2.34 1.585 2.378.198.283.522.452.868.452h.002c.347 0 .671-.171.868-.456 0 0 .634-.92 1.575-2.373 1.952-3.014 5.455-8.719 6.99-13.075.529-1.504.786-2.716.786-3.706C31.721 4.8 27.136 0 21.5 0S11.278 4.8 11.278 10.7c0 .173.009.353.025.53.326 4.005 4.39 11.047 7.744 16.251zM21.5 2.115c4.47 0 8.106 3.851 8.106 8.586 0 .736-.224 1.747-.666 3.004-1.462 4.15-4.87 9.692-6.77 12.627-.248.384-.475.73-.673 1.03-.2-.3-.426-.646-.673-1.028-4.488-6.964-7.19-12.532-7.414-15.287a3.717 3.717 0 01-.017-.346c0-4.735 3.636-8.586 8.107-8.586z" fill="currentColor"/><path d="M21.5 14.803a4.587 4.587 0 004.582-4.582A4.587 4.587 0 0021.5 5.639a4.587 4.587 0 00-4.581 4.582 4.587 4.587 0 004.581 4.582zm0-7.05a2.47 2.47 0 012.468 2.468 2.47 2.47 0 01-2.468 2.467 2.47 2.47 0 01-2.467-2.467A2.47 2.47 0 0121.5 7.754z" fill="currentColor"/></svg>