<svg viewBox="0 0 332 63" fill="none" xmlns="http://www.w3.org/2000/svg"><path d="M169.529 25.963l3.605-3.558V11.582L162.311.76h-36.065l-10.823 10.823v-7.21L111.818.76H97.39l-3.605 3.613v7.21L86.567 18.8l-7.21-7.218v-7.21L75.744.76H61.316l-3.605 3.613L54.106.76H39.68l-3.605 3.613V18.8L18.033.76H3.605L0 4.371v50.494l3.605 3.605h14.428l3.613-3.605V40.438L39.679 58.47h14.427l3.605-3.605V26.01l18.033 18.033v10.823l3.613 3.605h14.428l3.605-3.605V44.043l18.033-18.033v21.646l10.823 10.815h36.065l10.823-10.815V36.833l-3.605-3.613h-18.04v3.613h-14.42V22.405h14.42v3.558h18.04zM170.565 3.194c.34 0 .632-.031.632-.427 0-.332-.324-.371-.593-.371h-.545v.798h.506zm-.498 1.55h-.451V2.016h1.036c.656 0 .996.23.996.783 0 .498-.3.696-.712.743l.767 1.202h-.506l-.703-1.17h-.419v1.17h-.008zm.482-3.447c-1.067 0-1.897.838-1.897 2.04 0 1.122.727 2.04 1.897 2.04 1.059 0 1.89-.83 1.89-2.04 0-1.202-.831-2.04-1.89-2.04zm0 4.506c-1.415 0-2.427-1.06-2.427-2.466 0-1.487 1.123-2.467 2.427-2.467 1.289 0 2.411.98 2.411 2.467.008 1.478-1.114 2.466-2.411 2.466zM187.731 15h3.521V4.093h.041L194.311 15h2.858l3.018-10.907h.04V15h3.522V.632h-5.514l-2.475 9.579h-.04L193.245.632h-5.514V15zm21.326-2.998c0-.825.644-1.147 1.409-1.329.744-.2 1.629-.261 2.112-.563.081 2.153-.462 3.079-2.092 3.079-.765 0-1.429-.342-1.429-1.187zm.201-4.226c.161-.886.765-1.308 1.711-1.308.704 0 1.65.302 1.65 1.086 0 .644-.322.846-.906.966-2.374.483-6.077.222-6.077 3.623 0 2.153 1.57 3.159 3.562 3.159 1.247 0 2.555-.362 3.441-1.288.04.342.08.664.201.986h3.441c-.402-.825-.402-1.791-.402-2.676V7.756c0-2.958-2.395-3.502-4.87-3.502-1.187 0-2.395.202-3.32.725-.926.543-1.57 1.428-1.63 2.797h3.199zm19.294-3.22h-3.502l-1.972 6.802h-.04l-1.972-6.802h-3.622l2.696 7.265c.201.563.865 2.173.865 2.736 0 .725-.583 1.167-1.368 1.167h-1.187v2.777h1.61c2.314 0 3.541-.281 4.366-2.575l4.126-11.37zm3.906 5.232c0-1.328.483-2.918 2.072-2.918 1.59 0 2.093 1.59 2.093 2.918s-.503 2.898-2.093 2.898c-1.589 0-2.072-1.57-2.072-2.898zm-3.421 0c0 3.14 2.254 5.514 5.493 5.514 3.24 0 5.514-2.375 5.514-5.514 0-3.14-2.274-5.534-5.514-5.534-3.239 0-5.493 2.395-5.493 5.534zM241.962 15h3.421V9.828c0-1.308.886-2.475 2.576-2.475.463 0 .865.08 1.308.201V4.435a3.643 3.643 0 00-.805-.08c-1.469 0-2.636.704-3.139 2.032h-.04v-1.83h-3.321V15zm8.689-10.625h1.449c.06.926-.563 1.73-1.449 1.892v1.61c2.194-.363 3.18-1.892 3.2-3.904V.633h-3.2v3.742zm3.616 7.184c.1 2.918 2.636 3.743 5.111 3.743 2.354 0 5.011-.926 5.011-3.723 0-.865-.544-2.395-2.657-2.817-1.569-.342-3.863-.523-3.863-1.51 0-.724.905-.784 1.469-.784.422 0 .805.08 1.086.261.282.182.443.463.443.906h3.159c-.12-2.717-2.515-3.38-4.809-3.38-2.052 0-4.769.683-4.769 3.199 0 2.817 2.696 2.877 4.85 3.42.603.142 1.67.303 1.67 1.107 0 .826-.946 1.107-1.61 1.107-.483 0-.946-.12-1.268-.362-.342-.262-.563-.644-.563-1.167h-3.26zm17.73-3.743c0 4.166 2.556 7.486 7.083 7.486 4.528 0 7.084-3.32 7.084-7.486 0-4.165-2.556-7.486-7.084-7.486-4.527 0-7.083 3.32-7.083 7.486zm3.743 0c0-2.133.926-4.266 3.34-4.266 2.415 0 3.341 2.133 3.341 4.266s-.926 4.266-3.341 4.266c-2.414 0-3.34-2.133-3.34-4.266zM288.806 15h3.421V6.77h2.053V4.556h-2.053v-.463c0-.945.483-1.046 1.268-1.046.302 0 .604.02.926.06V.693c-.544-.02-1.107-.06-1.65-.06-2.918 0-3.965.925-3.965 3.923h-1.65V6.77h1.65V15zm7.448 0h3.421V6.77h2.053V4.556h-2.053v-.463c0-.945.483-1.046 1.268-1.046.302 0 .604.02.926.06V.693c-.544-.02-1.107-.06-1.651-.06-2.917 0-3.964.925-3.964 3.923h-1.65V6.77h1.65V15zm7.026 0h3.42V4.556h-3.42V15zM306.7.632h-3.42v2.616h3.42V.632zm12.334 7.748c-.242-2.757-2.556-4.126-5.152-4.126-3.36 0-5.473 2.375-5.473 5.695 0 3.2 2.334 5.353 5.473 5.353 2.777 0 4.951-1.61 5.252-4.407h-3.32c-.161 1.107-.765 1.79-1.952 1.79-1.449 0-2.032-1.388-2.032-2.736 0-1.449.302-3.079 2.213-3.079.866 0 1.65.624 1.671 1.51h3.32zm4.322.321c.201-1.267 1.006-2.133 2.213-2.133 1.147 0 1.972.966 2.033 2.133h-4.246zm7.667 1.912c.161-3.541-1.711-6.359-5.454-6.359-3.079 0-5.634 2.294-5.634 5.494 0 3.501 2.314 5.554 5.715 5.554 2.334 0 4.568-1.047 5.192-3.461h-3.2c-.322.764-1.127 1.147-1.952 1.147-1.449 0-2.274-.946-2.334-2.375h7.667zM188.314 37h3.421v-8.23h2.053v-2.214h-2.053v-.463c0-.945.483-1.046 1.268-1.046.302 0 .604.02.926.06v-2.415c-.544-.02-1.107-.06-1.65-.06-2.918 0-3.965.926-3.965 3.924h-1.65v2.214h1.65V37zm9.622-5.212c0-1.328.483-2.918 2.072-2.918 1.59 0 2.093 1.59 2.093 2.918s-.503 2.898-2.093 2.898c-1.589 0-2.072-1.57-2.072-2.898zm-3.421 0c0 3.14 2.253 5.514 5.493 5.514s5.514-2.375 5.514-5.514c0-3.14-2.274-5.534-5.514-5.534s-5.493 2.395-5.493 5.534zM207.44 37h3.421v-5.172c0-1.308.886-2.475 2.576-2.475.463 0 .865.08 1.308.201v-3.119a3.641 3.641 0 00-.805-.08c-1.469 0-2.636.704-3.139 2.032h-.04v-1.83h-3.321V37zm14.936 0h11.651v-3.22h-7.908v-2.736h7.043v-2.898h-7.043V25.63h7.707v-2.999h-11.45V37zm23.555-6.62c-.241-2.757-2.555-4.126-5.151-4.126-3.361 0-5.474 2.375-5.474 5.695 0 3.2 2.335 5.353 5.474 5.353 2.777 0 4.95-1.61 5.252-4.407h-3.32c-.161 1.107-.765 1.79-1.952 1.79-1.449 0-2.033-1.388-2.033-2.736 0-1.449.302-3.079 2.214-3.079.865 0 1.65.624 1.67 1.51h3.32zm4.725 1.408c0-1.328.483-2.918 2.072-2.918 1.59 0 2.093 1.59 2.093 2.918s-.503 2.898-2.093 2.898c-1.589 0-2.072-1.57-2.072-2.898zm-3.421 0c0 3.14 2.254 5.514 5.493 5.514 3.24 0 5.514-2.375 5.514-5.514 0-3.14-2.274-5.534-5.514-5.534-3.239 0-5.493 2.395-5.493 5.534zM259.838 37h3.421v-5.695c0-1.147.564-2.233 1.852-2.233 1.871 0 1.71 1.448 1.71 2.877V37h3.421v-6.701c0-1.51-.282-4.045-3.763-4.045-1.248 0-2.656.664-3.28 1.73h-.04v-1.428h-3.321V37zm15.392-5.212c0-1.328.483-2.918 2.073-2.918 1.59 0 2.093 1.59 2.093 2.918s-.503 2.898-2.093 2.898c-1.59 0-2.073-1.57-2.073-2.898zm-3.421 0c0 3.14 2.254 5.514 5.494 5.514 3.24 0 5.514-2.375 5.514-5.514 0-3.14-2.274-5.534-5.514-5.534s-5.494 2.395-5.494 5.534zM284.413 37h3.421v-5.091c0-2.133.523-2.837 1.751-2.837.925 0 1.287.764 1.287 1.992V37h3.421v-5.111c0-1.69.141-2.817 1.61-2.817.886 0 1.429.664 1.429 1.79V37h3.421v-6.238c0-1.992-.362-4.508-3.683-4.508-1.408 0-2.435.584-3.26 1.69-.563-1.267-1.73-1.69-3.038-1.69-1.268 0-2.375.684-2.999 1.73h-.04v-1.428h-3.32V37zm18.75 0h3.421V26.556h-3.421V37zm3.421-14.368h-3.421v2.616h3.421v-2.616zm12.535 7.747c-.242-2.756-2.556-4.125-5.152-4.125-3.36 0-5.473 2.375-5.473 5.695 0 3.2 2.334 5.353 5.473 5.353 2.777 0 4.95-1.61 5.252-4.407h-3.32c-.161 1.107-.765 1.79-1.952 1.79-1.449 0-2.032-1.388-2.032-2.736 0-1.449.302-3.079 2.213-3.079.865 0 1.65.624 1.67 1.51h3.321zM187.167 51.817c0 4.165 2.556 7.486 7.084 7.486 4.527 0 7.083-3.32 7.083-7.486 0-4.165-2.556-7.486-7.083-7.486-4.528 0-7.084 3.32-7.084 7.486zm3.743 0c0-2.133.926-4.266 3.341-4.266 2.414 0 3.34 2.133 3.34 4.266s-.926 4.266-3.34 4.266c-2.415 0-3.341-2.133-3.341-4.266zm17.514-.946c1.509 0 2.032 1.47 2.032 2.797 0 1.43-.523 3.019-2.052 3.019-1.55 0-2.073-1.187-2.073-3.019 0-2.153 1.167-2.797 2.093-2.797zm-5.393 11.631h3.421v-4.628h.04c.704.946 1.69 1.429 2.978 1.429 2.958 0 4.407-2.576 4.407-5.292 0-2.938-1.388-5.756-4.668-5.756-1.208 0-2.214.524-2.878 1.51h-.04v-1.208h-3.26v13.945zm18.068-11.63c1.509 0 2.032 1.468 2.032 2.796 0 1.43-.523 3.019-2.052 3.019-1.55 0-2.073-1.187-2.073-3.019 0-2.153 1.167-2.797 2.093-2.797zm-5.393 11.63h3.421v-4.628h.04c.704.946 1.69 1.429 2.978 1.429 2.958 0 4.407-2.576 4.407-5.292 0-2.938-1.388-5.756-4.668-5.756-1.208 0-2.214.524-2.878 1.51h-.04v-1.208h-3.26v13.945zm15.593-8.713c0-1.328.483-2.918 2.073-2.918 1.589 0 2.092 1.59 2.092 2.918s-.503 2.898-2.092 2.898c-1.59 0-2.073-1.57-2.073-2.898zm-3.421 0c0 3.14 2.254 5.514 5.494 5.514 3.239 0 5.513-2.375 5.513-5.514 0-3.14-2.274-5.534-5.513-5.534-3.24 0-5.494 2.395-5.494 5.534zM240.401 59h3.421v-5.172c0-1.308.886-2.475 2.576-2.475.463 0 .865.08 1.308.201v-3.119a3.641 3.641 0 00-.805-.08c-1.469 0-2.636.704-3.139 2.032h-.04v-1.83h-3.321V59zm15.35-10.444h-2.113v-3.16h-3.421v3.16h-1.731v2.214h1.731v4.648c0 2.837.744 3.683 3.662 3.683.624 0 1.248-.08 1.872-.101v-2.515c-.302 0-.604.04-.886.04-.744 0-1.227-.181-1.227-1.006v-4.75h2.113v-2.213zm11.906 0h-3.421v5.594c0 1.852-1.127 2.335-1.871 2.335-1.087 0-1.691-.483-1.691-1.872v-6.057h-3.421v6.279c0 2.736.866 4.467 3.864 4.467 1.207 0 2.535-.664 3.179-1.73h.041V59h3.32V48.556zM269.949 59h3.421v-5.695c0-1.147.563-2.233 1.851-2.233 1.871 0 1.71 1.448 1.71 2.877V59h3.421v-6.701c0-1.51-.281-4.045-3.763-4.045-1.247 0-2.656.664-3.28 1.73h-.04v-1.428h-3.32V59zm12.796 0h3.42V48.556h-3.42V59zm3.42-14.368h-3.42v2.616h3.42v-2.616zm8.712 3.924h-2.113v-3.16h-3.421v3.16h-1.731v2.214h1.731v4.648c0 2.837.744 3.683 3.662 3.683.624 0 1.248-.08 1.872-.101v-2.515c-.302 0-.604.04-.886.04-.744 0-1.227-.181-1.227-1.006v-4.75h2.113v-2.213zm11.343 0h-3.502l-1.972 6.802h-.04l-1.972-6.802h-3.622l2.696 7.265c.201.563.865 2.173.865 2.736 0 .725-.583 1.167-1.368 1.167h-1.187v2.777h1.61c2.314 0 3.541-.281 4.366-2.575l4.126-11.37z" fill="currentColor"/></svg>