<svg viewBox="0 0 45 15" fill="none" xmlns="http://www.w3.org/2000/svg"><path d="M44.063 6.55L45 5.627V2.813L42.187 0h-9.374L30 2.813V.939L29.063 0h-3.75l-.937.939v1.874L22.5 4.689l-1.874-1.876V.939L19.687 0h-3.75L15 .939 14.063 0h-3.75l-.937.939v3.75L4.687 0H.937L0 .939v13.124L.937 15h3.75l.939-.937v-3.75L10.313 15h3.75l.937-.937v-7.5l4.687 4.687v2.813l.939.937h3.75l.937-.937V11.25L30 6.563v5.626L32.813 15h9.374L45 12.189V9.376l-.937-.939h-4.689v.939h-3.748v-3.75h3.748v.925h4.689zM44.332.633c.089 0 .165-.008.165-.111 0-.086-.085-.097-.154-.097H44.2v.208h.131zm-.13.403h-.116v-.71h.269c.17 0 .259.06.259.204 0 .13-.078.181-.185.193l.2.313h-.132l-.183-.304h-.11v.304h-.001zm.126-.896c-.277 0-.493.218-.493.53 0 .292.189.53.493.53.275 0 .491-.216.491-.53 0-.312-.216-.53-.49-.53zm0 1.171c-.368 0-.63-.275-.63-.641 0-.386.291-.641.63-.641a.62.62 0 01.627.64.62.62 0 01-.627.642z" fill="currentColor"/></svg>