<svg viewBox="0 0 50 36" fill="none" xmlns="http://www.w3.org/2000/svg"><path d="M5.146 5.77a1.195 1.195 0 100-2.392 1.195 1.195 0 000 2.391zM9.095 5.77a1.195 1.195 0 100-2.392 1.195 1.195 0 000 2.391zM13.046 5.77a1.195 1.195 0 100-2.392 1.195 1.195 0 000 2.391z" fill="currentColor"/><path d="M45.374 0h-40.8C2.079 0 0 2.027 0 4.574v26.663c0 2.495 2.027 4.574 4.574 4.574h40.852c2.495 0 4.574-2.027 4.574-4.574V4.574C49.948 2.079 47.921 0 45.374 0zm2.91 31.237c0 1.611-1.299 2.91-2.91 2.91H4.522c-1.611 0-2.91-1.299-2.91-2.91V4.574c0-1.611 1.299-2.91 2.91-2.91h40.852c1.611 0 2.91 1.299 2.91 2.91v26.663z" fill="currentColor"/><path d="M48.7 8.42H1.404V7.9v-.52h47.298v1.04zM25.285 16.684h-7.262a.465.465 0 01-.466-.468c0-.26.207-.468.466-.468h7.314c.26 0 .467.208.467.468s-.208.468-.519.468zM25.285 18.815h-7.262a.465.465 0 01-.466-.468c0-.26.207-.467.466-.467h7.314c.26 0 .467.207.467.467s-.208.468-.519.468zM25.285 20.946h-3.578a.465.465 0 01-.467-.468c0-.26.207-.468.467-.468h3.578c.26 0 .467.208.467.468.052.26-.155.468-.466.468z" fill="currentColor"/><path d="M36.593 15.177H30.68v-1.248c0-.78-.623-1.455-1.349-1.455H13.822c-.726 0-1.348.624-1.348 1.455v8.94c0 .78.622 1.455 1.348 1.455h1.556l.675 3.795 3.682-3.743v1.248c0 .78.623 1.455 1.349 1.455h9.596l3.682 3.794.675-3.794h1.556c.726 0 1.348-.624 1.348-1.455v-8.992c0-.832-.622-1.455-1.348-1.455zM16.779 25.572l-.467-2.599h-2.49c-.103 0-.207-.104-.207-.156V13.93c0-.052.104-.155.207-.155h15.51c.103 0 .207.103.207.155v8.94c0 .052-.104.156-.208.156h-10.01l-2.542 2.547zm20.021 0c0 .052-.103.156-.207.156h-2.49l-.467 2.598-2.541-2.598H21.084c-.104 0-.208-.104-.208-.156v-1.248h8.455c.726 0 1.349-.623 1.349-1.455v-6.393h5.913c.103 0 .207.104.207.156v8.94z" fill="currentColor"/></svg>