<svg viewBox="0 0 35 51" fill="none" xmlns="http://www.w3.org/2000/svg"><path d="M18.815 26.767a1.143 1.143 0 100-2.287 1.143 1.143 0 000 2.287zM23.337 26.767a1.143 1.143 0 100-2.287 1.143 1.143 0 000 2.287zM27.754 26.767a1.143 1.143 0 100-2.287 1.143 1.143 0 000 2.287zM14.24 47.765a1.663 1.663 0 100-3.326 1.663 1.663 0 000 3.326zM11.174 3.586a.688.688 0 00-.675.676c0 .364.311.676.675.676h6.081a.688.688 0 00.676-.676.688.688 0 00-.676-.676h-6.08z" fill="currentColor"/><path d="M33.16 18.347h-4.678V4.262C28.482 1.923 26.56 0 24.22 0H4.262C1.923 0 0 1.923 0 4.262v42.1c0 2.339 1.923 4.262 4.262 4.262H24.22c2.34 0 4.262-1.923 4.262-4.262V33.264h4.678c.936 0 1.715-.832 1.715-1.82V20.167c0-.987-.78-1.819-1.715-1.819zM1.611 4.262a2.662 2.662 0 012.651-2.65H24.22a2.662 2.662 0 012.651 2.65v2.39H1.611v-2.39zm25.26 42.048a2.662 2.662 0 01-2.65 2.65H4.26a2.662 2.662 0 01-2.65-2.65v-2.963h25.26v2.963zm0-4.522H1.611V8.264h25.26v10.083H13.566c-.936 0-1.716.832-1.716 1.82v11.278c0 .987.78 1.819 1.716 1.819h1.974l.832 4.73 4.678-4.73h5.821v8.524zm6.549-10.343c0 .104-.104.208-.26.208H20.478l-3.17 3.222-.572-3.274h-3.17c-.156 0-.26-.104-.26-.208V20.166c0-.104.104-.208.26-.208H33.16c.156 0 .26.104.26.208v11.279z" fill="currentColor"/></svg>