<svg width="270" height="61" fill="none" xmlns="http://www.w3.org/2000/svg"><path d="M75.15 32.739c.337 0 .619.28.619.615v26.303c0 .28-.225.56-.619.56h-7.481a.562.562 0 01-.563-.56v-8.898h-5.625v8.898c0 .28-.225.56-.619.56h-7.425c-.28 0-.562-.28-.562-.56V33.354c0-.336.281-.615.563-.615h7.48c.338 0 .62.28.62.615v10.41h5.624v-10.41c0-.336.225-.615.563-.615h7.425zM98.381 57.978c.056.28 0 .448-.281.616-2.137 1.399-5.175 2.238-8.269 2.238-7.087 0-11.812-4.589-11.812-11.472 0-6.94 4.612-11.529 11.587-11.529 6.638 0 10.575 4.253 10.575 11.473 0 .615-.056 1.175-.168 1.79-.057.336-.226.504-.62.504H86.57s0 2.519 3.375 2.519c2.025 0 4.331-.504 6.131-1.288.281-.112.506.056.619.336l1.687 4.813zm-6.187-10.633c0-1.735-1.069-2.91-2.7-2.91-1.8 0-2.981 1.175-2.981 2.91h5.68zM103.781 40.797c-.112-.28-.056-.56.225-.783 2.307-1.455 5.457-2.295 8.663-2.295 6.919 0 10.125 3.638 10.125 11.529v10.297a.623.623 0 01-.619.615h-5.062a.623.623 0 01-.619-.615l-.281-1.063c-1.294 1.399-3.938 2.294-6.863 2.294-4.612 0-7.65-2.966-7.594-7.331.057-3.917 3.094-6.492 7.594-6.492 2.306 0 4.388.84 5.175 2.127V47.4c0-1.734-1.237-2.797-3.094-2.797-1.575 0-3.487.503-4.781 1.287-.225.112-.45-.056-.619-.336l-2.25-4.757zm10.8 12.256c-.675-.671-1.35-1.007-2.193-1.007-1.013 0-1.688.56-1.688 1.455s.675 1.455 1.688 1.455c.843 0 1.518-.336 2.193-1.007v-.896zM133.313 31.34c.337 0 .618.28.618.56v27.7a.622.622 0 01-.618.617h-7.032a.622.622 0 01-.618-.616V31.899c0-.28.281-.56.618-.56h7.032zM149.85 38.335c.338 0 .619.224.619.56l-.45 3.861c-.056.336-.281.616-.619.616h-2.587v16.285a.623.623 0 01-.619.616h-7.031a.623.623 0 01-.619-.616V43.316h-2.306a.562.562 0 01-.563-.56v-3.861c0-.336.281-.616.563-.616h2.306v-4.365c0-.28.281-.504.619-.56l7.031-.671c.337-.056.619.28.619.56v5.036h3.037v.056zM159.919 31.34c.337 0 .619.28.619.615v8.059c1.068-1.4 2.981-2.239 5.175-2.239 4.781 0 7.65 2.687 7.65 7.331v14.55a.623.623 0 01-.619.617h-7.031c-.338 0-.619-.28-.563-.616V47.12c0-1.567-.731-2.518-1.969-2.518-2.306 0-2.643 2.238-2.643 2.238v12.76a.623.623 0 01-.619.616h-7.031a.623.623 0 01-.619-.616V31.955c0-.336.281-.616.619-.616h7.031zM31.05 1.4c.337 0 .563.279.563.615v26.302c0 .28-.226.56-.563.56h-7.425c-.337 0-.619-.28-.619-.56V16.621l-4.05 11.64c-.112.336-.619.616-1.012.616h-4.388c-.337 0-.9-.28-1.012-.615l-4.05-11.64v11.695c0 .28-.281.56-.619.56H.562a.562.562 0 01-.562-.56V2.015c0-.336.225-.616.563-.616h8.38c.507 0 1.126.336 1.35.784l5.513 15.222L21.32 2.183c.225-.448.844-.784 1.35-.784h8.381zM54.169 26.639c.056.28 0 .447-.282.615-2.137 1.4-5.175 2.239-8.268 2.239-7.088 0-11.813-4.59-11.813-11.473 0-6.94 4.613-11.528 11.588-11.528 6.637 0 10.575 4.253 10.575 11.472a9.65 9.65 0 01-.17 1.791c-.055.336-.224.504-.618.504H42.412s0 2.518 3.375 2.518c2.025 0 4.332-.504 6.132-1.287.28-.112.506.056.618.336l1.632 4.813zm-6.132-10.633c0-1.735-1.068-2.91-2.7-2.91-1.8 0-2.98 1.175-2.98 2.91h5.68zM64.406 8.618C65.7 7.22 68.4 6.38 70.82 6.38c5.456 0 8.381 2.518 8.381 8.73v13.152a.623.623 0 01-.619.615H71.55c-.338 0-.619-.28-.563-.615v-11.92c0-1.568-.73-2.52-1.968-2.52-2.307 0-2.644 2.24-2.644 2.24v12.2a.623.623 0 01-.619.615h-7.031a.623.623 0 01-.619-.615V7.555c0-.336.225-.56.563-.56h4.5c.281 0 .506.112.619.392l.618 1.231zM94.95 6.94c.337 0 .619.223.619.56l-.45 3.86c-.057.336-.282.616-.62.616h-2.587v16.285a.623.623 0 01-.618.616h-7.032a.623.623 0 01-.618-.615V11.976h-2.307a.562.562 0 01-.562-.56v-3.86c0-.337.281-.617.562-.617h2.307V2.63c0-.28.28-.503.618-.56l7.032-.67c.337-.057.618.279.618.559v5.036h3.038V6.94zM97.65 9.458c-.113-.28-.056-.56.225-.784 2.306-1.455 5.456-2.294 8.663-2.294 6.918 0 10.125 3.637 10.125 11.528v10.297a.623.623 0 01-.619.616h-5.063a.622.622 0 01-.618-.616l-.282-1.063c-1.293 1.4-3.937 2.295-6.862 2.295-4.613 0-7.65-2.966-7.594-7.332.056-3.917 3.094-6.491 7.594-6.491 2.306 0 4.387.84 5.175 2.126v-1.678c0-1.735-1.238-2.799-3.094-2.799-1.575 0-3.487.504-4.781 1.287-.225.112-.45-.056-.619-.335l-2.25-4.757zm10.744 12.256c-.675-.672-1.35-1.008-2.194-1.008-1.012 0-1.687.56-1.687 1.456 0 .895.675 1.454 1.687 1.454.844 0 1.519-.335 2.194-1.007v-.895zM127.125 0c.338 0 .619.28.619.56V28.26a.623.623 0 01-.619.616h-7.031a.623.623 0 01-.619-.615V.56c0-.28.281-.56.619-.56h7.031z" fill="#E93E51"/><path d="M233.719 59.433c.056.224-.113.504-.45.504h-7.932c-.337 0-.675-.224-.731-.504l-.562-4.197h-7.538l-1.856 4.197a1.083 1.083 0 01-.9.504h-7.931c-.338 0-.45-.28-.282-.504l13.219-26.415c.169-.224.619-.503 1.069-.503h8.156c.394 0 .788.28.9.503l4.838 26.415zm-11.307-17.404l-3.375 7.554h4.332l-.957-7.554zM251.269 52.773c.281 0 .506.224.45.56l-1.519 6.044c-.113.28-.394.56-.731.56h-14.457c-.337 0-.562-.28-.506-.56l4.163-26.303c.056-.335.393-.615.675-.615h7.087c.338 0 .563.28.506.615l-3.15 19.7h7.482zM269.213 52.773c.281 0 .506.224.45.56l-1.519 6.044c-.113.28-.394.56-.731.56h-14.457c-.337 0-.562-.28-.506-.56l4.163-26.303c.056-.335.393-.615.675-.615h7.087c.338 0 .563.28.506.615l-3.15 19.7h7.482zM186.131 32.739c.113 0 .225.111.225.223v2.183c0 .112-.112.224-.225.224h-3.656v1.287h2.869c.112 0 .225.112.169.168l-.225 2.015c0 .111-.113.167-.225.167h-2.644v3.414c0 .112-.113.224-.225.224h-2.531c-.113 0-.225-.112-.225-.224v-9.458c0-.112.112-.224.225-.224h6.468zM191.925 42.812c-3.094 0-5.119-2.07-5.119-5.149 0-3.134 2.025-5.148 5.119-5.148s5.119 2.07 5.119 5.148-2.025 5.149-5.119 5.149zm0-7.443c-1.181 0-1.969.895-1.969 2.294 0 1.343.788 2.295 1.969 2.295s1.969-.896 1.969-2.295c0-1.343-.788-2.294-1.969-2.294zM206.156 42.364c.056.112-.056.224-.169.224h-3.093a.38.38 0 01-.338-.224l-1.519-3.134h-.168v3.134c0 .112-.113.224-.225.224h-2.532c-.112 0-.225-.112-.225-.224v-9.458c0-.111.113-.223.225-.223h3.825c2.194 0 3.713 1.287 3.713 3.245 0 1.12-.675 2.295-1.744 2.743l2.25 3.693zm-4.387-5.54c.506 0 .843-.28.843-.784 0-.503-.337-.783-.843-.783h-.844v1.51h.844v.057z" fill="#1A4586"/></svg>