<svg viewBox="0 0 50 36" fill="none" xmlns="http://www.w3.org/2000/svg"><path d="M5.146 5.77a1.195 1.195 0 100-2.392 1.195 1.195 0 000 2.391zM9.095 5.77a1.195 1.195 0 100-2.392 1.195 1.195 0 000 2.391zM13.046 5.77a1.195 1.195 0 100-2.392 1.195 1.195 0 000 2.391z" fill="currentColor"/><path d="M45.374 0h-40.8C2.079 0 0 2.027 0 4.574v26.663c0 2.495 2.027 4.574 4.574 4.574h40.852c2.495 0 4.574-2.027 4.574-4.574V4.574C49.948 2.079 47.921 0 45.374 0zm2.91 31.237c0 1.611-1.299 2.91-2.91 2.91H4.522c-1.611 0-2.91-1.299-2.91-2.91V4.574c0-1.611 1.299-2.91 2.91-2.91h40.852c1.611 0 2.91 1.299 2.91 2.91v26.663z" fill="currentColor"/><path d="M48.7 8.316H1.404v-.52-.52h47.298v1.04zM38.811 23.129H23.766c-.483 0-.897-.312-.897-.676 0-.364.414-.676.897-.676H38.81c.483 0 .898.312.898.676 0 .364-.415.676-.898.676zM38.812 27.91H23.766c-.483 0-.897-.311-.897-.675 0-.364.414-.676.897-.676h15.046c.483 0 .897.312.897.676 0 .364-.414.676-.897.676z" fill="currentColor"/><path d="M38.811 27.859H23.766c-.483 0-.897-.312-.897-.676 0-.364.414-.676.897-.676H38.81c.483 0 .898.312.898.676 0 .364-.415.676-.898.676zM38.811 30.977H23.766c-.483 0-.897-.312-.897-.676 0-.363.414-.675.897-.675H38.81c.483 0 .898.312.898.675 0 .364-.415.676-.898.676zM38.811 19.958H23.766c-.483 0-.897-.312-.897-.675 0-.364.414-.676.897-.676H38.81c.483 0 .898.312.898.676 0 .363-.415.675-.898.675z" fill="currentColor"/><path stroke="currentColor" stroke-width="1.04" d="M9.875 10.915h29.106v4.158H9.875zM9.875 18.711h9.875v5.197H9.875z"/></svg>