<svg viewBox="0 0 309 168" fill="none" xmlns="http://www.w3.org/2000/svg"><path d="M133.6 58.5c.6 0 1.1.5 1.1 1.1v47c0 .5-.4 1-1.1 1h-13.3c-.6 0-1-.5-1-1V90.7h-10v15.9c0 .5-.4 1-1.1 1H95c-.5 0-1-.5-1-1v-47c0-.6.5-1.1 1-1.1h13.3c.6 0 1.1.5 1.1 1.1v18.6h10V59.6c0-.6.4-1.1 1-1.1h13.2zM174.9 103.6c.1.5 0 .8-.5 1.1-3.8 2.5-9.2 4-14.7 4-12.6 0-21-8.2-21-20.5 0-12.4 8.2-20.6 20.6-20.6 11.8 0 18.8 7.6 18.8 20.5 0 1.1-.1 2.1-.3 3.2-.1.6-.4.9-1.1.9h-22.8s0 4.5 6 4.5c3.6 0 7.7-.9 10.9-2.3.5-.2.9.1 1.1.6l3 8.6zm-11-19c0-3.1-1.9-5.2-4.8-5.2-3.2 0-5.3 2.1-5.3 5.2h10.1zM184.5 72.9c-.2-.5-.1-1 .4-1.4 4.1-2.6 9.7-4.1 15.4-4.1 12.3 0 18 6.5 18 20.6v18.4c0 .6-.5 1.1-1.1 1.1h-9c-.6 0-1.1-.5-1.1-1.1l-.5-1.9c-2.3 2.5-7 4.1-12.2 4.1-8.2 0-13.6-5.3-13.5-13.1.1-7 5.5-11.6 13.5-11.6 4.1 0 7.8 1.5 9.2 3.8v-3c0-3.1-2.2-5-5.5-5-2.8 0-6.2.9-8.5 2.3-.4.2-.8-.1-1.1-.6l-4-8.5zm19.2 21.9c-1.2-1.2-2.4-1.8-3.9-1.8-1.8 0-3 1-3 2.6s1.2 2.6 3 2.6c1.5 0 2.7-.6 3.9-1.8v-1.6zM237 56c.6 0 1.1.5 1.1 1v49.5c0 .6-.5 1.1-1.1 1.1h-12.5c-.6 0-1.1-.5-1.1-1.1V57c0-.5.5-1 1.1-1H237zM266.4 68.5c.6 0 1.1.4 1.1 1l-.8 6.9c-.1.6-.5 1.1-1.1 1.1H261v29.1c0 .6-.5 1.1-1.1 1.1h-12.5c-.6 0-1.1-.5-1.1-1.1V77.4h-4.1c-.5 0-1-.4-1-1v-6.9c0-.6.5-1.1 1-1.1h4.1v-7.8c0-.5.5-.9 1.1-1l12.5-1.2c.6-.1 1.1.5 1.1 1v9h5.4v.1zM284.3 56c.6 0 1.1.5 1.1 1.1v14.4c1.9-2.5 5.3-4 9.2-4 8.5 0 13.6 4.8 13.6 13.1v26c0 .6-.5 1.1-1.1 1.1h-12.5c-.6 0-1.1-.5-1-1.1V84.2c0-2.8-1.3-4.5-3.5-4.5-4.1 0-4.7 4-4.7 4v22.8c0 .6-.5 1.1-1.1 1.1h-12.5c-.6 0-1.1-.5-1.1-1.1V57.1c0-.6.5-1.1 1.1-1.1h12.5zM55.2 2.5c.6 0 1 .5 1 1.1v47c0 .5-.4 1-1 1H42c-.6 0-1.1-.5-1.1-1V29.7l-7.2 20.8c-.2.6-1.1 1.1-1.8 1.1h-7.8c-.6 0-1.6-.5-1.8-1.1l-7.2-20.8v20.9c0 .5-.5 1-1.1 1H1c-.6 0-1-.5-1-1v-47c0-.6.4-1.1 1-1.1h14.9c.9 0 2 .6 2.4 1.4l9.8 27.2 9.8-27.2c.4-.8 1.5-1.4 2.4-1.4h14.9zM96.3 47.6c.1.5 0 .8-.5 1.1-3.8 2.5-9.2 4-14.7 4-12.6 0-21-8.2-21-20.5 0-12.4 8.2-20.6 20.6-20.6 11.8 0 18.8 7.6 18.8 20.5 0 1.1-.1 2.1-.3 3.2-.1.6-.4.9-1.1.9H75.4s0 4.5 6 4.5c3.6 0 7.7-.9 10.9-2.3.5-.2.9.1 1.1.6l2.9 8.6zm-10.9-19c0-3.1-1.9-5.2-4.8-5.2-3.2 0-5.3 2.1-5.3 5.2h10.1zM114.5 15.4c2.3-2.5 7.1-4 11.4-4 9.7 0 14.9 4.5 14.9 15.6v23.5c0 .6-.5 1.1-1.1 1.1h-12.5c-.6 0-1.1-.5-1-1.1V29.2c0-2.8-1.3-4.5-3.5-4.5-4.1 0-4.7 4-4.7 4v21.8c0 .6-.5 1.1-1.1 1.1h-12.5c-.6 0-1.1-.5-1.1-1.1v-37c0-.6.4-1 1-1h8c.5 0 .9.2 1.1.7l1.1 2.2zM168.8 12.4c.6 0 1.1.4 1.1 1l-.8 6.9c-.1.6-.5 1.1-1.1 1.1h-4.6v29.1c0 .6-.5 1.1-1.1 1.1h-12.5c-.6 0-1.1-.5-1.1-1.1V21.4h-4.1c-.5 0-1-.4-1-1v-6.9c0-.6.5-1.1 1-1.1h4.1V4.7c0-.5.5-.9 1.1-1l12.5-1.2c.6-.1 1.1.5 1.1 1v9h5.4v-.1zM173.6 16.9c-.2-.5-.1-1 .4-1.4 4.1-2.6 9.7-4.1 15.4-4.1 12.3 0 18 6.5 18 20.6v18.4c0 .6-.5 1.1-1.1 1.1h-9c-.6 0-1.1-.5-1.1-1.1l-.5-1.9c-2.3 2.5-7 4.1-12.2 4.1-8.2 0-13.6-5.3-13.5-13.1.1-7 5.5-11.6 13.5-11.6 4.1 0 7.8 1.5 9.2 3.8v-3c0-3.1-2.2-5-5.5-5-2.8 0-6.2.9-8.5 2.3-.4.2-.8-.1-1.1-.6l-4-8.5zm19.1 21.9c-1.2-1.2-2.4-1.8-3.9-1.8-1.8 0-3 1-3 2.6s1.2 2.6 3 2.6c1.5 0 2.7-.6 3.9-1.8v-1.6zM226 0c.6 0 1.1.5 1.1 1v49.5c0 .6-.5 1.1-1.1 1.1h-12.5c-.6 0-1.1-.5-1.1-1.1V1c0-.5.5-1 1.1-1H226zM147.6 166.7c.1.4-.2.9-.8.9h-14.1c-.6 0-1.2-.4-1.3-.9l-1-7.5H117l-3.3 7.5c-.4.6-1 .9-1.6.9H98c-.6 0-.8-.5-.5-.9l23.5-47.2c.3-.4 1.1-.9 1.9-.9h14.5c.7 0 1.4.5 1.6.9l8.6 47.2zm-20.1-31.1l-6 13.5h7.7l-1.7-13.5zM178.8 154.8c.5 0 .9.4.8 1l-2.7 10.8c-.2.5-.7 1-1.3 1h-25.7c-.6 0-1-.5-.9-1l7.4-47c.1-.6.7-1.1 1.2-1.1h12.6c.6 0 1 .5.9 1.1l-5.6 35.2h13.3zM210.7 154.8c.5 0 .9.4.8 1l-2.7 10.8c-.2.5-.7 1-1.3 1h-25.7c-.6 0-1-.5-.9-1l7.4-47c.1-.6.7-1.1 1.2-1.1h12.6c.6 0 1 .5.9 1.1l-5.6 35.2h13.3zM63 119c.2 0 .4.2.4.4v3.9c0 .2-.2.4-.4.4h-6.5v2.3h5.1c.2 0 .4.2.3.3l-.4 3.6c0 .2-.2.3-.4.3h-4.7v6.1c0 .2-.2.4-.4.4h-4.5c-.2 0-.4-.2-.4-.4v-16.9c0-.2.2-.4.4-.4H63zM73.3 137c-5.5 0-9.1-3.7-9.1-9.2 0-5.6 3.6-9.2 9.1-9.2s9.1 3.7 9.1 9.2c0 5.5-3.6 9.2-9.1 9.2zm0-13.3c-2.1 0-3.5 1.6-3.5 4.1 0 2.4 1.4 4.1 3.5 4.1s3.5-1.6 3.5-4.1c0-2.4-1.4-4.1-3.5-4.1zM98.6 136.2c.1.2-.1.4-.3.4h-5.5c-.3 0-.5-.2-.6-.4l-2.7-5.6h-.3v5.6c0 .2-.2.4-.4.4h-4.5c-.2 0-.4-.2-.4-.4v-16.9c0-.2.2-.4.4-.4h6.8c3.9 0 6.6 2.3 6.6 5.8 0 2-1.2 4.1-3.1 4.9l4 6.6zm-7.8-9.9c.9 0 1.5-.5 1.5-1.4 0-.9-.6-1.4-1.5-1.4h-1.5v2.7h1.5v.1z" fill="currentColor"/></svg>