<svg viewBox="0 0 49 51" fill="none" xmlns="http://www.w3.org/2000/svg"><path d="M43.435 38.38l3.727-2.81c1.504-1.112 2.092-3.074 1.569-4.84l-1.373-4.51c-.13-.458-.13-.982 0-1.44l1.373-4.51c.523-1.766-.065-3.728-1.57-4.84l-3.726-2.81c-.393-.328-.654-.72-.85-1.178l-1.57-4.446c-.588-1.765-2.223-2.942-4.119-3.008l-4.642-.065c-.523 0-.98-.13-1.373-.458L27.023.785c-1.504-1.047-3.596-1.047-5.1 0l-3.857 2.68c-.393.262-.85.458-1.373.458l-4.708.065c-1.831.066-3.466 1.243-4.12 3.008l-1.569 4.446c-.13.458-.457.85-.85 1.177L1.72 15.431C.281 16.542-.373 18.504.216 20.269l1.373 4.512c.13.457.13.98 0 1.438L.216 30.731c-.524 1.765.065 3.727 1.569 4.838l3.727 2.812c.392.327.654.719.85 1.177l1.569 4.446c.588 1.765 2.223 2.942 4.12 3.008l4.707.065c.523 0 .98.13 1.373.458l3.858 2.68c.719.523 1.634.785 2.55.785.915 0 1.765-.261 2.55-.785l3.857-2.68c.393-.262.85-.458 1.373-.458l4.708-.066c1.83-.065 3.465-1.242 4.12-3.007l1.569-4.446c0-.458.326-.85.719-1.177zm-1.177-1.569a4.04 4.04 0 00-1.504 2.093l-1.57 4.446a2.396 2.396 0 01-2.288 1.635l-4.707.13c-.85 0-1.7.262-2.42.785l-3.857 2.68a2.46 2.46 0 01-2.812 0l-3.858-2.68a4.108 4.108 0 00-2.419-.785l-4.773-.13c-1.046 0-1.961-.72-2.288-1.635l-1.57-4.446A4.04 4.04 0 006.69 36.81L2.962 34c-.85-.654-1.177-1.7-.85-2.68l1.373-4.512c.261-.85.261-1.766 0-2.55l-1.373-4.512c-.327-.98.065-2.092.85-2.68l3.727-2.812a4.04 4.04 0 001.504-2.092l1.569-4.447a2.396 2.396 0 012.288-1.634l4.708-.066c.85 0 1.7-.261 2.42-.784l3.857-2.681c.392-.262.915-.458 1.438-.458.523 0 .981.131 1.439.458l3.857 2.68a4.11 4.11 0 002.42.785l4.707.066c1.047 0 1.962.719 2.289 1.634l1.569 4.447a4.04 4.04 0 001.504 2.092l3.727 2.811c.85.654 1.177 1.7.85 2.681l-1.308 4.446c-.261.85-.261 1.766 0 2.55l1.373 4.512c.327.98-.065 2.092-.85 2.68l-3.792 2.878z" fill="currentColor"/><path d="M20.224 8.304h.196c.588-.13 1.176-.262 1.83-.327.523-.065.916-.588.85-1.112-.065-.523-.588-.915-1.111-.85-.654.066-1.373.197-2.027.327a.975.975 0 00-.72 1.177c.131.523.524.785.982.785zM16.497 41.258c-.524-.262-1.112-.589-1.57-.916-.457-.261-1.046-.196-1.373.262-.327.458-.196 1.046.262 1.373.588.392 1.177.72 1.765 1.046.13.066.327.131.458.131.327 0 .719-.196.85-.523a1.033 1.033 0 00-.392-1.373zM14.273 10.854c.197 0 .393-.065.523-.13.524-.328 1.046-.655 1.57-.916.457-.262.654-.85.392-1.308-.262-.458-.85-.654-1.308-.392-.588.327-1.177.654-1.765 1.046-.458.327-.589.915-.262 1.373.197.196.523.327.85.327zM22.316 43.023a17.944 17.944 0 01-1.83-.327.975.975 0 10-.459 1.896c.654.131 1.373.262 2.027.327h.131c.458 0 .915-.392.98-.85a.942.942 0 00-.85-1.046zM7.604 30.665c-.131-.523-.72-.784-1.243-.653-.523.13-.784.719-.653 1.242.196.654.457 1.308.719 1.896.13.392.523.589.915.589.131 0 .262 0 .393-.066.523-.196.719-.785.523-1.308-.262-.523-.458-1.111-.654-1.7zM6.362 21.054c.065 0 .196.065.261.065a.962.962 0 00.916-.719c.196-.588.392-1.177.654-1.765.196-.523 0-1.046-.523-1.308-.524-.196-1.047 0-1.308.523-.262.654-.523 1.308-.72 1.962-.13.523.197 1.046.72 1.242zM26.566 7.977c.588.065 1.242.196 1.83.327h.197c.457 0 .85-.327.98-.785a.975.975 0 00-.719-1.177 21.782 21.782 0 00-2.027-.327c-.523-.065-1.046.327-1.111.85-.066.524.326 1.047.85 1.112zM10.416 36.158c-.327-.458-.981-.523-1.373-.196-.458.327-.524.915-.197 1.373.393.523.85 1.046 1.308 1.569.196.196.458.327.72.327a.84.84 0 00.653-.262c.393-.392.393-.98.066-1.373-.458-.457-.85-.98-1.177-1.438zM8.977 15.104c.196.13.392.196.589.196.327 0 .588-.13.784-.392.393-.458.785-.981 1.177-1.439.392-.392.327-1.046-.065-1.373-.393-.392-1.046-.327-1.373.066-.458.523-.916 1.046-1.308 1.569-.327.457-.262 1.046.196 1.373zM5.904 27.462c.523 0 .98-.523.915-1.046V25.5v-.85c0-.523-.392-.98-.915-1.046-.523 0-.98.392-1.046.915v2.027l.98-.065-.98.065c.065.523.458.916 1.046.916zM41.343 20.27c.13.392.523.718.915.718.065 0 .196 0 .262-.065.523-.13.784-.72.653-1.242a16.25 16.25 0 00-.719-1.896c-.196-.523-.784-.72-1.307-.523-.524.196-.72.784-.524 1.307.327.523.524 1.112.72 1.7zM28.462 42.696c-.589.131-1.177.262-1.83.327-.524.066-.916.523-.85 1.112.064.523.457.85.98.85h.13a21.774 21.774 0 002.027-.327.975.975 0 00.72-1.177c-.131-.589-.654-.915-1.177-.785zM44.088 24.388a.931.931 0 00-1.046-.915c-.523 0-.98.523-.915 1.046V26.415c0 .523.392.981.915 1.047h.066c.523 0 .98-.393.98-.916v-.98-1.177zM39.97 35.896c-.458-.327-1.047-.262-1.374.196-.392.523-.784.98-1.177 1.439-.392.392-.327 1.046.066 1.373a.937.937 0 00.654.261c.261 0 .523-.13.719-.327.458-.523.915-1.046 1.308-1.569.326-.392.196-1.046-.197-1.373zM42.585 30.012a1.036 1.036 0 00-1.242.653c-.196.589-.393 1.177-.654 1.766-.196.523 0 1.046.523 1.308.13.065.261.065.392.065.393 0 .72-.196.916-.589.261-.653.523-1.307.719-1.961.13-.523-.13-1.112-.654-1.242zM32.45 9.742c.523.262 1.112.589 1.635.916.196.13.327.13.523.13.327 0 .654-.13.85-.457.327-.458.13-1.046-.262-1.373a24.963 24.963 0 00-1.765-1.047c-.458-.261-1.046-.065-1.308.458-.392.523-.196 1.112.327 1.373zM38.53 14.842a.932.932 0 00.785.393c.197 0 .393-.066.589-.196.457-.327.523-.916.196-1.374-.392-.523-.85-1.046-1.308-1.569a1.011 1.011 0 00-1.373-.065c-.392.392-.392.98-.065 1.373.392.458.784.915 1.177 1.438zM34.085 40.277c-.523.327-1.046.654-1.57.915-.457.262-.653.85-.457 1.308.196.327.523.523.85.523.13 0 .327-.065.458-.13.588-.328 1.177-.655 1.765-1.047.458-.327.589-.915.262-1.373-.262-.327-.85-.458-1.308-.196zM15 22.95v4.865c0 .494.424.915.921.915h6.066l-.92-.915V33.85c0 .494.424.916.92.916h4.89c.496 0 .92-.422.92-.916v-5.279-.756l-.92.915h6.066c.497 0 .92-.421.92-.915V22.95a.933.933 0 00-.92-.916h-6.066l.92.916v-5.279-.757a.933.933 0 00-.92-.915h-4.89a.933.933 0 00-.92.915V22.951l.92-.916H15.923c-.486 0-.946.422-.921.916.024.494.405.915.92.915h6.066c.498 0 .92-.42.92-.915v-5.279-.757l-.92.916h4.89l-.92-.916V22.951c0 .494.423.915.92.915h6.066l-.92-.915v4.864l.92-.916h-6.066a.933.933 0 00-.92.916V33.85l.92-.915h-4.89l.92.915v-5.279-.756a.933.933 0 00-.92-.916H15.923l.92.916V22.95c0-.476-.424-.94-.92-.916-.498.025-.921.403-.921.916z" fill="currentColor"/></svg>