<?xml version="1.0" encoding="UTF-8"?><!DOCTYPE svg PUBLIC "-//W3C//DTD SVG 1.1//EN" "http://www.w3.org/Graphics/SVG/1.1/DTD/svg11.dtd"><svg xmlns="http://www.w3.org/2000/svg" xmlns:xlink="http://www.w3.org/1999/xlink"><defs><linearGradient id="paint-graphic-light-c" x1="160.5" y1="16.5" x2="199.5" y2="296.5" gradientUnits="userSpaceOnUse"><stop stop-color="#FEE6AE"/><stop offset="1" stop-color="#FEE6AE" stop-opacity="0"/></linearGradient><clipPath id="clip-graphic-light-c"><path d="M0 0h915v336H0z"/></clipPath></defs><symbol id="mhfa-logo" viewBox="0 0 270 61"><path d="M75.15 32.739c.337 0 .619.28.619.615v26.303c0 .28-.225.56-.619.56h-7.481a.562.562 0 01-.563-.56v-8.898h-5.625v8.898c0 .28-.225.56-.619.56h-7.425c-.28 0-.562-.28-.562-.56V33.354c0-.336.281-.615.563-.615h7.48c.338 0 .62.28.62.615v10.41h5.624v-10.41c0-.336.225-.615.563-.615h7.425zM98.381 57.978c.056.28 0 .448-.281.616-2.137 1.399-5.175 2.238-8.269 2.238-7.087 0-11.812-4.589-11.812-11.472 0-6.94 4.612-11.529 11.587-11.529 6.638 0 10.575 4.253 10.575 11.473 0 .615-.056 1.175-.168 1.79-.057.336-.226.504-.62.504H86.57s0 2.519 3.375 2.519c2.025 0 4.331-.504 6.131-1.288.281-.112.506.056.619.336l1.687 4.813zm-6.187-10.633c0-1.735-1.069-2.91-2.7-2.91-1.8 0-2.981 1.175-2.981 2.91h5.68zM103.781 40.797c-.112-.28-.056-.56.225-.783 2.307-1.455 5.457-2.295 8.663-2.295 6.919 0 10.125 3.638 10.125 11.529v10.297a.623.623 0 01-.619.615h-5.062a.623.623 0 01-.619-.615l-.281-1.063c-1.294 1.399-3.938 2.294-6.863 2.294-4.612 0-7.65-2.966-7.594-7.331.057-3.917 3.094-6.492 7.594-6.492 2.306 0 4.388.84 5.175 2.127V47.4c0-1.734-1.237-2.797-3.094-2.797-1.575 0-3.487.503-4.781 1.287-.225.112-.45-.056-.619-.336l-2.25-4.757zm10.8 12.256c-.675-.671-1.35-1.007-2.193-1.007-1.013 0-1.688.56-1.688 1.455s.675 1.455 1.688 1.455c.843 0 1.518-.336 2.193-1.007v-.896zM133.313 31.34c.337 0 .618.28.618.56v27.7a.622.622 0 01-.618.617h-7.032a.622.622 0 01-.618-.616V31.899c0-.28.281-.56.618-.56h7.032zM149.85 38.335c.338 0 .619.224.619.56l-.45 3.861c-.056.336-.281.616-.619.616h-2.587v16.285a.623.623 0 01-.619.616h-7.031a.623.623 0 01-.619-.616V43.316h-2.306a.562.562 0 01-.563-.56v-3.861c0-.336.281-.616.563-.616h2.306v-4.365c0-.28.281-.504.619-.56l7.031-.671c.337-.056.619.28.619.56v5.036h3.037v.056zM159.919 31.34c.337 0 .619.28.619.615v8.059c1.068-1.4 2.981-2.239 5.175-2.239 4.781 0 7.65 2.687 7.65 7.331v14.55a.623.623 0 01-.619.617h-7.031c-.338 0-.619-.28-.563-.616V47.12c0-1.567-.731-2.518-1.969-2.518-2.306 0-2.643 2.238-2.643 2.238v12.76a.623.623 0 01-.619.616h-7.031a.623.623 0 01-.619-.616V31.955c0-.336.281-.616.619-.616h7.031zM31.05 1.4c.337 0 .563.279.563.615v26.302c0 .28-.226.56-.563.56h-7.425c-.337 0-.619-.28-.619-.56V16.621l-4.05 11.64c-.112.336-.619.616-1.012.616h-4.388c-.337 0-.9-.28-1.012-.615l-4.05-11.64v11.695c0 .28-.281.56-.619.56H.562a.562.562 0 01-.562-.56V2.015c0-.336.225-.616.563-.616h8.38c.507 0 1.126.336 1.35.784l5.513 15.222L21.32 2.183c.225-.448.844-.784 1.35-.784h8.381zM54.169 26.639c.056.28 0 .447-.282.615-2.137 1.4-5.175 2.239-8.268 2.239-7.088 0-11.813-4.59-11.813-11.473 0-6.94 4.613-11.528 11.588-11.528 6.637 0 10.575 4.253 10.575 11.472a9.65 9.65 0 01-.17 1.791c-.055.336-.224.504-.618.504H42.412s0 2.518 3.375 2.518c2.025 0 4.332-.504 6.132-1.287.28-.112.506.056.618.336l1.632 4.813zm-6.132-10.633c0-1.735-1.068-2.91-2.7-2.91-1.8 0-2.98 1.175-2.98 2.91h5.68zM64.406 8.618C65.7 7.22 68.4 6.38 70.82 6.38c5.456 0 8.381 2.518 8.381 8.73v13.152a.623.623 0 01-.619.615H71.55c-.338 0-.619-.28-.563-.615v-11.92c0-1.568-.73-2.52-1.968-2.52-2.307 0-2.644 2.24-2.644 2.24v12.2a.623.623 0 01-.619.615h-7.031a.623.623 0 01-.619-.615V7.555c0-.336.225-.56.563-.56h4.5c.281 0 .506.112.619.392l.618 1.231zM94.95 6.94c.337 0 .619.223.619.56l-.45 3.86c-.057.336-.282.616-.62.616h-2.587v16.285a.623.623 0 01-.618.616h-7.032a.623.623 0 01-.618-.615V11.976h-2.307a.562.562 0 01-.562-.56v-3.86c0-.337.281-.617.562-.617h2.307V2.63c0-.28.28-.503.618-.56l7.032-.67c.337-.057.618.279.618.559v5.036h3.038V6.94zM97.65 9.458c-.113-.28-.056-.56.225-.784 2.306-1.455 5.456-2.294 8.663-2.294 6.918 0 10.125 3.637 10.125 11.528v10.297a.623.623 0 01-.619.616h-5.063a.622.622 0 01-.618-.616l-.282-1.063c-1.293 1.4-3.937 2.295-6.862 2.295-4.613 0-7.65-2.966-7.594-7.332.056-3.917 3.094-6.491 7.594-6.491 2.306 0 4.387.84 5.175 2.126v-1.678c0-1.735-1.238-2.799-3.094-2.799-1.575 0-3.487.504-4.781 1.287-.225.112-.45-.056-.619-.335l-2.25-4.757zm10.744 12.256c-.675-.672-1.35-1.008-2.194-1.008-1.012 0-1.687.56-1.687 1.456 0 .895.675 1.454 1.687 1.454.844 0 1.519-.335 2.194-1.007v-.895zM127.125 0c.338 0 .619.28.619.56V28.26a.623.623 0 01-.619.616h-7.031a.623.623 0 01-.619-.615V.56c0-.28.281-.56.619-.56h7.031zM233.719 59.433c.056.224-.113.504-.45.504h-7.932c-.337 0-.675-.224-.731-.504l-.562-4.197h-7.538l-1.856 4.197a1.083 1.083 0 01-.9.504h-7.931c-.338 0-.45-.28-.282-.504l13.219-26.415c.169-.224.619-.503 1.069-.503h8.156c.394 0 .788.28.9.503l4.838 26.415zm-11.307-17.404l-3.375 7.554h4.332l-.957-7.554zM251.269 52.773c.281 0 .506.224.45.56l-1.519 6.044c-.113.28-.394.56-.731.56h-14.457c-.337 0-.562-.28-.506-.56l4.163-26.303c.056-.335.393-.615.675-.615h7.087c.338 0 .563.28.506.615l-3.15 19.7h7.482zM269.213 52.773c.281 0 .506.224.45.56l-1.519 6.044c-.113.28-.394.56-.731.56h-14.457c-.337 0-.562-.28-.506-.56l4.163-26.303c.056-.335.393-.615.675-.615h7.087c.338 0 .563.28.506.615l-3.15 19.7h7.482zM186.131 32.739c.113 0 .225.111.225.223v2.183c0 .112-.112.224-.225.224h-3.656v1.287h2.869c.112 0 .225.112.169.168l-.225 2.015c0 .111-.113.167-.225.167h-2.644v3.414c0 .112-.113.224-.225.224h-2.531c-.113 0-.225-.112-.225-.224v-9.458c0-.112.112-.224.225-.224h6.468zM191.925 42.812c-3.094 0-5.119-2.07-5.119-5.149 0-3.134 2.025-5.148 5.119-5.148s5.119 2.07 5.119 5.148-2.025 5.149-5.119 5.149zm0-7.443c-1.181 0-1.969.895-1.969 2.294 0 1.343.788 2.295 1.969 2.295s1.969-.896 1.969-2.295c0-1.343-.788-2.294-1.969-2.294zM206.156 42.364c.056.112-.056.224-.169.224h-3.093a.38.38 0 01-.338-.224l-1.519-3.134h-.168v3.134c0 .112-.113.224-.225.224h-2.532c-.112 0-.225-.112-.225-.224v-9.458c0-.111.113-.223.225-.223h3.825c2.194 0 3.713 1.287 3.713 3.245 0 1.12-.675 2.295-1.744 2.743l2.25 3.693zm-4.387-5.54c.506 0 .843-.28.843-.784 0-.503-.337-.783-.843-.783h-.844v1.51h.844v.057z" fill="currentColor"/></symbol><symbol id="mhfa-logo-stacked" viewBox="0 0 309 168"><path d="M133.6 58.5c.6 0 1.1.5 1.1 1.1v47c0 .5-.4 1-1.1 1h-13.3c-.6 0-1-.5-1-1V90.7h-10v15.9c0 .5-.4 1-1.1 1H95c-.5 0-1-.5-1-1v-47c0-.6.5-1.1 1-1.1h13.3c.6 0 1.1.5 1.1 1.1v18.6h10V59.6c0-.6.4-1.1 1-1.1h13.2zM174.9 103.6c.1.5 0 .8-.5 1.1-3.8 2.5-9.2 4-14.7 4-12.6 0-21-8.2-21-20.5 0-12.4 8.2-20.6 20.6-20.6 11.8 0 18.8 7.6 18.8 20.5 0 1.1-.1 2.1-.3 3.2-.1.6-.4.9-1.1.9h-22.8s0 4.5 6 4.5c3.6 0 7.7-.9 10.9-2.3.5-.2.9.1 1.1.6l3 8.6zm-11-19c0-3.1-1.9-5.2-4.8-5.2-3.2 0-5.3 2.1-5.3 5.2h10.1zM184.5 72.9c-.2-.5-.1-1 .4-1.4 4.1-2.6 9.7-4.1 15.4-4.1 12.3 0 18 6.5 18 20.6v18.4c0 .6-.5 1.1-1.1 1.1h-9c-.6 0-1.1-.5-1.1-1.1l-.5-1.9c-2.3 2.5-7 4.1-12.2 4.1-8.2 0-13.6-5.3-13.5-13.1.1-7 5.5-11.6 13.5-11.6 4.1 0 7.8 1.5 9.2 3.8v-3c0-3.1-2.2-5-5.5-5-2.8 0-6.2.9-8.5 2.3-.4.2-.8-.1-1.1-.6l-4-8.5zm19.2 21.9c-1.2-1.2-2.4-1.8-3.9-1.8-1.8 0-3 1-3 2.6s1.2 2.6 3 2.6c1.5 0 2.7-.6 3.9-1.8v-1.6zM237 56c.6 0 1.1.5 1.1 1v49.5c0 .6-.5 1.1-1.1 1.1h-12.5c-.6 0-1.1-.5-1.1-1.1V57c0-.5.5-1 1.1-1H237zM266.4 68.5c.6 0 1.1.4 1.1 1l-.8 6.9c-.1.6-.5 1.1-1.1 1.1H261v29.1c0 .6-.5 1.1-1.1 1.1h-12.5c-.6 0-1.1-.5-1.1-1.1V77.4h-4.1c-.5 0-1-.4-1-1v-6.9c0-.6.5-1.1 1-1.1h4.1v-7.8c0-.5.5-.9 1.1-1l12.5-1.2c.6-.1 1.1.5 1.1 1v9h5.4v.1zM284.3 56c.6 0 1.1.5 1.1 1.1v14.4c1.9-2.5 5.3-4 9.2-4 8.5 0 13.6 4.8 13.6 13.1v26c0 .6-.5 1.1-1.1 1.1h-12.5c-.6 0-1.1-.5-1-1.1V84.2c0-2.8-1.3-4.5-3.5-4.5-4.1 0-4.7 4-4.7 4v22.8c0 .6-.5 1.1-1.1 1.1h-12.5c-.6 0-1.1-.5-1.1-1.1V57.1c0-.6.5-1.1 1.1-1.1h12.5zM55.2 2.5c.6 0 1 .5 1 1.1v47c0 .5-.4 1-1 1H42c-.6 0-1.1-.5-1.1-1V29.7l-7.2 20.8c-.2.6-1.1 1.1-1.8 1.1h-7.8c-.6 0-1.6-.5-1.8-1.1l-7.2-20.8v20.9c0 .5-.5 1-1.1 1H1c-.6 0-1-.5-1-1v-47c0-.6.4-1.1 1-1.1h14.9c.9 0 2 .6 2.4 1.4l9.8 27.2 9.8-27.2c.4-.8 1.5-1.4 2.4-1.4h14.9zM96.3 47.6c.1.5 0 .8-.5 1.1-3.8 2.5-9.2 4-14.7 4-12.6 0-21-8.2-21-20.5 0-12.4 8.2-20.6 20.6-20.6 11.8 0 18.8 7.6 18.8 20.5 0 1.1-.1 2.1-.3 3.2-.1.6-.4.9-1.1.9H75.4s0 4.5 6 4.5c3.6 0 7.7-.9 10.9-2.3.5-.2.9.1 1.1.6l2.9 8.6zm-10.9-19c0-3.1-1.9-5.2-4.8-5.2-3.2 0-5.3 2.1-5.3 5.2h10.1zM114.5 15.4c2.3-2.5 7.1-4 11.4-4 9.7 0 14.9 4.5 14.9 15.6v23.5c0 .6-.5 1.1-1.1 1.1h-12.5c-.6 0-1.1-.5-1-1.1V29.2c0-2.8-1.3-4.5-3.5-4.5-4.1 0-4.7 4-4.7 4v21.8c0 .6-.5 1.1-1.1 1.1h-12.5c-.6 0-1.1-.5-1.1-1.1v-37c0-.6.4-1 1-1h8c.5 0 .9.2 1.1.7l1.1 2.2zM168.8 12.4c.6 0 1.1.4 1.1 1l-.8 6.9c-.1.6-.5 1.1-1.1 1.1h-4.6v29.1c0 .6-.5 1.1-1.1 1.1h-12.5c-.6 0-1.1-.5-1.1-1.1V21.4h-4.1c-.5 0-1-.4-1-1v-6.9c0-.6.5-1.1 1-1.1h4.1V4.7c0-.5.5-.9 1.1-1l12.5-1.2c.6-.1 1.1.5 1.1 1v9h5.4v-.1zM173.6 16.9c-.2-.5-.1-1 .4-1.4 4.1-2.6 9.7-4.1 15.4-4.1 12.3 0 18 6.5 18 20.6v18.4c0 .6-.5 1.1-1.1 1.1h-9c-.6 0-1.1-.5-1.1-1.1l-.5-1.9c-2.3 2.5-7 4.1-12.2 4.1-8.2 0-13.6-5.3-13.5-13.1.1-7 5.5-11.6 13.5-11.6 4.1 0 7.8 1.5 9.2 3.8v-3c0-3.1-2.2-5-5.5-5-2.8 0-6.2.9-8.5 2.3-.4.2-.8-.1-1.1-.6l-4-8.5zm19.1 21.9c-1.2-1.2-2.4-1.8-3.9-1.8-1.8 0-3 1-3 2.6s1.2 2.6 3 2.6c1.5 0 2.7-.6 3.9-1.8v-1.6zM226 0c.6 0 1.1.5 1.1 1v49.5c0 .6-.5 1.1-1.1 1.1h-12.5c-.6 0-1.1-.5-1.1-1.1V1c0-.5.5-1 1.1-1H226zM147.6 166.7c.1.4-.2.9-.8.9h-14.1c-.6 0-1.2-.4-1.3-.9l-1-7.5H117l-3.3 7.5c-.4.6-1 .9-1.6.9H98c-.6 0-.8-.5-.5-.9l23.5-47.2c.3-.4 1.1-.9 1.9-.9h14.5c.7 0 1.4.5 1.6.9l8.6 47.2zm-20.1-31.1l-6 13.5h7.7l-1.7-13.5zM178.8 154.8c.5 0 .9.4.8 1l-2.7 10.8c-.2.5-.7 1-1.3 1h-25.7c-.6 0-1-.5-.9-1l7.4-47c.1-.6.7-1.1 1.2-1.1h12.6c.6 0 1 .5.9 1.1l-5.6 35.2h13.3zM210.7 154.8c.5 0 .9.4.8 1l-2.7 10.8c-.2.5-.7 1-1.3 1h-25.7c-.6 0-1-.5-.9-1l7.4-47c.1-.6.7-1.1 1.2-1.1h12.6c.6 0 1 .5.9 1.1l-5.6 35.2h13.3zM63 119c.2 0 .4.2.4.4v3.9c0 .2-.2.4-.4.4h-6.5v2.3h5.1c.2 0 .4.2.3.3l-.4 3.6c0 .2-.2.3-.4.3h-4.7v6.1c0 .2-.2.4-.4.4h-4.5c-.2 0-.4-.2-.4-.4v-16.9c0-.2.2-.4.4-.4H63zM73.3 137c-5.5 0-9.1-3.7-9.1-9.2 0-5.6 3.6-9.2 9.1-9.2s9.1 3.7 9.1 9.2c0 5.5-3.6 9.2-9.1 9.2zm0-13.3c-2.1 0-3.5 1.6-3.5 4.1 0 2.4 1.4 4.1 3.5 4.1s3.5-1.6 3.5-4.1c0-2.4-1.4-4.1-3.5-4.1zM98.6 136.2c.1.2-.1.4-.3.4h-5.5c-.3 0-.5-.2-.6-.4l-2.7-5.6h-.3v5.6c0 .2-.2.4-.4.4h-4.5c-.2 0-.4-.2-.4-.4v-16.9c0-.2.2-.4.4-.4h6.8c3.9 0 6.6 2.3 6.6 5.8 0 2-1.2 4.1-3.1 4.9l4 6.6zm-7.8-9.9c.9 0 1.5-.5 1.5-1.4 0-.9-.6-1.4-1.5-1.4h-1.5v2.7h1.5v.1z" fill="currentColor"/></symbol><symbol id="mhfa-logo-nyc" viewBox="0 0 45 15"><path d="M44.063 6.55L45 5.627V2.813L42.187 0h-9.374L30 2.813V.939L29.063 0h-3.75l-.937.939v1.874L22.5 4.689l-1.874-1.876V.939L19.687 0h-3.75L15 .939 14.063 0h-3.75l-.937.939v3.75L4.687 0H.937L0 .939v13.124L.937 15h3.75l.939-.937v-3.75L10.313 15h3.75l.937-.937v-7.5l4.687 4.687v2.813l.939.937h3.75l.937-.937V11.25L30 6.563v5.626L32.813 15h9.374L45 12.189V9.376l-.937-.939h-4.689v.939h-3.748v-3.75h3.748v.925h4.689zM44.332.633c.089 0 .165-.008.165-.111 0-.086-.085-.097-.154-.097H44.2v.208h.131zm-.13.403h-.116v-.71h.269c.17 0 .259.06.259.204 0 .13-.078.181-.185.193l.2.313h-.132l-.183-.304h-.11v.304h-.001zm.126-.896c-.277 0-.493.218-.493.53 0 .292.189.53.493.53.275 0 .491-.216.491-.53 0-.312-.216-.53-.49-.53zm0 1.171c-.368 0-.63-.275-.63-.641 0-.386.291-.641.63-.641a.62.62 0 01.627.64.62.62 0 01-.627.642z" fill="currentColor"/></symbol><symbol id="mhfa-logo-nyc-opportunity" viewBox="0 0 332 63"><path d="M169.529 25.963l3.605-3.558V11.582L162.311.76h-36.065l-10.823 10.823v-7.21L111.818.76H97.39l-3.605 3.613v7.21L86.567 18.8l-7.21-7.218v-7.21L75.744.76H61.316l-3.605 3.613L54.106.76H39.68l-3.605 3.613V18.8L18.033.76H3.605L0 4.371v50.494l3.605 3.605h14.428l3.613-3.605V40.438L39.679 58.47h14.427l3.605-3.605V26.01l18.033 18.033v10.823l3.613 3.605h14.428l3.605-3.605V44.043l18.033-18.033v21.646l10.823 10.815h36.065l10.823-10.815V36.833l-3.605-3.613h-18.04v3.613h-14.42V22.405h14.42v3.558h18.04zM170.565 3.194c.34 0 .632-.031.632-.427 0-.332-.324-.371-.593-.371h-.545v.798h.506zm-.498 1.55h-.451V2.016h1.036c.656 0 .996.23.996.783 0 .498-.3.696-.712.743l.767 1.202h-.506l-.703-1.17h-.419v1.17h-.008zm.482-3.447c-1.067 0-1.897.838-1.897 2.04 0 1.122.727 2.04 1.897 2.04 1.059 0 1.89-.83 1.89-2.04 0-1.202-.831-2.04-1.89-2.04zm0 4.506c-1.415 0-2.427-1.06-2.427-2.466 0-1.487 1.123-2.467 2.427-2.467 1.289 0 2.411.98 2.411 2.467.008 1.478-1.114 2.466-2.411 2.466zM187.731 15h3.521V4.093h.041L194.311 15h2.858l3.018-10.907h.04V15h3.522V.632h-5.514l-2.475 9.579h-.04L193.245.632h-5.514V15zm21.326-2.998c0-.825.644-1.147 1.409-1.329.744-.2 1.629-.261 2.112-.563.081 2.153-.462 3.079-2.092 3.079-.765 0-1.429-.342-1.429-1.187zm.201-4.226c.161-.886.765-1.308 1.711-1.308.704 0 1.65.302 1.65 1.086 0 .644-.322.846-.906.966-2.374.483-6.077.222-6.077 3.623 0 2.153 1.57 3.159 3.562 3.159 1.247 0 2.555-.362 3.441-1.288.04.342.08.664.201.986h3.441c-.402-.825-.402-1.791-.402-2.676V7.756c0-2.958-2.395-3.502-4.87-3.502-1.187 0-2.395.202-3.32.725-.926.543-1.57 1.428-1.63 2.797h3.199zm19.294-3.22h-3.502l-1.972 6.802h-.04l-1.972-6.802h-3.622l2.696 7.265c.201.563.865 2.173.865 2.736 0 .725-.583 1.167-1.368 1.167h-1.187v2.777h1.61c2.314 0 3.541-.281 4.366-2.575l4.126-11.37zm3.906 5.232c0-1.328.483-2.918 2.072-2.918 1.59 0 2.093 1.59 2.093 2.918s-.503 2.898-2.093 2.898c-1.589 0-2.072-1.57-2.072-2.898zm-3.421 0c0 3.14 2.254 5.514 5.493 5.514 3.24 0 5.514-2.375 5.514-5.514 0-3.14-2.274-5.534-5.514-5.534-3.239 0-5.493 2.395-5.493 5.534zM241.962 15h3.421V9.828c0-1.308.886-2.475 2.576-2.475.463 0 .865.08 1.308.201V4.435a3.643 3.643 0 00-.805-.08c-1.469 0-2.636.704-3.139 2.032h-.04v-1.83h-3.321V15zm8.689-10.625h1.449c.06.926-.563 1.73-1.449 1.892v1.61c2.194-.363 3.18-1.892 3.2-3.904V.633h-3.2v3.742zm3.616 7.184c.1 2.918 2.636 3.743 5.111 3.743 2.354 0 5.011-.926 5.011-3.723 0-.865-.544-2.395-2.657-2.817-1.569-.342-3.863-.523-3.863-1.51 0-.724.905-.784 1.469-.784.422 0 .805.08 1.086.261.282.182.443.463.443.906h3.159c-.12-2.717-2.515-3.38-4.809-3.38-2.052 0-4.769.683-4.769 3.199 0 2.817 2.696 2.877 4.85 3.42.603.142 1.67.303 1.67 1.107 0 .826-.946 1.107-1.61 1.107-.483 0-.946-.12-1.268-.362-.342-.262-.563-.644-.563-1.167h-3.26zm17.73-3.743c0 4.166 2.556 7.486 7.083 7.486 4.528 0 7.084-3.32 7.084-7.486 0-4.165-2.556-7.486-7.084-7.486-4.527 0-7.083 3.32-7.083 7.486zm3.743 0c0-2.133.926-4.266 3.34-4.266 2.415 0 3.341 2.133 3.341 4.266s-.926 4.266-3.341 4.266c-2.414 0-3.34-2.133-3.34-4.266zM288.806 15h3.421V6.77h2.053V4.556h-2.053v-.463c0-.945.483-1.046 1.268-1.046.302 0 .604.02.926.06V.693c-.544-.02-1.107-.06-1.65-.06-2.918 0-3.965.925-3.965 3.923h-1.65V6.77h1.65V15zm7.448 0h3.421V6.77h2.053V4.556h-2.053v-.463c0-.945.483-1.046 1.268-1.046.302 0 .604.02.926.06V.693c-.544-.02-1.107-.06-1.651-.06-2.917 0-3.964.925-3.964 3.923h-1.65V6.77h1.65V15zm7.026 0h3.42V4.556h-3.42V15zM306.7.632h-3.42v2.616h3.42V.632zm12.334 7.748c-.242-2.757-2.556-4.126-5.152-4.126-3.36 0-5.473 2.375-5.473 5.695 0 3.2 2.334 5.353 5.473 5.353 2.777 0 4.951-1.61 5.252-4.407h-3.32c-.161 1.107-.765 1.79-1.952 1.79-1.449 0-2.032-1.388-2.032-2.736 0-1.449.302-3.079 2.213-3.079.866 0 1.65.624 1.671 1.51h3.32zm4.322.321c.201-1.267 1.006-2.133 2.213-2.133 1.147 0 1.972.966 2.033 2.133h-4.246zm7.667 1.912c.161-3.541-1.711-6.359-5.454-6.359-3.079 0-5.634 2.294-5.634 5.494 0 3.501 2.314 5.554 5.715 5.554 2.334 0 4.568-1.047 5.192-3.461h-3.2c-.322.764-1.127 1.147-1.952 1.147-1.449 0-2.274-.946-2.334-2.375h7.667zM188.314 37h3.421v-8.23h2.053v-2.214h-2.053v-.463c0-.945.483-1.046 1.268-1.046.302 0 .604.02.926.06v-2.415c-.544-.02-1.107-.06-1.65-.06-2.918 0-3.965.926-3.965 3.924h-1.65v2.214h1.65V37zm9.622-5.212c0-1.328.483-2.918 2.072-2.918 1.59 0 2.093 1.59 2.093 2.918s-.503 2.898-2.093 2.898c-1.589 0-2.072-1.57-2.072-2.898zm-3.421 0c0 3.14 2.253 5.514 5.493 5.514s5.514-2.375 5.514-5.514c0-3.14-2.274-5.534-5.514-5.534s-5.493 2.395-5.493 5.534zM207.44 37h3.421v-5.172c0-1.308.886-2.475 2.576-2.475.463 0 .865.08 1.308.201v-3.119a3.641 3.641 0 00-.805-.08c-1.469 0-2.636.704-3.139 2.032h-.04v-1.83h-3.321V37zm14.936 0h11.651v-3.22h-7.908v-2.736h7.043v-2.898h-7.043V25.63h7.707v-2.999h-11.45V37zm23.555-6.62c-.241-2.757-2.555-4.126-5.151-4.126-3.361 0-5.474 2.375-5.474 5.695 0 3.2 2.335 5.353 5.474 5.353 2.777 0 4.95-1.61 5.252-4.407h-3.32c-.161 1.107-.765 1.79-1.952 1.79-1.449 0-2.033-1.388-2.033-2.736 0-1.449.302-3.079 2.214-3.079.865 0 1.65.624 1.67 1.51h3.32zm4.725 1.408c0-1.328.483-2.918 2.072-2.918 1.59 0 2.093 1.59 2.093 2.918s-.503 2.898-2.093 2.898c-1.589 0-2.072-1.57-2.072-2.898zm-3.421 0c0 3.14 2.254 5.514 5.493 5.514 3.24 0 5.514-2.375 5.514-5.514 0-3.14-2.274-5.534-5.514-5.534-3.239 0-5.493 2.395-5.493 5.534zM259.838 37h3.421v-5.695c0-1.147.564-2.233 1.852-2.233 1.871 0 1.71 1.448 1.71 2.877V37h3.421v-6.701c0-1.51-.282-4.045-3.763-4.045-1.248 0-2.656.664-3.28 1.73h-.04v-1.428h-3.321V37zm15.392-5.212c0-1.328.483-2.918 2.073-2.918 1.59 0 2.093 1.59 2.093 2.918s-.503 2.898-2.093 2.898c-1.59 0-2.073-1.57-2.073-2.898zm-3.421 0c0 3.14 2.254 5.514 5.494 5.514 3.24 0 5.514-2.375 5.514-5.514 0-3.14-2.274-5.534-5.514-5.534s-5.494 2.395-5.494 5.534zM284.413 37h3.421v-5.091c0-2.133.523-2.837 1.751-2.837.925 0 1.287.764 1.287 1.992V37h3.421v-5.111c0-1.69.141-2.817 1.61-2.817.886 0 1.429.664 1.429 1.79V37h3.421v-6.238c0-1.992-.362-4.508-3.683-4.508-1.408 0-2.435.584-3.26 1.69-.563-1.267-1.73-1.69-3.038-1.69-1.268 0-2.375.684-2.999 1.73h-.04v-1.428h-3.32V37zm18.75 0h3.421V26.556h-3.421V37zm3.421-14.368h-3.421v2.616h3.421v-2.616zm12.535 7.747c-.242-2.756-2.556-4.125-5.152-4.125-3.36 0-5.473 2.375-5.473 5.695 0 3.2 2.334 5.353 5.473 5.353 2.777 0 4.95-1.61 5.252-4.407h-3.32c-.161 1.107-.765 1.79-1.952 1.79-1.449 0-2.032-1.388-2.032-2.736 0-1.449.302-3.079 2.213-3.079.865 0 1.65.624 1.67 1.51h3.321zM187.167 51.817c0 4.165 2.556 7.486 7.084 7.486 4.527 0 7.083-3.32 7.083-7.486 0-4.165-2.556-7.486-7.083-7.486-4.528 0-7.084 3.32-7.084 7.486zm3.743 0c0-2.133.926-4.266 3.341-4.266 2.414 0 3.34 2.133 3.34 4.266s-.926 4.266-3.34 4.266c-2.415 0-3.341-2.133-3.341-4.266zm17.514-.946c1.509 0 2.032 1.47 2.032 2.797 0 1.43-.523 3.019-2.052 3.019-1.55 0-2.073-1.187-2.073-3.019 0-2.153 1.167-2.797 2.093-2.797zm-5.393 11.631h3.421v-4.628h.04c.704.946 1.69 1.429 2.978 1.429 2.958 0 4.407-2.576 4.407-5.292 0-2.938-1.388-5.756-4.668-5.756-1.208 0-2.214.524-2.878 1.51h-.04v-1.208h-3.26v13.945zm18.068-11.63c1.509 0 2.032 1.468 2.032 2.796 0 1.43-.523 3.019-2.052 3.019-1.55 0-2.073-1.187-2.073-3.019 0-2.153 1.167-2.797 2.093-2.797zm-5.393 11.63h3.421v-4.628h.04c.704.946 1.69 1.429 2.978 1.429 2.958 0 4.407-2.576 4.407-5.292 0-2.938-1.388-5.756-4.668-5.756-1.208 0-2.214.524-2.878 1.51h-.04v-1.208h-3.26v13.945zm15.593-8.713c0-1.328.483-2.918 2.073-2.918 1.589 0 2.092 1.59 2.092 2.918s-.503 2.898-2.092 2.898c-1.59 0-2.073-1.57-2.073-2.898zm-3.421 0c0 3.14 2.254 5.514 5.494 5.514 3.239 0 5.513-2.375 5.513-5.514 0-3.14-2.274-5.534-5.513-5.534-3.24 0-5.494 2.395-5.494 5.534zM240.401 59h3.421v-5.172c0-1.308.886-2.475 2.576-2.475.463 0 .865.08 1.308.201v-3.119a3.641 3.641 0 00-.805-.08c-1.469 0-2.636.704-3.139 2.032h-.04v-1.83h-3.321V59zm15.35-10.444h-2.113v-3.16h-3.421v3.16h-1.731v2.214h1.731v4.648c0 2.837.744 3.683 3.662 3.683.624 0 1.248-.08 1.872-.101v-2.515c-.302 0-.604.04-.886.04-.744 0-1.227-.181-1.227-1.006v-4.75h2.113v-2.213zm11.906 0h-3.421v5.594c0 1.852-1.127 2.335-1.871 2.335-1.087 0-1.691-.483-1.691-1.872v-6.057h-3.421v6.279c0 2.736.866 4.467 3.864 4.467 1.207 0 2.535-.664 3.179-1.73h.041V59h3.32V48.556zM269.949 59h3.421v-5.695c0-1.147.563-2.233 1.851-2.233 1.871 0 1.71 1.448 1.71 2.877V59h3.421v-6.701c0-1.51-.281-4.045-3.763-4.045-1.247 0-2.656.664-3.28 1.73h-.04v-1.428h-3.32V59zm12.796 0h3.42V48.556h-3.42V59zm3.42-14.368h-3.42v2.616h3.42v-2.616zm8.712 3.924h-2.113v-3.16h-3.421v3.16h-1.731v2.214h1.731v4.648c0 2.837.744 3.683 3.662 3.683.624 0 1.248-.08 1.872-.101v-2.515c-.302 0-.604.04-.886.04-.744 0-1.227-.181-1.227-1.006v-4.75h2.113v-2.213zm11.343 0h-3.502l-1.972 6.802h-.04l-1.972-6.802h-3.622l2.696 7.265c.201.563.865 2.173.865 2.736 0 .725-.583 1.167-1.368 1.167h-1.187v2.777h1.61c2.314 0 3.541-.281 4.366-2.575l4.126-11.37z" fill="currentColor"/></symbol><symbol id="mhfa-logo-color"><path d="M75.15 32.739c.337 0 .619.28.619.615v26.303c0 .28-.225.56-.619.56h-7.481a.562.562 0 01-.563-.56v-8.898h-5.625v8.898c0 .28-.225.56-.619.56h-7.425c-.28 0-.562-.28-.562-.56V33.354c0-.336.281-.615.563-.615h7.48c.338 0 .62.28.62.615v10.41h5.624v-10.41c0-.336.225-.615.563-.615h7.425zM98.381 57.978c.056.28 0 .448-.281.616-2.137 1.399-5.175 2.238-8.269 2.238-7.087 0-11.812-4.589-11.812-11.472 0-6.94 4.612-11.529 11.587-11.529 6.638 0 10.575 4.253 10.575 11.473 0 .615-.056 1.175-.168 1.79-.057.336-.226.504-.62.504H86.57s0 2.519 3.375 2.519c2.025 0 4.331-.504 6.131-1.288.281-.112.506.056.619.336l1.687 4.813zm-6.187-10.633c0-1.735-1.069-2.91-2.7-2.91-1.8 0-2.981 1.175-2.981 2.91h5.68zM103.781 40.797c-.112-.28-.056-.56.225-.783 2.307-1.455 5.457-2.295 8.663-2.295 6.919 0 10.125 3.638 10.125 11.529v10.297a.623.623 0 01-.619.615h-5.062a.623.623 0 01-.619-.615l-.281-1.063c-1.294 1.399-3.938 2.294-6.863 2.294-4.612 0-7.65-2.966-7.594-7.331.057-3.917 3.094-6.492 7.594-6.492 2.306 0 4.388.84 5.175 2.127V47.4c0-1.734-1.237-2.797-3.094-2.797-1.575 0-3.487.503-4.781 1.287-.225.112-.45-.056-.619-.336l-2.25-4.757zm10.8 12.256c-.675-.671-1.35-1.007-2.193-1.007-1.013 0-1.688.56-1.688 1.455s.675 1.455 1.688 1.455c.843 0 1.518-.336 2.193-1.007v-.896zM133.313 31.34c.337 0 .618.28.618.56v27.7a.622.622 0 01-.618.617h-7.032a.622.622 0 01-.618-.616V31.899c0-.28.281-.56.618-.56h7.032zM149.85 38.335c.338 0 .619.224.619.56l-.45 3.861c-.056.336-.281.616-.619.616h-2.587v16.285a.623.623 0 01-.619.616h-7.031a.623.623 0 01-.619-.616V43.316h-2.306a.562.562 0 01-.563-.56v-3.861c0-.336.281-.616.563-.616h2.306v-4.365c0-.28.281-.504.619-.56l7.031-.671c.337-.056.619.28.619.56v5.036h3.037v.056zM159.919 31.34c.337 0 .619.28.619.615v8.059c1.068-1.4 2.981-2.239 5.175-2.239 4.781 0 7.65 2.687 7.65 7.331v14.55a.623.623 0 01-.619.617h-7.031c-.338 0-.619-.28-.563-.616V47.12c0-1.567-.731-2.518-1.969-2.518-2.306 0-2.643 2.238-2.643 2.238v12.76a.623.623 0 01-.619.616h-7.031a.623.623 0 01-.619-.616V31.955c0-.336.281-.616.619-.616h7.031zM31.05 1.4c.337 0 .563.279.563.615v26.302c0 .28-.226.56-.563.56h-7.425c-.337 0-.619-.28-.619-.56V16.621l-4.05 11.64c-.112.336-.619.616-1.012.616h-4.388c-.337 0-.9-.28-1.012-.615l-4.05-11.64v11.695c0 .28-.281.56-.619.56H.562a.562.562 0 01-.562-.56V2.015c0-.336.225-.616.563-.616h8.38c.507 0 1.126.336 1.35.784l5.513 15.222L21.32 2.183c.225-.448.844-.784 1.35-.784h8.381zM54.169 26.639c.056.28 0 .447-.282.615-2.137 1.4-5.175 2.239-8.268 2.239-7.088 0-11.813-4.59-11.813-11.473 0-6.94 4.613-11.528 11.588-11.528 6.637 0 10.575 4.253 10.575 11.472a9.65 9.65 0 01-.17 1.791c-.055.336-.224.504-.618.504H42.412s0 2.518 3.375 2.518c2.025 0 4.332-.504 6.132-1.287.28-.112.506.056.618.336l1.632 4.813zm-6.132-10.633c0-1.735-1.068-2.91-2.7-2.91-1.8 0-2.98 1.175-2.98 2.91h5.68zM64.406 8.618C65.7 7.22 68.4 6.38 70.82 6.38c5.456 0 8.381 2.518 8.381 8.73v13.152a.623.623 0 01-.619.615H71.55c-.338 0-.619-.28-.563-.615v-11.92c0-1.568-.73-2.52-1.968-2.52-2.307 0-2.644 2.24-2.644 2.24v12.2a.623.623 0 01-.619.615h-7.031a.623.623 0 01-.619-.615V7.555c0-.336.225-.56.563-.56h4.5c.281 0 .506.112.619.392l.618 1.231zM94.95 6.94c.337 0 .619.223.619.56l-.45 3.86c-.057.336-.282.616-.62.616h-2.587v16.285a.623.623 0 01-.618.616h-7.032a.623.623 0 01-.618-.615V11.976h-2.307a.562.562 0 01-.562-.56v-3.86c0-.337.281-.617.562-.617h2.307V2.63c0-.28.28-.503.618-.56l7.032-.67c.337-.057.618.279.618.559v5.036h3.038V6.94zM97.65 9.458c-.113-.28-.056-.56.225-.784 2.306-1.455 5.456-2.294 8.663-2.294 6.918 0 10.125 3.637 10.125 11.528v10.297a.623.623 0 01-.619.616h-5.063a.622.622 0 01-.618-.616l-.282-1.063c-1.293 1.4-3.937 2.295-6.862 2.295-4.613 0-7.65-2.966-7.594-7.332.056-3.917 3.094-6.491 7.594-6.491 2.306 0 4.387.84 5.175 2.126v-1.678c0-1.735-1.238-2.799-3.094-2.799-1.575 0-3.487.504-4.781 1.287-.225.112-.45-.056-.619-.335l-2.25-4.757zm10.744 12.256c-.675-.672-1.35-1.008-2.194-1.008-1.012 0-1.687.56-1.687 1.456 0 .895.675 1.454 1.687 1.454.844 0 1.519-.335 2.194-1.007v-.895zM127.125 0c.338 0 .619.28.619.56V28.26a.623.623 0 01-.619.616h-7.031a.623.623 0 01-.619-.615V.56c0-.28.281-.56.619-.56h7.031z" fill="#E93E51"/><path d="M233.719 59.433c.056.224-.113.504-.45.504h-7.932c-.337 0-.675-.224-.731-.504l-.562-4.197h-7.538l-1.856 4.197a1.083 1.083 0 01-.9.504h-7.931c-.338 0-.45-.28-.282-.504l13.219-26.415c.169-.224.619-.503 1.069-.503h8.156c.394 0 .788.28.9.503l4.838 26.415zm-11.307-17.404l-3.375 7.554h4.332l-.957-7.554zM251.269 52.773c.281 0 .506.224.45.56l-1.519 6.044c-.113.28-.394.56-.731.56h-14.457c-.337 0-.562-.28-.506-.56l4.163-26.303c.056-.335.393-.615.675-.615h7.087c.338 0 .563.28.506.615l-3.15 19.7h7.482zM269.213 52.773c.281 0 .506.224.45.56l-1.519 6.044c-.113.28-.394.56-.731.56h-14.457c-.337 0-.562-.28-.506-.56l4.163-26.303c.056-.335.393-.615.675-.615h7.087c.338 0 .563.28.506.615l-3.15 19.7h7.482zM186.131 32.739c.113 0 .225.111.225.223v2.183c0 .112-.112.224-.225.224h-3.656v1.287h2.869c.112 0 .225.112.169.168l-.225 2.015c0 .111-.113.167-.225.167h-2.644v3.414c0 .112-.113.224-.225.224h-2.531c-.113 0-.225-.112-.225-.224v-9.458c0-.112.112-.224.225-.224h6.468zM191.925 42.812c-3.094 0-5.119-2.07-5.119-5.149 0-3.134 2.025-5.148 5.119-5.148s5.119 2.07 5.119 5.148-2.025 5.149-5.119 5.149zm0-7.443c-1.181 0-1.969.895-1.969 2.294 0 1.343.788 2.295 1.969 2.295s1.969-.896 1.969-2.295c0-1.343-.788-2.294-1.969-2.294zM206.156 42.364c.056.112-.056.224-.169.224h-3.093a.38.38 0 01-.338-.224l-1.519-3.134h-.168v3.134c0 .112-.113.224-.225.224h-2.532c-.112 0-.225-.112-.225-.224v-9.458c0-.111.113-.223.225-.223h3.825c2.194 0 3.713 1.287 3.713 3.245 0 1.12-.675 2.295-1.744 2.743l2.25 3.693zm-4.387-5.54c.506 0 .843-.28.843-.784 0-.503-.337-.783-.843-.783h-.844v1.51h.844v.057z" fill="#1A4586"/></symbol><symbol id="mhfa-icon-website" viewBox="0 0 50 36"><path d="M5.146 5.77a1.195 1.195 0 100-2.392 1.195 1.195 0 000 2.391zM9.095 5.77a1.195 1.195 0 100-2.392 1.195 1.195 0 000 2.391zM13.046 5.77a1.195 1.195 0 100-2.392 1.195 1.195 0 000 2.391z" fill="currentColor"/><path d="M45.374 0h-40.8C2.079 0 0 2.027 0 4.574v26.663c0 2.495 2.027 4.574 4.574 4.574h40.852c2.495 0 4.574-2.027 4.574-4.574V4.574C49.948 2.079 47.921 0 45.374 0zm2.91 31.237c0 1.611-1.299 2.91-2.91 2.91H4.522c-1.611 0-2.91-1.299-2.91-2.91V4.574c0-1.611 1.299-2.91 2.91-2.91h40.852c1.611 0 2.91 1.299 2.91 2.91v26.663z" fill="currentColor"/><path d="M48.7 8.316H1.404v-.52-.52h47.298v1.04zM38.811 23.129H23.766c-.483 0-.897-.312-.897-.676 0-.364.414-.676.897-.676H38.81c.483 0 .898.312.898.676 0 .364-.415.676-.898.676zM38.812 27.91H23.766c-.483 0-.897-.311-.897-.675 0-.364.414-.676.897-.676h15.046c.483 0 .897.312.897.676 0 .364-.414.676-.897.676z" fill="currentColor"/><path d="M38.811 27.859H23.766c-.483 0-.897-.312-.897-.676 0-.364.414-.676.897-.676H38.81c.483 0 .898.312.898.676 0 .364-.415.676-.898.676zM38.811 30.977H23.766c-.483 0-.897-.312-.897-.676 0-.363.414-.675.897-.675H38.81c.483 0 .898.312.898.675 0 .364-.415.676-.898.676zM38.811 19.958H23.766c-.483 0-.897-.312-.897-.675 0-.364.414-.676.897-.676H38.81c.483 0 .898.312.898.676 0 .363-.415.675-.898.675z" fill="currentColor"/><path stroke="currentColor" stroke-width="1.04" d="M9.875 10.915h29.106v4.158H9.875zM9.875 18.711h9.875v5.197H9.875z"/></symbol><symbol id="mhfa-icon-translate" viewBox="0 0 24 24"><path d="M3 16c1.5-.833 5-3.5 7-6.5S11.5 4 11.5 4m3 0h-6m-6 0h6m0 0V2.5M4.5 7c1 3 3 5.5 5.5 7.5m2 6.5l1.35-3M21 21l-1.35-3m-6.3 0l3.15-7.5c1.23 2.734 1.92 4.766 3.15 7.5m-6.3 0h6.3"/></symbol><symbol id="mhfa-icon-texting" viewBox="0 0 35 51"><path d="M18.815 26.767a1.143 1.143 0 100-2.287 1.143 1.143 0 000 2.287zM23.337 26.767a1.143 1.143 0 100-2.287 1.143 1.143 0 000 2.287zM27.754 26.767a1.143 1.143 0 100-2.287 1.143 1.143 0 000 2.287zM14.24 47.765a1.663 1.663 0 100-3.326 1.663 1.663 0 000 3.326zM11.174 3.586a.688.688 0 00-.675.676c0 .364.311.676.675.676h6.081a.688.688 0 00.676-.676.688.688 0 00-.676-.676h-6.08z" fill="currentColor"/><path d="M33.16 18.347h-4.678V4.262C28.482 1.923 26.56 0 24.22 0H4.262C1.923 0 0 1.923 0 4.262v42.1c0 2.339 1.923 4.262 4.262 4.262H24.22c2.34 0 4.262-1.923 4.262-4.262V33.264h4.678c.936 0 1.715-.832 1.715-1.82V20.167c0-.987-.78-1.819-1.715-1.819zM1.611 4.262a2.662 2.662 0 012.651-2.65H24.22a2.662 2.662 0 012.651 2.65v2.39H1.611v-2.39zm25.26 42.048a2.662 2.662 0 01-2.65 2.65H4.26a2.662 2.662 0 01-2.65-2.65v-2.963h25.26v2.963zm0-4.522H1.611V8.264h25.26v10.083H13.566c-.936 0-1.716.832-1.716 1.82v11.278c0 .987.78 1.819 1.716 1.819h1.974l.832 4.73 4.678-4.73h5.821v8.524zm6.549-10.343c0 .104-.104.208-.26.208H20.478l-3.17 3.222-.572-3.274h-3.17c-.156 0-.26-.104-.26-.208V20.166c0-.104.104-.208.26-.208H33.16c.156 0 .26.104.26.208v11.279z" fill="currentColor"/></symbol><symbol id="mhfa-icon-online-chat" viewBox="0 0 50 36"><path d="M5.146 5.77a1.195 1.195 0 100-2.392 1.195 1.195 0 000 2.391zM9.095 5.77a1.195 1.195 0 100-2.392 1.195 1.195 0 000 2.391zM13.046 5.77a1.195 1.195 0 100-2.392 1.195 1.195 0 000 2.391z" fill="currentColor"/><path d="M45.374 0h-40.8C2.079 0 0 2.027 0 4.574v26.663c0 2.495 2.027 4.574 4.574 4.574h40.852c2.495 0 4.574-2.027 4.574-4.574V4.574C49.948 2.079 47.921 0 45.374 0zm2.91 31.237c0 1.611-1.299 2.91-2.91 2.91H4.522c-1.611 0-2.91-1.299-2.91-2.91V4.574c0-1.611 1.299-2.91 2.91-2.91h40.852c1.611 0 2.91 1.299 2.91 2.91v26.663z" fill="currentColor"/><path d="M48.7 8.42H1.404V7.9v-.52h47.298v1.04zM25.285 16.684h-7.262a.465.465 0 01-.466-.468c0-.26.207-.468.466-.468h7.314c.26 0 .467.208.467.468s-.208.468-.519.468zM25.285 18.815h-7.262a.465.465 0 01-.466-.468c0-.26.207-.467.466-.467h7.314c.26 0 .467.207.467.467s-.208.468-.519.468zM25.285 20.946h-3.578a.465.465 0 01-.467-.468c0-.26.207-.468.467-.468h3.578c.26 0 .467.208.467.468.052.26-.155.468-.466.468z" fill="currentColor"/><path d="M36.593 15.177H30.68v-1.248c0-.78-.623-1.455-1.349-1.455H13.822c-.726 0-1.348.624-1.348 1.455v8.94c0 .78.622 1.455 1.348 1.455h1.556l.675 3.795 3.682-3.743v1.248c0 .78.623 1.455 1.349 1.455h9.596l3.682 3.794.675-3.794h1.556c.726 0 1.348-.624 1.348-1.455v-8.992c0-.832-.622-1.455-1.348-1.455zM16.779 25.572l-.467-2.599h-2.49c-.103 0-.207-.104-.207-.156V13.93c0-.052.104-.155.207-.155h15.51c.103 0 .207.103.207.155v8.94c0 .052-.104.156-.208.156h-10.01l-2.542 2.547zm20.021 0c0 .052-.103.156-.207.156h-2.49l-.467 2.598-2.541-2.598H21.084c-.104 0-.208-.104-.208-.156v-1.248h8.455c.726 0 1.349-.623 1.349-1.455v-6.393h5.913c.103 0 .207.104.207.156v8.94z" fill="currentColor"/></symbol><symbol id="mhfa-icon-low-cost" viewBox="0 0 49 51"><path d="M15.326 31.837a7.736 7.736 0 003.347 1.326v.939c0 .592.326.918 1.06.918h.123c.714 0 1.04-.388 1.04-1.122v-.735c2.613-.408 4.082-2.285 4.082-4.448 0-4.51-6.632-4.387-6.632-6.121 0-.817.816-1.143 1.551-1.143.857 0 1.673.306 2.245.632.673.368 1.183.286 1.53-.387l.49-.96c.306-.611.244-1.183-.347-1.53-.612-.387-1.592-.836-2.918-.98v-.938c0-.591-.327-.918-1.04-.918h-.123c-.735 0-1.061.388-1.061 1.122v.796c-2.265.429-3.898 2.061-3.898 4.346 0 4.387 6.632 4.53 6.632 6.163 0 .877-.796 1.163-1.53 1.163-.98 0-1.918-.429-2.571-.837-.633-.388-1.143-.347-1.572.265l-.612.898c-.408.572-.367 1.163.204 1.55zM32 21a1 1 0 10-2 0h2zm0 10.5V21h-2v10.5h2z" fill="currentColor"/><path d="M34 28.5L31 32l-3-3.5" stroke="currentColor" stroke-width="2" stroke-linecap="round"/><path d="M43.435 38.38l3.727-2.81c1.504-1.112 2.092-3.074 1.569-4.84l-1.373-4.51c-.13-.458-.13-.982 0-1.44l1.373-4.51c.523-1.766-.065-3.728-1.57-4.84l-3.726-2.81c-.393-.328-.654-.72-.85-1.178l-1.57-4.446c-.588-1.765-2.223-2.942-4.119-3.008l-4.642-.065c-.523 0-.98-.13-1.373-.458L27.023.785c-1.504-1.047-3.596-1.047-5.1 0l-3.857 2.68c-.393.262-.85.458-1.373.458l-4.708.065c-1.831.066-3.466 1.243-4.12 3.008l-1.569 4.446c-.13.458-.457.85-.85 1.177L1.72 15.431C.281 16.542-.373 18.504.216 20.269l1.373 4.512c.13.457.13.98 0 1.438L.216 30.731c-.524 1.765.065 3.727 1.569 4.838l3.727 2.812c.392.327.654.719.85 1.177l1.569 4.446c.588 1.765 2.223 2.942 4.12 3.008l4.707.065c.523 0 .98.13 1.373.458l3.858 2.68c.719.523 1.634.785 2.55.785.915 0 1.765-.261 2.55-.785l3.857-2.68c.393-.262.85-.458 1.373-.458l4.708-.066c1.83-.065 3.465-1.242 4.12-3.007l1.569-4.446c0-.458.326-.85.719-1.177zm-1.177-1.569a4.04 4.04 0 00-1.504 2.093l-1.57 4.446a2.396 2.396 0 01-2.288 1.635l-4.707.13c-.85 0-1.7.262-2.42.785l-3.857 2.68a2.46 2.46 0 01-2.812 0l-3.858-2.68a4.108 4.108 0 00-2.419-.785l-4.773-.13c-1.046 0-1.961-.72-2.288-1.635l-1.57-4.446A4.04 4.04 0 006.69 36.81L2.962 34c-.85-.654-1.177-1.7-.85-2.68l1.373-4.512c.261-.85.261-1.766 0-2.55l-1.373-4.512c-.327-.98.065-2.092.85-2.68l3.727-2.812a4.04 4.04 0 001.504-2.092l1.569-4.447a2.396 2.396 0 012.288-1.634l4.708-.066c.85 0 1.7-.261 2.42-.784l3.857-2.681c.392-.262.915-.458 1.438-.458.523 0 .981.131 1.439.458l3.857 2.68a4.11 4.11 0 002.42.785l4.707.066c1.047 0 1.962.719 2.289 1.634l1.569 4.447a4.04 4.04 0 001.504 2.092l3.727 2.811c.85.654 1.177 1.7.85 2.681l-1.308 4.446c-.261.85-.261 1.766 0 2.55l1.373 4.512c.327.98-.065 2.092-.85 2.68l-3.792 2.878z" fill="currentColor"/><path d="M20.224 8.304h.196c.588-.13 1.176-.262 1.83-.327.523-.065.916-.588.85-1.112-.065-.523-.588-.915-1.111-.85-.654.066-1.373.197-2.027.327a.975.975 0 00-.72 1.177c.131.523.524.785.982.785zM16.497 41.258c-.524-.262-1.112-.589-1.57-.916-.457-.261-1.046-.196-1.373.262-.327.458-.196 1.046.262 1.373.588.392 1.177.72 1.765 1.046.13.066.327.131.458.131.327 0 .719-.196.85-.523a1.033 1.033 0 00-.392-1.373zM14.273 10.854c.197 0 .393-.065.523-.13.524-.328 1.046-.655 1.57-.916.457-.262.654-.85.392-1.308-.262-.458-.85-.654-1.308-.392-.588.327-1.177.654-1.765 1.046-.458.327-.589.915-.262 1.373.197.196.523.327.85.327zM22.316 43.023a17.944 17.944 0 01-1.83-.327.975.975 0 10-.459 1.896c.654.131 1.373.262 2.027.327h.131c.458 0 .915-.392.98-.85a.942.942 0 00-.85-1.046zM7.604 30.665c-.131-.523-.72-.784-1.243-.653-.523.13-.784.719-.653 1.242.196.654.457 1.308.719 1.896.13.392.523.589.915.589.131 0 .262 0 .393-.066.523-.196.719-.785.523-1.308-.262-.523-.458-1.111-.654-1.7zM6.362 21.054c.065 0 .196.065.261.065a.962.962 0 00.916-.719c.196-.588.392-1.177.654-1.765.196-.523 0-1.046-.523-1.308-.524-.196-1.047 0-1.308.523-.262.654-.523 1.308-.72 1.962-.13.523.197 1.046.72 1.242zM26.566 7.977c.588.065 1.242.196 1.83.327h.197c.457 0 .85-.327.98-.785a.975.975 0 00-.719-1.177 21.782 21.782 0 00-2.027-.327c-.523-.065-1.046.327-1.111.85-.066.524.326 1.047.85 1.112zM10.416 36.158c-.327-.458-.981-.523-1.373-.196-.458.327-.524.915-.197 1.373.393.523.85 1.046 1.308 1.569.196.196.458.327.72.327a.84.84 0 00.653-.262c.393-.392.393-.98.066-1.373-.458-.457-.85-.98-1.177-1.438zM8.977 15.104c.196.13.392.196.589.196.327 0 .588-.13.784-.392.393-.458.785-.981 1.177-1.439.392-.392.327-1.046-.065-1.373-.393-.392-1.046-.327-1.373.066-.458.523-.916 1.046-1.308 1.569-.327.457-.262 1.046.196 1.373zM5.904 27.462c.523 0 .98-.523.915-1.046V25.5v-.85c0-.523-.392-.98-.915-1.046-.523 0-.98.392-1.046.915v2.027l.98-.065-.98.065c.065.523.458.916 1.046.916zM41.343 20.27c.13.392.523.718.915.718.065 0 .196 0 .262-.065.523-.13.784-.72.653-1.242a16.25 16.25 0 00-.719-1.896c-.196-.523-.784-.72-1.307-.523-.524.196-.72.784-.524 1.307.327.523.524 1.112.72 1.7zM28.462 42.696c-.589.131-1.177.262-1.83.327-.524.066-.916.523-.85 1.112.064.523.457.85.98.85h.13a21.774 21.774 0 002.027-.327.975.975 0 00.72-1.177c-.131-.589-.654-.915-1.177-.785zM44.088 24.388a.931.931 0 00-1.046-.915c-.523 0-.98.523-.915 1.046V26.415c0 .523.392.981.915 1.047h.066c.523 0 .98-.393.98-.916v-.98-1.177zM39.97 35.896c-.458-.327-1.047-.262-1.374.196-.392.523-.784.98-1.177 1.439-.392.392-.327 1.046.066 1.373a.937.937 0 00.654.261c.261 0 .523-.13.719-.327.458-.523.915-1.046 1.308-1.569.326-.392.196-1.046-.197-1.373zM42.585 30.012a1.036 1.036 0 00-1.242.653c-.196.589-.393 1.177-.654 1.766-.196.523 0 1.046.523 1.308.13.065.261.065.392.065.393 0 .72-.196.916-.589.261-.653.523-1.307.719-1.961.13-.523-.13-1.112-.654-1.242zM32.45 9.742c.523.262 1.112.589 1.635.916.196.13.327.13.523.13.327 0 .654-.13.85-.457.327-.458.13-1.046-.262-1.373a24.963 24.963 0 00-1.765-1.047c-.458-.261-1.046-.065-1.308.458-.392.523-.196 1.112.327 1.373zM38.53 14.842a.932.932 0 00.785.393c.197 0 .393-.066.589-.196.457-.327.523-.916.196-1.374-.392-.523-.85-1.046-1.308-1.569a1.011 1.011 0 00-1.373-.065c-.392.392-.392.98-.065 1.373.392.458.784.915 1.177 1.438zM34.085 40.277c-.523.327-1.046.654-1.57.915-.457.262-.653.85-.457 1.308.196.327.523.523.85.523.13 0 .327-.065.458-.13.588-.328 1.177-.655 1.765-1.047.458-.327.589-.915.262-1.373-.262-.327-.85-.458-1.308-.196z" fill="currentColor"/></symbol><symbol id="mhfa-icon-location" viewBox="0 0 43 43"><path d="M42.59 10.09a1.062 1.062 0 00-.914-.187l-8.111 2.114a1.057 1.057 0 00.533 2.047l6.787-1.77v24.602L25.75 40.844 11.935 36.7a1.058 1.058 0 00-.697.031l-9.123 3.65V15.87l6.384-2.553a1.057 1.057 0 00-.785-1.964l-7.05 2.82c-.4.16-.664.55-.664.982v26.786a1.058 1.058 0 001.45.982l10.231-4.092 13.745 4.123c.186.056.383.06.57.01l16.213-4.229c.466-.121.791-.542.791-1.023V10.926c0-.327-.152-.636-.41-.837z" fill="currentColor"/><path d="M19.047 27.481c.93 1.437 1.56 2.34 1.585 2.378.198.283.522.452.868.452h.002c.347 0 .671-.171.868-.456 0 0 .634-.92 1.575-2.373 1.952-3.014 5.455-8.719 6.99-13.075.529-1.504.786-2.716.786-3.706C31.721 4.8 27.136 0 21.5 0S11.278 4.8 11.278 10.7c0 .173.009.353.025.53.326 4.005 4.39 11.047 7.744 16.251zM21.5 2.115c4.47 0 8.106 3.851 8.106 8.586 0 .736-.224 1.747-.666 3.004-1.462 4.15-4.87 9.692-6.77 12.627-.248.384-.475.73-.673 1.03-.2-.3-.426-.646-.673-1.028-4.488-6.964-7.19-12.532-7.414-15.287a3.717 3.717 0 01-.017-.346c0-4.735 3.636-8.586 8.107-8.586z" fill="currentColor"/><path d="M21.5 14.803a4.587 4.587 0 004.582-4.582A4.587 4.587 0 0021.5 5.639a4.587 4.587 0 00-4.581 4.582 4.587 4.587 0 004.581 4.582zm0-7.05a2.47 2.47 0 012.468 2.468 2.47 2.47 0 01-2.468 2.467 2.47 2.47 0 01-2.467-2.467A2.47 2.47 0 0121.5 7.754z" fill="currentColor"/></symbol><symbol id="mhfa-icon-health-insurance" viewBox="0 0 49 51"><path d="M43.435 38.38l3.727-2.81c1.504-1.112 2.092-3.074 1.569-4.84l-1.373-4.51c-.13-.458-.13-.982 0-1.44l1.373-4.51c.523-1.766-.065-3.728-1.57-4.84l-3.726-2.81c-.393-.328-.654-.72-.85-1.178l-1.57-4.446c-.588-1.765-2.223-2.942-4.119-3.008l-4.642-.065c-.523 0-.98-.13-1.373-.458L27.023.785c-1.504-1.047-3.596-1.047-5.1 0l-3.857 2.68c-.393.262-.85.458-1.373.458l-4.708.065c-1.831.066-3.466 1.243-4.12 3.008l-1.569 4.446c-.13.458-.457.85-.85 1.177L1.72 15.431C.281 16.542-.373 18.504.216 20.269l1.373 4.512c.13.457.13.98 0 1.438L.216 30.731c-.524 1.765.065 3.727 1.569 4.838l3.727 2.812c.392.327.654.719.85 1.177l1.569 4.446c.588 1.765 2.223 2.942 4.12 3.008l4.707.065c.523 0 .98.13 1.373.458l3.858 2.68c.719.523 1.634.785 2.55.785.915 0 1.765-.261 2.55-.785l3.857-2.68c.393-.262.85-.458 1.373-.458l4.708-.066c1.83-.065 3.465-1.242 4.12-3.007l1.569-4.446c0-.458.326-.85.719-1.177zm-1.177-1.569a4.04 4.04 0 00-1.504 2.093l-1.57 4.446a2.396 2.396 0 01-2.288 1.635l-4.707.13c-.85 0-1.7.262-2.42.785l-3.857 2.68a2.46 2.46 0 01-2.812 0l-3.858-2.68a4.108 4.108 0 00-2.419-.785l-4.773-.13c-1.046 0-1.961-.72-2.288-1.635l-1.57-4.446A4.04 4.04 0 006.69 36.81L2.962 34c-.85-.654-1.177-1.7-.85-2.68l1.373-4.512c.261-.85.261-1.766 0-2.55l-1.373-4.512c-.327-.98.065-2.092.85-2.68l3.727-2.812a4.04 4.04 0 001.504-2.092l1.569-4.447a2.396 2.396 0 012.288-1.634l4.708-.066c.85 0 1.7-.261 2.42-.784l3.857-2.681c.392-.262.915-.458 1.438-.458.523 0 .981.131 1.439.458l3.857 2.68a4.11 4.11 0 002.42.785l4.707.066c1.047 0 1.962.719 2.289 1.634l1.569 4.447a4.04 4.04 0 001.504 2.092l3.727 2.811c.85.654 1.177 1.7.85 2.681l-1.308 4.446c-.261.85-.261 1.766 0 2.55l1.373 4.512c.327.98-.065 2.092-.85 2.68l-3.792 2.878z" fill="currentColor"/><path d="M20.224 8.304h.196c.588-.13 1.176-.262 1.83-.327.523-.065.916-.588.85-1.112-.065-.523-.588-.915-1.111-.85-.654.066-1.373.197-2.027.327a.975.975 0 00-.72 1.177c.131.523.524.785.982.785zM16.497 41.258c-.524-.262-1.112-.589-1.57-.916-.457-.261-1.046-.196-1.373.262-.327.458-.196 1.046.262 1.373.588.392 1.177.72 1.765 1.046.13.066.327.131.458.131.327 0 .719-.196.85-.523a1.033 1.033 0 00-.392-1.373zM14.273 10.854c.197 0 .393-.065.523-.13.524-.328 1.046-.655 1.57-.916.457-.262.654-.85.392-1.308-.262-.458-.85-.654-1.308-.392-.588.327-1.177.654-1.765 1.046-.458.327-.589.915-.262 1.373.197.196.523.327.85.327zM22.316 43.023a17.944 17.944 0 01-1.83-.327.975.975 0 10-.459 1.896c.654.131 1.373.262 2.027.327h.131c.458 0 .915-.392.98-.85a.942.942 0 00-.85-1.046zM7.604 30.665c-.131-.523-.72-.784-1.243-.653-.523.13-.784.719-.653 1.242.196.654.457 1.308.719 1.896.13.392.523.589.915.589.131 0 .262 0 .393-.066.523-.196.719-.785.523-1.308-.262-.523-.458-1.111-.654-1.7zM6.362 21.054c.065 0 .196.065.261.065a.962.962 0 00.916-.719c.196-.588.392-1.177.654-1.765.196-.523 0-1.046-.523-1.308-.524-.196-1.047 0-1.308.523-.262.654-.523 1.308-.72 1.962-.13.523.197 1.046.72 1.242zM26.566 7.977c.588.065 1.242.196 1.83.327h.197c.457 0 .85-.327.98-.785a.975.975 0 00-.719-1.177 21.782 21.782 0 00-2.027-.327c-.523-.065-1.046.327-1.111.85-.066.524.326 1.047.85 1.112zM10.416 36.158c-.327-.458-.981-.523-1.373-.196-.458.327-.524.915-.197 1.373.393.523.85 1.046 1.308 1.569.196.196.458.327.72.327a.84.84 0 00.653-.262c.393-.392.393-.98.066-1.373-.458-.457-.85-.98-1.177-1.438zM8.977 15.104c.196.13.392.196.589.196.327 0 .588-.13.784-.392.393-.458.785-.981 1.177-1.439.392-.392.327-1.046-.065-1.373-.393-.392-1.046-.327-1.373.066-.458.523-.916 1.046-1.308 1.569-.327.457-.262 1.046.196 1.373zM5.904 27.462c.523 0 .98-.523.915-1.046V25.5v-.85c0-.523-.392-.98-.915-1.046-.523 0-.98.392-1.046.915v2.027l.98-.065-.98.065c.065.523.458.916 1.046.916zM41.343 20.27c.13.392.523.718.915.718.065 0 .196 0 .262-.065.523-.13.784-.72.653-1.242a16.25 16.25 0 00-.719-1.896c-.196-.523-.784-.72-1.307-.523-.524.196-.72.784-.524 1.307.327.523.524 1.112.72 1.7zM28.462 42.696c-.589.131-1.177.262-1.83.327-.524.066-.916.523-.85 1.112.064.523.457.85.98.85h.13a21.774 21.774 0 002.027-.327.975.975 0 00.72-1.177c-.131-.589-.654-.915-1.177-.785zM44.088 24.388a.931.931 0 00-1.046-.915c-.523 0-.98.523-.915 1.046V26.415c0 .523.392.981.915 1.047h.066c.523 0 .98-.393.98-.916v-.98-1.177zM39.97 35.896c-.458-.327-1.047-.262-1.374.196-.392.523-.784.98-1.177 1.439-.392.392-.327 1.046.066 1.373a.937.937 0 00.654.261c.261 0 .523-.13.719-.327.458-.523.915-1.046 1.308-1.569.326-.392.196-1.046-.197-1.373zM42.585 30.012a1.036 1.036 0 00-1.242.653c-.196.589-.393 1.177-.654 1.766-.196.523 0 1.046.523 1.308.13.065.261.065.392.065.393 0 .72-.196.916-.589.261-.653.523-1.307.719-1.961.13-.523-.13-1.112-.654-1.242zM32.45 9.742c.523.262 1.112.589 1.635.916.196.13.327.13.523.13.327 0 .654-.13.85-.457.327-.458.13-1.046-.262-1.373a24.963 24.963 0 00-1.765-1.047c-.458-.261-1.046-.065-1.308.458-.392.523-.196 1.112.327 1.373zM38.53 14.842a.932.932 0 00.785.393c.197 0 .393-.066.589-.196.457-.327.523-.916.196-1.374-.392-.523-.85-1.046-1.308-1.569a1.011 1.011 0 00-1.373-.065c-.392.392-.392.98-.065 1.373.392.458.784.915 1.177 1.438zM34.085 40.277c-.523.327-1.046.654-1.57.915-.457.262-.653.85-.457 1.308.196.327.523.523.85.523.13 0 .327-.065.458-.13.588-.328 1.177-.655 1.765-1.047.458-.327.589-.915.262-1.373-.262-.327-.85-.458-1.308-.196zM15 22.95v4.865c0 .494.424.915.921.915h6.066l-.92-.915V33.85c0 .494.424.916.92.916h4.89c.496 0 .92-.422.92-.916v-5.279-.756l-.92.915h6.066c.497 0 .92-.421.92-.915V22.95a.933.933 0 00-.92-.916h-6.066l.92.916v-5.279-.757a.933.933 0 00-.92-.915h-4.89a.933.933 0 00-.92.915V22.951l.92-.916H15.923c-.486 0-.946.422-.921.916.024.494.405.915.92.915h6.066c.498 0 .92-.42.92-.915v-5.279-.757l-.92.916h4.89l-.92-.916V22.951c0 .494.423.915.92.915h6.066l-.92-.915v4.864l.92-.916h-6.066a.933.933 0 00-.92.916V33.85l.92-.915h-4.89l.92.915v-5.279-.756a.933.933 0 00-.92-.916H15.923l.92.916V22.95c0-.476-.424-.94-.92-.916-.498.025-.921.403-.921.916z" fill="currentColor"/></symbol><symbol id="mhfa-icon-free" viewBox="0 0 49 51"><path d="M43.435 38.38l3.727-2.81c1.504-1.112 2.092-3.074 1.569-4.84l-1.373-4.51c-.13-.458-.13-.982 0-1.44l1.373-4.51c.523-1.766-.065-3.728-1.57-4.84l-3.726-2.81c-.393-.328-.654-.72-.85-1.178l-1.57-4.446c-.588-1.765-2.223-2.942-4.119-3.008l-4.642-.065c-.523 0-.98-.13-1.373-.458L27.023.785c-1.504-1.047-3.596-1.047-5.1 0l-3.857 2.68c-.393.262-.85.458-1.373.458l-4.708.065c-1.831.066-3.466 1.243-4.12 3.008l-1.569 4.446c-.13.458-.457.85-.85 1.177L1.72 15.431C.281 16.542-.373 18.504.216 20.269l1.373 4.512c.13.457.13.98 0 1.438L.216 30.731c-.524 1.765.065 3.727 1.569 4.838l3.727 2.812c.392.327.654.719.85 1.177l1.569 4.446c.588 1.765 2.223 2.942 4.12 3.008l4.707.065c.523 0 .98.13 1.373.458l3.858 2.68c.719.523 1.634.785 2.55.785.915 0 1.765-.261 2.55-.785l3.857-2.68c.393-.262.85-.458 1.373-.458l4.708-.066c1.83-.065 3.465-1.242 4.12-3.007l1.569-4.446c0-.458.326-.85.719-1.177zm-1.177-1.569a4.04 4.04 0 00-1.504 2.093l-1.57 4.446a2.396 2.396 0 01-2.288 1.635l-4.707.13c-.85 0-1.7.262-2.42.785l-3.857 2.68a2.46 2.46 0 01-2.812 0l-3.858-2.68a4.108 4.108 0 00-2.419-.785l-4.773-.13c-1.046 0-1.961-.72-2.288-1.635l-1.57-4.446A4.04 4.04 0 006.69 36.81L2.962 34c-.85-.654-1.177-1.7-.85-2.68l1.373-4.512c.261-.85.261-1.766 0-2.55l-1.373-4.512c-.327-.98.065-2.092.85-2.68l3.727-2.812a4.04 4.04 0 001.504-2.092l1.569-4.447a2.396 2.396 0 012.288-1.634l4.708-.066c.85 0 1.7-.261 2.42-.784l3.857-2.681c.392-.262.915-.458 1.438-.458.523 0 .981.131 1.439.458l3.857 2.68a4.11 4.11 0 002.42.785l4.707.066c1.047 0 1.962.719 2.289 1.634l1.569 4.447a4.04 4.04 0 001.504 2.092l3.727 2.811c.85.654 1.177 1.7.85 2.681l-1.308 4.446c-.261.85-.261 1.766 0 2.55l1.373 4.512c.327.98-.065 2.092-.85 2.68l-3.792 2.878z" fill="currentColor"/><path d="M20.224 8.304h.196c.588-.13 1.176-.262 1.83-.327.523-.065.916-.588.85-1.112-.065-.523-.588-.915-1.111-.85-.654.066-1.373.197-2.027.327a.975.975 0 00-.72 1.177c.131.523.524.785.982.785zM16.497 41.258c-.524-.262-1.112-.589-1.57-.916-.457-.261-1.046-.196-1.373.262-.327.458-.196 1.046.262 1.373.588.392 1.177.72 1.765 1.046.13.066.327.131.458.131.327 0 .719-.196.85-.523a1.033 1.033 0 00-.392-1.373zM14.273 10.854c.197 0 .393-.065.523-.13.524-.328 1.046-.655 1.57-.916.457-.262.654-.85.392-1.308-.262-.458-.85-.654-1.308-.392-.588.327-1.177.654-1.765 1.046-.458.327-.589.915-.262 1.373.197.196.523.327.85.327zM22.316 43.023a17.944 17.944 0 01-1.83-.327.975.975 0 10-.459 1.896c.654.131 1.373.262 2.027.327h.131c.458 0 .915-.392.98-.85a.942.942 0 00-.85-1.046zM7.604 30.665c-.131-.523-.72-.784-1.243-.653-.523.13-.784.719-.653 1.242.196.654.457 1.308.719 1.896.13.392.523.589.915.589.131 0 .262 0 .393-.066.523-.196.719-.785.523-1.308-.262-.523-.458-1.111-.654-1.7zM6.362 21.054c.065 0 .196.065.261.065a.962.962 0 00.916-.719c.196-.588.392-1.177.654-1.765.196-.523 0-1.046-.523-1.308-.524-.196-1.047 0-1.308.523-.262.654-.523 1.308-.72 1.962-.13.523.197 1.046.72 1.242zM26.566 7.977c.588.065 1.242.196 1.83.327h.197c.457 0 .85-.327.98-.785a.975.975 0 00-.719-1.177 21.782 21.782 0 00-2.027-.327c-.523-.065-1.046.327-1.111.85-.066.524.326 1.047.85 1.112zM10.416 36.158c-.327-.458-.981-.523-1.373-.196-.458.327-.524.915-.197 1.373.393.523.85 1.046 1.308 1.569.196.196.458.327.72.327a.84.84 0 00.653-.262c.393-.392.393-.98.066-1.373-.458-.457-.85-.98-1.177-1.438zM8.977 15.104c.196.13.392.196.589.196.327 0 .588-.13.784-.392.393-.458.785-.981 1.177-1.439.392-.392.327-1.046-.065-1.373-.393-.392-1.046-.327-1.373.066-.458.523-.916 1.046-1.308 1.569-.327.457-.262 1.046.196 1.373zM5.904 27.462c.523 0 .98-.523.915-1.046V25.5v-.85c0-.523-.392-.98-.915-1.046-.523 0-.98.392-1.046.915v2.027l.98-.065-.98.065c.065.523.458.916 1.046.916zM41.343 20.27c.13.392.523.718.915.718.065 0 .196 0 .262-.065.523-.13.784-.72.653-1.242a16.25 16.25 0 00-.719-1.896c-.196-.523-.784-.72-1.307-.523-.524.196-.72.784-.524 1.307.327.523.524 1.112.72 1.7zM28.462 42.696c-.589.131-1.177.262-1.83.327-.524.066-.916.523-.85 1.112.064.523.457.85.98.85h.13a21.774 21.774 0 002.027-.327.975.975 0 00.72-1.177c-.131-.589-.654-.915-1.177-.785zM44.088 24.388a.931.931 0 00-1.046-.915c-.523 0-.98.523-.915 1.046V26.415c0 .523.392.981.915 1.047h.066c.523 0 .98-.393.98-.916v-.98-1.177zM39.97 35.896c-.458-.327-1.047-.262-1.374.196-.392.523-.784.98-1.177 1.439-.392.392-.327 1.046.066 1.373a.937.937 0 00.654.261c.261 0 .523-.13.719-.327.458-.523.915-1.046 1.308-1.569.326-.392.196-1.046-.197-1.373zM42.585 30.012a1.036 1.036 0 00-1.242.653c-.196.589-.393 1.177-.654 1.766-.196.523 0 1.046.523 1.308.13.065.261.065.392.065.393 0 .72-.196.916-.589.261-.653.523-1.307.719-1.961.13-.523-.13-1.112-.654-1.242zM32.45 9.742c.523.262 1.112.589 1.635.916.196.13.327.13.523.13.327 0 .654-.13.85-.457.327-.458.13-1.046-.262-1.373a24.963 24.963 0 00-1.765-1.047c-.458-.261-1.046-.065-1.308.458-.392.523-.196 1.112.327 1.373zM38.53 14.842a.932.932 0 00.785.393c.197 0 .393-.066.589-.196.457-.327.523-.916.196-1.374-.392-.523-.85-1.046-1.308-1.569a1.011 1.011 0 00-1.373-.065c-.392.392-.392.98-.065 1.373.392.458.784.915 1.177 1.438zM34.085 40.277c-.523.327-1.046.654-1.57.915-.457.262-.653.85-.457 1.308.196.327.523.523.85.523.13 0 .327-.065.458-.13.588-.328 1.177-.655 1.765-1.047.458-.327.589-.915.262-1.373-.262-.327-.85-.458-1.308-.196zM11.876 28.395c0 .396.21.605.605.605h.715c.396 0 .605-.209.605-.605v-2.31h1.793c.396 0 .605-.209.605-.605v-.44c0-.396-.209-.605-.605-.605h-1.793v-1.65h2.288c.396 0 .605-.209.605-.605v-.44c0-.396-.209-.605-.605-.605h-3.608c-.396 0-.605.209-.605.605v6.655zm6.319 0c0 .396.209.605.605.605h.715c.396 0 .605-.209.605-.605v-2.046h.902l1.166 2.222c.165.297.385.429.715.429h.836c.473 0 .66-.308.418-.726l-1.122-2.024c-.187-.33-.297-.473-.297-.473v-.022c.78-.396 1.177-1.309 1.177-2.145 0-1.144-.561-1.947-1.452-2.288-.341-.132-.726-.187-1.53-.187H18.8c-.396 0-.605.209-.605.605v6.655zm1.925-3.696v-1.914h.649c.319 0 .55.033.726.11.363.143.462.44.462.836 0 .627-.385.968-1.001.968h-.836zm5.661 3.696c0 .396.21.605.605.605h3.872c.396 0 .605-.209.605-.605v-.44c0-.396-.209-.605-.605-.605h-2.552v-1.485H29.5c.396 0 .605-.209.605-.605v-.44c0-.396-.209-.605-.605-.605h-1.793v-1.43h2.398c.396 0 .605-.209.605-.605v-.44c0-.396-.209-.605-.605-.605h-3.718c-.396 0-.605.209-.605.605v6.655zm6.705 0c0 .396.21.605.605.605h3.872c.396 0 .605-.209.605-.605v-.44c0-.396-.209-.605-.605-.605h-2.552v-1.485h1.793c.396 0 .605-.209.605-.605v-.44c0-.396-.209-.605-.605-.605h-1.793v-1.43h2.398c.396 0 .605-.209.605-.605v-.44c0-.396-.209-.605-.605-.605h-3.718c-.396 0-.605.209-.605.605v6.655z" fill="currentColor"/></symbol><symbol id="mhfa-icon-calling" viewBox="0 0 29 51"><path d="M24.324 0H4.262C1.923 0 0 1.923 0 4.262v42.36c0 2.339 1.923 4.262 4.262 4.262h20.062c2.34 0 4.262-1.923 4.262-4.262V4.314C28.638 1.924 26.716 0 24.324 0zM4.262 1.663h20.062a2.662 2.662 0 012.651 2.65v2.392H1.611V4.314a2.662 2.662 0 012.651-2.65zm22.765 6.653v33.732H1.611V8.316h25.416zm-2.703 41.008H4.262a2.662 2.662 0 01-2.65-2.65V43.71h25.415v2.963c0 1.455-1.195 2.65-2.703 2.65z" fill="currentColor"/><path d="M14.293 48.129a1.715 1.715 0 100-3.43 1.715 1.715 0 000 3.43z" fill="currentColor"/><path d="M14.189 48.129a1.715 1.715 0 100-3.43 1.715 1.715 0 000 3.43zM11.123 3.69a.688.688 0 00-.676.676c0 .364.312.676.676.676h6.133a.688.688 0 00.675-.676c0-.364-.26-.676-.623-.676h-6.185zM14.19 33.19c-2.195 1.051-4.773-2.195-4.773-2.195l3.055-2.96s1.623 1.814 2.292 1.527c0 0 2.196-1.336 3.915-4.964.286-.669-2.006-1.91-2.006-1.91l2.196-3.628s3.438 1.718 3.151 3.724c-.095 2.005-1.718 7.447-7.83 10.407zM13.905 17.341c-2.196.095-4.201 1.05-5.73 2.769a8.368 8.368 0 00-2.1 5.92c0 .382.382.668.764.668a.73.73 0 00.478-.19.73.73 0 00.19-.478c-.095-1.814.478-3.533 1.72-4.965 1.24-1.337 2.864-2.196 4.678-2.292a.73.73 0 00.477-.19.73.73 0 00.191-.478c.095-.477-.286-.764-.668-.764zM10.945 22.497c-.764.86-1.146 1.91-1.05 3.055a.73.73 0 00.19.478.729.729 0 00.478.19.73.73 0 00.477-.19.73.73 0 00.191-.478c0-.764.191-1.527.764-2.005.477-.573 1.241-.859 2.005-.954a.73.73 0 00.477-.192.73.73 0 00.191-.477.73.73 0 00-.19-.477.73.73 0 00-.478-.191c-1.241-.096-2.292.477-3.055 1.241z" fill="currentColor"/></symbol><symbol id="mhfa-graphic-light-c"><g clip-path="url(#clip-graphic-light-c)"><path d="M66.861-.465h443.501l404.5 256.498-915 79.502 67-336z" fill="url(#paint-graphic-light-c)"/></g></symbol><symbol id="mhfa-feather-menu" viewBox="0 0 24 24"><path d="M3 12h18M3 6h18M3 18h18"/></symbol><symbol id="mhfa-feather-chevron-right" viewBox="0 0 24 24"><path d="M9 18l6-6-6-6"/></symbol></svg>