<svg viewBox="0 0 29 51" fill="none" xmlns="http://www.w3.org/2000/svg"><path d="M24.324 0H4.262C1.923 0 0 1.923 0 4.262v42.36c0 2.339 1.923 4.262 4.262 4.262h20.062c2.34 0 4.262-1.923 4.262-4.262V4.314C28.638 1.924 26.716 0 24.324 0zM4.262 1.663h20.062a2.662 2.662 0 012.651 2.65v2.392H1.611V4.314a2.662 2.662 0 012.651-2.65zm22.765 6.653v33.732H1.611V8.316h25.416zm-2.703 41.008H4.262a2.662 2.662 0 01-2.65-2.65V43.71h25.415v2.963c0 1.455-1.195 2.65-2.703 2.65z" fill="currentColor"/><path d="M14.293 48.129a1.715 1.715 0 100-3.43 1.715 1.715 0 000 3.43z" fill="currentColor"/><path d="M14.189 48.129a1.715 1.715 0 100-3.43 1.715 1.715 0 000 3.43zM11.123 3.69a.688.688 0 00-.676.676c0 .364.312.676.676.676h6.133a.688.688 0 00.675-.676c0-.364-.26-.676-.623-.676h-6.185zM14.19 33.19c-2.195 1.051-4.773-2.195-4.773-2.195l3.055-2.96s1.623 1.814 2.292 1.527c0 0 2.196-1.336 3.915-4.964.286-.669-2.006-1.91-2.006-1.91l2.196-3.628s3.438 1.718 3.151 3.724c-.095 2.005-1.718 7.447-7.83 10.407zM13.905 17.341c-2.196.095-4.201 1.05-5.73 2.769a8.368 8.368 0 00-2.1 5.92c0 .382.382.668.764.668a.73.73 0 00.478-.19.73.73 0 00.19-.478c-.095-1.814.478-3.533 1.72-4.965 1.24-1.337 2.864-2.196 4.678-2.292a.73.73 0 00.477-.19.73.73 0 00.191-.478c.095-.477-.286-.764-.668-.764zM10.945 22.497c-.764.86-1.146 1.91-1.05 3.055a.73.73 0 00.19.478.729.729 0 00.478.19.73.73 0 00.477-.19.73.73 0 00.191-.478c0-.764.191-1.527.764-2.005.477-.573 1.241-.859 2.005-.954a.73.73 0 00.477-.192.73.73 0 00.191-.477.73.73 0 00-.19-.477.73.73 0 00-.478-.191c-1.241-.096-2.292.477-3.055 1.241z" fill="currentColor"/></svg>