<?xml version="1.0" encoding="UTF-8"?><!DOCTYPE svg PUBLIC "-//W3C//DTD SVG 1.1//EN" "http://www.w3.org/Graphics/SVG/1.1/DTD/svg11.dtd"><svg xmlns="http://www.w3.org/2000/svg" xmlns:xlink="http://www.w3.org/1999/xlink"><defs><linearGradient id="paint-graphic-light-c" x1="160.5" y1="16.5" x2="199.5" y2="296.5" gradientUnits="userSpaceOnUse"><stop stop-color="#FEE6AE"/><stop offset="1" stop-color="#FEE6AE" stop-opacity="0"/></linearGradient><clipPath id="clip-graphic-light-c"><path d="M0 0h915v336H0z"/></clipPath></defs><symbol id="mhfa-logo" viewBox="0 0 270 61"><path d="M75.15 32.739c.337 0 .619.28.619.615v26.303c0 .28-.225.56-.619.56h-7.481a.562.562 0 01-.563-.56v-8.898h-5.625v8.898c0 .28-.225.56-.619.56h-7.425c-.28 0-.562-.28-.562-.56V33.354c0-.336.281-.615.563-.615h7.48c.338 0 .62.28.62.615v10.41h5.624v-10.41c0-.336.225-.615.563-.615h7.425zM98.381 57.978c.056.28 0 .448-.281.616-2.137 1.399-5.175 2.238-8.269 2.238-7.087 0-11.812-4.589-11.812-11.472 0-6.94 4.612-11.529 11.587-11.529 6.638 0 10.575 4.253 10.575 11.473 0 .615-.056 1.175-.168 1.79-.057.336-.226.504-.62.504H86.57s0 2.519 3.375 2.519c2.025 0 4.331-.504 6.131-1.288.281-.112.506.056.619.336l1.687 4.813zm-6.187-10.633c0-1.735-1.069-2.91-2.7-2.91-1.8 0-2.981 1.175-2.981 2.91h5.68zM103.781 40.797c-.112-.28-.056-.56.225-.783 2.307-1.455 5.457-2.295 8.663-2.295 6.919 0 10.125 3.638 10.125 11.529v10.297a.623.623 0 01-.619.615h-5.062a.623.623 0 01-.619-.615l-.281-1.063c-1.294 1.399-3.938 2.294-6.863 2.294-4.612 0-7.65-2.966-7.594-7.331.057-3.917 3.094-6.492 7.594-6.492 2.306 0 4.388.84 5.175 2.127V47.4c0-1.734-1.237-2.797-3.094-2.797-1.575 0-3.487.503-4.781 1.287-.225.112-.45-.056-.619-.336l-2.25-4.757zm10.8 12.256c-.675-.671-1.35-1.007-2.193-1.007-1.013 0-1.688.56-1.688 1.455s.675 1.455 1.688 1.455c.843 0 1.518-.336 2.193-1.007v-.896zM133.313 31.34c.337 0 .618.28.618.56v27.7a.622.622 0 01-.618.617h-7.032a.622.622 0 01-.618-.616V31.899c0-.28.281-.56.618-.56h7.032zM149.85 38.335c.338 0 .619.224.619.56l-.45 3.861c-.056.336-.281.616-.619.616h-2.587v16.285a.623.623 0 01-.619.616h-7.031a.623.623 0 01-.619-.616V43.316h-2.306a.562.562 0 01-.563-.56v-3.861c0-.336.281-.616.563-.616h2.306v-4.365c0-.28.281-.504.619-.56l7.031-.671c.337-.056.619.28.619.56v5.036h3.037v.056zM159.919 31.34c.337 0 .619.28.619.615v8.059c1.068-1.4 2.981-2.239 5.175-2.239 4.781 0 7.65 2.687 7.65 7.331v14.55a.623.623 0 01-.619.617h-7.031c-.338 0-.619-.28-.563-.616V47.12c0-1.567-.731-2.518-1.969-2.518-2.306 0-2.643 2.238-2.643 2.238v12.76a.623.623 0 01-.619.616h-7.031a.623.623 0 01-.619-.616V31.955c0-.336.281-.616.619-.616h7.031zM31.05 1.4c.337 0 .563.279.563.615v26.302c0 .28-.226.56-.563.56h-7.425c-.337 0-.619-.28-.619-.56V16.621l-4.05 11.64c-.112.336-.619.616-1.012.616h-4.388c-.337 0-.9-.28-1.012-.615l-4.05-11.64v11.695c0 .28-.281.56-.619.56H.562a.562.562 0 01-.562-.56V2.015c0-.336.225-.616.563-.616h8.38c.507 0 1.126.336 1.35.784l5.513 15.222L21.32 2.183c.225-.448.844-.784 1.35-.784h8.381zM54.169 26.639c.056.28 0 .447-.282.615-2.137 1.4-5.175 2.239-8.268 2.239-7.088 0-11.813-4.59-11.813-11.473 0-6.94 4.613-11.528 11.588-11.528 6.637 0 10.575 4.253 10.575 11.472a9.65 9.65 0 01-.17 1.791c-.055.336-.224.504-.618.504H42.412s0 2.518 3.375 2.518c2.025 0 4.332-.504 6.132-1.287.28-.112.506.056.618.336l1.632 4.813zm-6.132-10.633c0-1.735-1.068-2.91-2.7-2.91-1.8 0-2.98 1.175-2.98 2.91h5.68zM64.406 8.618C65.7 7.22 68.4 6.38 70.82 6.38c5.456 0 8.381 2.518 8.381 8.73v13.152a.623.623 0 01-.619.615H71.55c-.338 0-.619-.28-.563-.615v-11.92c0-1.568-.73-2.52-1.968-2.52-2.307 0-2.644 2.24-2.644 2.24v12.2a.623.623 0 01-.619.615h-7.031a.623.623 0 01-.619-.615V7.555c0-.336.225-.56.563-.56h4.5c.281 0 .506.112.619.392l.618 1.231zM94.95 6.94c.337 0 .619.223.619.56l-.45 3.86c-.057.336-.282.616-.62.616h-2.587v16.285a.623.623 0 01-.618.616h-7.032a.623.623 0 01-.618-.615V11.976h-2.307a.562.562 0 01-.562-.56v-3.86c0-.337.281-.617.562-.617h2.307V2.63c0-.28.28-.503.618-.56l7.032-.67c.337-.057.618.279.618.559v5.036h3.038V6.94zM97.65 9.458c-.113-.28-.056-.56.225-.784 2.306-1.455 5.456-2.294 8.663-2.294 6.918 0 10.125 3.637 10.125 11.528v10.297a.623.623 0 01-.619.616h-5.063a.622.622 0 01-.618-.616l-.282-1.063c-1.293 1.4-3.937 2.295-6.862 2.295-4.613 0-7.65-2.966-7.594-7.332.056-3.917 3.094-6.491 7.594-6.491 2.306 0 4.387.84 5.175 2.126v-1.678c0-1.735-1.238-2.799-3.094-2.799-1.575 0-3.487.504-4.781 1.287-.225.112-.45-.056-.619-.335l-2.25-4.757zm10.744 12.256c-.675-.672-1.35-1.008-2.194-1.008-1.012 0-1.687.56-1.687 1.456 0 .895.675 1.454 1.687 1.454.844 0 1.519-.335 2.194-1.007v-.895zM127.125 0c.338 0 .619.28.619.56V28.26a.623.623 0 01-.619.616h-7.031a.623.623 0 01-.619-.615V.56c0-.28.281-.56.619-.56h7.031zM233.719 59.433c.056.224-.113.504-.45.504h-7.932c-.337 0-.675-.224-.731-.504l-.562-4.197h-7.538l-1.856 4.197a1.083 1.083 0 01-.9.504h-7.931c-.338 0-.45-.28-.282-.504l13.219-26.415c.169-.224.619-.503 1.069-.503h8.156c.394 0 .788.28.9.503l4.838 26.415zm-11.307-17.404l-3.375 7.554h4.332l-.957-7.554zM251.269 52.773c.281 0 .506.224.45.56l-1.519 6.044c-.113.28-.394.56-.731.56h-14.457c-.337 0-.562-.28-.506-.56l4.163-26.303c.056-.335.393-.615.675-.615h7.087c.338 0 .563.28.506.615l-3.15 19.7h7.482zM269.213 52.773c.281 0 .506.224.45.56l-1.519 6.044c-.113.28-.394.56-.731.56h-14.457c-.337 0-.562-.28-.506-.56l4.163-26.303c.056-.335.393-.615.675-.615h7.087c.338 0 .563.28.506.615l-3.15 19.7h7.482zM186.131 32.739c.113 0 .225.111.225.223v2.183c0 .112-.112.224-.225.224h-3.656v1.287h2.869c.112 0 .225.112.169.168l-.225 2.015c0 .111-.113.167-.225.167h-2.644v3.414c0 .112-.113.224-.225.224h-2.531c-.113 0-.225-.112-.225-.224v-9.458c0-.112.112-.224.225-.224h6.468zM191.925 42.812c-3.094 0-5.119-2.07-5.119-5.149 0-3.134 2.025-5.148 5.119-5.148s5.119 2.07 5.119 5.148-2.025 5.149-5.119 5.149zm0-7.443c-1.181 0-1.969.895-1.969 2.294 0 1.343.788 2.295 1.969 2.295s1.969-.896 1.969-2.295c0-1.343-.788-2.294-1.969-2.294zM206.156 42.364c.056.112-.056.224-.169.224h-3.093a.38.38 0 01-.338-.224l-1.519-3.134h-.168v3.134c0 .112-.113.224-.225.224h-2.532c-.112 0-.225-.112-.225-.224v-9.458c0-.111.113-.223.225-.223h3.825c2.194 0 3.713 1.287 3.713 3.245 0 1.12-.675 2.295-1.744 2.743l2.25 3.693zm-4.387-5.54c.506 0 .843-.28.843-.784 0-.503-.337-.783-.843-.783h-.844v1.51h.844v.057z" fill="currentColor"/></symbol><symbol id="mhfa-logo-nyc" viewBox="0 0 45 15"><path d="M44.063 6.55L45 5.627V2.813L42.187 0h-9.374L30 2.813V.939L29.063 0h-3.75l-.937.939v1.874L22.5 4.689l-1.874-1.876V.939L19.687 0h-3.75L15 .939 14.063 0h-3.75l-.937.939v3.75L4.687 0H.937L0 .939v13.124L.937 15h3.75l.939-.937v-3.75L10.313 15h3.75l.937-.937v-7.5l4.687 4.687v2.813l.939.937h3.75l.937-.937V11.25L30 6.563v5.626L32.813 15h9.374L45 12.189V9.376l-.937-.939h-4.689v.939h-3.748v-3.75h3.748v.925h4.689zM44.332.633c.089 0 .165-.008.165-.111 0-.086-.085-.097-.154-.097H44.2v.208h.131zm-.13.403h-.116v-.71h.269c.17 0 .259.06.259.204 0 .13-.078.181-.185.193l.2.313h-.132l-.183-.304h-.11v.304h-.001zm.126-.896c-.277 0-.493.218-.493.53 0 .292.189.53.493.53.275 0 .491-.216.491-.53 0-.312-.216-.53-.49-.53zm0 1.171c-.368 0-.63-.275-.63-.641 0-.386.291-.641.63-.641a.62.62 0 01.627.64.62.62 0 01-.627.642z" fill="currentColor"/></symbol><symbol id="mhfa-logo-nyc-opportunity" viewBox="0 0 332 63"><path d="M169.529 25.963l3.605-3.558V11.582L162.311.76h-36.065l-10.823 10.823v-7.21L111.818.76H97.39l-3.605 3.613v7.21L86.567 18.8l-7.21-7.218v-7.21L75.744.76H61.316l-3.605 3.613L54.106.76H39.68l-3.605 3.613V18.8L18.033.76H3.605L0 4.371v50.494l3.605 3.605h14.428l3.613-3.605V40.438L39.679 58.47h14.427l3.605-3.605V26.01l18.033 18.033v10.823l3.613 3.605h14.428l3.605-3.605V44.043l18.033-18.033v21.646l10.823 10.815h36.065l10.823-10.815V36.833l-3.605-3.613h-18.04v3.613h-14.42V22.405h14.42v3.558h18.04zM170.565 3.194c.34 0 .632-.031.632-.427 0-.332-.324-.371-.593-.371h-.545v.798h.506zm-.498 1.55h-.451V2.016h1.036c.656 0 .996.23.996.783 0 .498-.3.696-.712.743l.767 1.202h-.506l-.703-1.17h-.419v1.17h-.008zm.482-3.447c-1.067 0-1.897.838-1.897 2.04 0 1.122.727 2.04 1.897 2.04 1.059 0 1.89-.83 1.89-2.04 0-1.202-.831-2.04-1.89-2.04zm0 4.506c-1.415 0-2.427-1.06-2.427-2.466 0-1.487 1.123-2.467 2.427-2.467 1.289 0 2.411.98 2.411 2.467.008 1.478-1.114 2.466-2.411 2.466zM187.731 15h3.521V4.093h.041L194.311 15h2.858l3.018-10.907h.04V15h3.522V.632h-5.514l-2.475 9.579h-.04L193.245.632h-5.514V15zm21.326-2.998c0-.825.644-1.147 1.409-1.329.744-.2 1.629-.261 2.112-.563.081 2.153-.462 3.079-2.092 3.079-.765 0-1.429-.342-1.429-1.187zm.201-4.226c.161-.886.765-1.308 1.711-1.308.704 0 1.65.302 1.65 1.086 0 .644-.322.846-.906.966-2.374.483-6.077.222-6.077 3.623 0 2.153 1.57 3.159 3.562 3.159 1.247 0 2.555-.362 3.441-1.288.04.342.08.664.201.986h3.441c-.402-.825-.402-1.791-.402-2.676V7.756c0-2.958-2.395-3.502-4.87-3.502-1.187 0-2.395.202-3.32.725-.926.543-1.57 1.428-1.63 2.797h3.199zm19.294-3.22h-3.502l-1.972 6.802h-.04l-1.972-6.802h-3.622l2.696 7.265c.201.563.865 2.173.865 2.736 0 .725-.583 1.167-1.368 1.167h-1.187v2.777h1.61c2.314 0 3.541-.281 4.366-2.575l4.126-11.37zm3.906 5.232c0-1.328.483-2.918 2.072-2.918 1.59 0 2.093 1.59 2.093 2.918s-.503 2.898-2.093 2.898c-1.589 0-2.072-1.57-2.072-2.898zm-3.421 0c0 3.14 2.254 5.514 5.493 5.514 3.24 0 5.514-2.375 5.514-5.514 0-3.14-2.274-5.534-5.514-5.534-3.239 0-5.493 2.395-5.493 5.534zM241.962 15h3.421V9.828c0-1.308.886-2.475 2.576-2.475.463 0 .865.08 1.308.201V4.435a3.643 3.643 0 00-.805-.08c-1.469 0-2.636.704-3.139 2.032h-.04v-1.83h-3.321V15zm8.689-10.625h1.449c.06.926-.563 1.73-1.449 1.892v1.61c2.194-.363 3.18-1.892 3.2-3.904V.633h-3.2v3.742zm3.616 7.184c.1 2.918 2.636 3.743 5.111 3.743 2.354 0 5.011-.926 5.011-3.723 0-.865-.544-2.395-2.657-2.817-1.569-.342-3.863-.523-3.863-1.51 0-.724.905-.784 1.469-.784.422 0 .805.08 1.086.261.282.182.443.463.443.906h3.159c-.12-2.717-2.515-3.38-4.809-3.38-2.052 0-4.769.683-4.769 3.199 0 2.817 2.696 2.877 4.85 3.42.603.142 1.67.303 1.67 1.107 0 .826-.946 1.107-1.61 1.107-.483 0-.946-.12-1.268-.362-.342-.262-.563-.644-.563-1.167h-3.26zm17.73-3.743c0 4.166 2.556 7.486 7.083 7.486 4.528 0 7.084-3.32 7.084-7.486 0-4.165-2.556-7.486-7.084-7.486-4.527 0-7.083 3.32-7.083 7.486zm3.743 0c0-2.133.926-4.266 3.34-4.266 2.415 0 3.341 2.133 3.341 4.266s-.926 4.266-3.341 4.266c-2.414 0-3.34-2.133-3.34-4.266zM288.806 15h3.421V6.77h2.053V4.556h-2.053v-.463c0-.945.483-1.046 1.268-1.046.302 0 .604.02.926.06V.693c-.544-.02-1.107-.06-1.65-.06-2.918 0-3.965.925-3.965 3.923h-1.65V6.77h1.65V15zm7.448 0h3.421V6.77h2.053V4.556h-2.053v-.463c0-.945.483-1.046 1.268-1.046.302 0 .604.02.926.06V.693c-.544-.02-1.107-.06-1.651-.06-2.917 0-3.964.925-3.964 3.923h-1.65V6.77h1.65V15zm7.026 0h3.42V4.556h-3.42V15zM306.7.632h-3.42v2.616h3.42V.632zm12.334 7.748c-.242-2.757-2.556-4.126-5.152-4.126-3.36 0-5.473 2.375-5.473 5.695 0 3.2 2.334 5.353 5.473 5.353 2.777 0 4.951-1.61 5.252-4.407h-3.32c-.161 1.107-.765 1.79-1.952 1.79-1.449 0-2.032-1.388-2.032-2.736 0-1.449.302-3.079 2.213-3.079.866 0 1.65.624 1.671 1.51h3.32zm4.322.321c.201-1.267 1.006-2.133 2.213-2.133 1.147 0 1.972.966 2.033 2.133h-4.246zm7.667 1.912c.161-3.541-1.711-6.359-5.454-6.359-3.079 0-5.634 2.294-5.634 5.494 0 3.501 2.314 5.554 5.715 5.554 2.334 0 4.568-1.047 5.192-3.461h-3.2c-.322.764-1.127 1.147-1.952 1.147-1.449 0-2.274-.946-2.334-2.375h7.667zM188.314 37h3.421v-8.23h2.053v-2.214h-2.053v-.463c0-.945.483-1.046 1.268-1.046.302 0 .604.02.926.06v-2.415c-.544-.02-1.107-.06-1.65-.06-2.918 0-3.965.926-3.965 3.924h-1.65v2.214h1.65V37zm9.622-5.212c0-1.328.483-2.918 2.072-2.918 1.59 0 2.093 1.59 2.093 2.918s-.503 2.898-2.093 2.898c-1.589 0-2.072-1.57-2.072-2.898zm-3.421 0c0 3.14 2.253 5.514 5.493 5.514s5.514-2.375 5.514-5.514c0-3.14-2.274-5.534-5.514-5.534s-5.493 2.395-5.493 5.534zM207.44 37h3.421v-5.172c0-1.308.886-2.475 2.576-2.475.463 0 .865.08 1.308.201v-3.119a3.641 3.641 0 00-.805-.08c-1.469 0-2.636.704-3.139 2.032h-.04v-1.83h-3.321V37zm14.936 0h11.651v-3.22h-7.908v-2.736h7.043v-2.898h-7.043V25.63h7.707v-2.999h-11.45V37zm23.555-6.62c-.241-2.757-2.555-4.126-5.151-4.126-3.361 0-5.474 2.375-5.474 5.695 0 3.2 2.335 5.353 5.474 5.353 2.777 0 4.95-1.61 5.252-4.407h-3.32c-.161 1.107-.765 1.79-1.952 1.79-1.449 0-2.033-1.388-2.033-2.736 0-1.449.302-3.079 2.214-3.079.865 0 1.65.624 1.67 1.51h3.32zm4.725 1.408c0-1.328.483-2.918 2.072-2.918 1.59 0 2.093 1.59 2.093 2.918s-.503 2.898-2.093 2.898c-1.589 0-2.072-1.57-2.072-2.898zm-3.421 0c0 3.14 2.254 5.514 5.493 5.514 3.24 0 5.514-2.375 5.514-5.514 0-3.14-2.274-5.534-5.514-5.534-3.239 0-5.493 2.395-5.493 5.534zM259.838 37h3.421v-5.695c0-1.147.564-2.233 1.852-2.233 1.871 0 1.71 1.448 1.71 2.877V37h3.421v-6.701c0-1.51-.282-4.045-3.763-4.045-1.248 0-2.656.664-3.28 1.73h-.04v-1.428h-3.321V37zm15.392-5.212c0-1.328.483-2.918 2.073-2.918 1.59 0 2.093 1.59 2.093 2.918s-.503 2.898-2.093 2.898c-1.59 0-2.073-1.57-2.073-2.898zm-3.421 0c0 3.14 2.254 5.514 5.494 5.514 3.24 0 5.514-2.375 5.514-5.514 0-3.14-2.274-5.534-5.514-5.534s-5.494 2.395-5.494 5.534zM284.413 37h3.421v-5.091c0-2.133.523-2.837 1.751-2.837.925 0 1.287.764 1.287 1.992V37h3.421v-5.111c0-1.69.141-2.817 1.61-2.817.886 0 1.429.664 1.429 1.79V37h3.421v-6.238c0-1.992-.362-4.508-3.683-4.508-1.408 0-2.435.584-3.26 1.69-.563-1.267-1.73-1.69-3.038-1.69-1.268 0-2.375.684-2.999 1.73h-.04v-1.428h-3.32V37zm18.75 0h3.421V26.556h-3.421V37zm3.421-14.368h-3.421v2.616h3.421v-2.616zm12.535 7.747c-.242-2.756-2.556-4.125-5.152-4.125-3.36 0-5.473 2.375-5.473 5.695 0 3.2 2.334 5.353 5.473 5.353 2.777 0 4.95-1.61 5.252-4.407h-3.32c-.161 1.107-.765 1.79-1.952 1.79-1.449 0-2.032-1.388-2.032-2.736 0-1.449.302-3.079 2.213-3.079.865 0 1.65.624 1.67 1.51h3.321zM187.167 51.817c0 4.165 2.556 7.486 7.084 7.486 4.527 0 7.083-3.32 7.083-7.486 0-4.165-2.556-7.486-7.083-7.486-4.528 0-7.084 3.32-7.084 7.486zm3.743 0c0-2.133.926-4.266 3.341-4.266 2.414 0 3.34 2.133 3.34 4.266s-.926 4.266-3.34 4.266c-2.415 0-3.341-2.133-3.341-4.266zm17.514-.946c1.509 0 2.032 1.47 2.032 2.797 0 1.43-.523 3.019-2.052 3.019-1.55 0-2.073-1.187-2.073-3.019 0-2.153 1.167-2.797 2.093-2.797zm-5.393 11.631h3.421v-4.628h.04c.704.946 1.69 1.429 2.978 1.429 2.958 0 4.407-2.576 4.407-5.292 0-2.938-1.388-5.756-4.668-5.756-1.208 0-2.214.524-2.878 1.51h-.04v-1.208h-3.26v13.945zm18.068-11.63c1.509 0 2.032 1.468 2.032 2.796 0 1.43-.523 3.019-2.052 3.019-1.55 0-2.073-1.187-2.073-3.019 0-2.153 1.167-2.797 2.093-2.797zm-5.393 11.63h3.421v-4.628h.04c.704.946 1.69 1.429 2.978 1.429 2.958 0 4.407-2.576 4.407-5.292 0-2.938-1.388-5.756-4.668-5.756-1.208 0-2.214.524-2.878 1.51h-.04v-1.208h-3.26v13.945zm15.593-8.713c0-1.328.483-2.918 2.073-2.918 1.589 0 2.092 1.59 2.092 2.918s-.503 2.898-2.092 2.898c-1.59 0-2.073-1.57-2.073-2.898zm-3.421 0c0 3.14 2.254 5.514 5.494 5.514 3.239 0 5.513-2.375 5.513-5.514 0-3.14-2.274-5.534-5.513-5.534-3.24 0-5.494 2.395-5.494 5.534zM240.401 59h3.421v-5.172c0-1.308.886-2.475 2.576-2.475.463 0 .865.08 1.308.201v-3.119a3.641 3.641 0 00-.805-.08c-1.469 0-2.636.704-3.139 2.032h-.04v-1.83h-3.321V59zm15.35-10.444h-2.113v-3.16h-3.421v3.16h-1.731v2.214h1.731v4.648c0 2.837.744 3.683 3.662 3.683.624 0 1.248-.08 1.872-.101v-2.515c-.302 0-.604.04-.886.04-.744 0-1.227-.181-1.227-1.006v-4.75h2.113v-2.213zm11.906 0h-3.421v5.594c0 1.852-1.127 2.335-1.871 2.335-1.087 0-1.691-.483-1.691-1.872v-6.057h-3.421v6.279c0 2.736.866 4.467 3.864 4.467 1.207 0 2.535-.664 3.179-1.73h.041V59h3.32V48.556zM269.949 59h3.421v-5.695c0-1.147.563-2.233 1.851-2.233 1.871 0 1.71 1.448 1.71 2.877V59h3.421v-6.701c0-1.51-.281-4.045-3.763-4.045-1.247 0-2.656.664-3.28 1.73h-.04v-1.428h-3.32V59zm12.796 0h3.42V48.556h-3.42V59zm3.42-14.368h-3.42v2.616h3.42v-2.616zm8.712 3.924h-2.113v-3.16h-3.421v3.16h-1.731v2.214h1.731v4.648c0 2.837.744 3.683 3.662 3.683.624 0 1.248-.08 1.872-.101v-2.515c-.302 0-.604.04-.886.04-.744 0-1.227-.181-1.227-1.006v-4.75h2.113v-2.213zm11.343 0h-3.502l-1.972 6.802h-.04l-1.972-6.802h-3.622l2.696 7.265c.201.563.865 2.173.865 2.736 0 .725-.583 1.167-1.368 1.167h-1.187v2.777h1.61c2.314 0 3.541-.281 4.366-2.575l4.126-11.37z" fill="currentColor"/></symbol><symbol id="mhfa-logo-color"><path d="M75.15 32.739c.337 0 .619.28.619.615v26.303c0 .28-.225.56-.619.56h-7.481a.562.562 0 01-.563-.56v-8.898h-5.625v8.898c0 .28-.225.56-.619.56h-7.425c-.28 0-.562-.28-.562-.56V33.354c0-.336.281-.615.563-.615h7.48c.338 0 .62.28.62.615v10.41h5.624v-10.41c0-.336.225-.615.563-.615h7.425zM98.381 57.978c.056.28 0 .448-.281.616-2.137 1.399-5.175 2.238-8.269 2.238-7.087 0-11.812-4.589-11.812-11.472 0-6.94 4.612-11.529 11.587-11.529 6.638 0 10.575 4.253 10.575 11.473 0 .615-.056 1.175-.168 1.79-.057.336-.226.504-.62.504H86.57s0 2.519 3.375 2.519c2.025 0 4.331-.504 6.131-1.288.281-.112.506.056.619.336l1.687 4.813zm-6.187-10.633c0-1.735-1.069-2.91-2.7-2.91-1.8 0-2.981 1.175-2.981 2.91h5.68zM103.781 40.797c-.112-.28-.056-.56.225-.783 2.307-1.455 5.457-2.295 8.663-2.295 6.919 0 10.125 3.638 10.125 11.529v10.297a.623.623 0 01-.619.615h-5.062a.623.623 0 01-.619-.615l-.281-1.063c-1.294 1.399-3.938 2.294-6.863 2.294-4.612 0-7.65-2.966-7.594-7.331.057-3.917 3.094-6.492 7.594-6.492 2.306 0 4.388.84 5.175 2.127V47.4c0-1.734-1.237-2.797-3.094-2.797-1.575 0-3.487.503-4.781 1.287-.225.112-.45-.056-.619-.336l-2.25-4.757zm10.8 12.256c-.675-.671-1.35-1.007-2.193-1.007-1.013 0-1.688.56-1.688 1.455s.675 1.455 1.688 1.455c.843 0 1.518-.336 2.193-1.007v-.896zM133.313 31.34c.337 0 .618.28.618.56v27.7a.622.622 0 01-.618.617h-7.032a.622.622 0 01-.618-.616V31.899c0-.28.281-.56.618-.56h7.032zM149.85 38.335c.338 0 .619.224.619.56l-.45 3.861c-.056.336-.281.616-.619.616h-2.587v16.285a.623.623 0 01-.619.616h-7.031a.623.623 0 01-.619-.616V43.316h-2.306a.562.562 0 01-.563-.56v-3.861c0-.336.281-.616.563-.616h2.306v-4.365c0-.28.281-.504.619-.56l7.031-.671c.337-.056.619.28.619.56v5.036h3.037v.056zM159.919 31.34c.337 0 .619.28.619.615v8.059c1.068-1.4 2.981-2.239 5.175-2.239 4.781 0 7.65 2.687 7.65 7.331v14.55a.623.623 0 01-.619.617h-7.031c-.338 0-.619-.28-.563-.616V47.12c0-1.567-.731-2.518-1.969-2.518-2.306 0-2.643 2.238-2.643 2.238v12.76a.623.623 0 01-.619.616h-7.031a.623.623 0 01-.619-.616V31.955c0-.336.281-.616.619-.616h7.031zM31.05 1.4c.337 0 .563.279.563.615v26.302c0 .28-.226.56-.563.56h-7.425c-.337 0-.619-.28-.619-.56V16.621l-4.05 11.64c-.112.336-.619.616-1.012.616h-4.388c-.337 0-.9-.28-1.012-.615l-4.05-11.64v11.695c0 .28-.281.56-.619.56H.562a.562.562 0 01-.562-.56V2.015c0-.336.225-.616.563-.616h8.38c.507 0 1.126.336 1.35.784l5.513 15.222L21.32 2.183c.225-.448.844-.784 1.35-.784h8.381zM54.169 26.639c.056.28 0 .447-.282.615-2.137 1.4-5.175 2.239-8.268 2.239-7.088 0-11.813-4.59-11.813-11.473 0-6.94 4.613-11.528 11.588-11.528 6.637 0 10.575 4.253 10.575 11.472a9.65 9.65 0 01-.17 1.791c-.055.336-.224.504-.618.504H42.412s0 2.518 3.375 2.518c2.025 0 4.332-.504 6.132-1.287.28-.112.506.056.618.336l1.632 4.813zm-6.132-10.633c0-1.735-1.068-2.91-2.7-2.91-1.8 0-2.98 1.175-2.98 2.91h5.68zM64.406 8.618C65.7 7.22 68.4 6.38 70.82 6.38c5.456 0 8.381 2.518 8.381 8.73v13.152a.623.623 0 01-.619.615H71.55c-.338 0-.619-.28-.563-.615v-11.92c0-1.568-.73-2.52-1.968-2.52-2.307 0-2.644 2.24-2.644 2.24v12.2a.623.623 0 01-.619.615h-7.031a.623.623 0 01-.619-.615V7.555c0-.336.225-.56.563-.56h4.5c.281 0 .506.112.619.392l.618 1.231zM94.95 6.94c.337 0 .619.223.619.56l-.45 3.86c-.057.336-.282.616-.62.616h-2.587v16.285a.623.623 0 01-.618.616h-7.032a.623.623 0 01-.618-.615V11.976h-2.307a.562.562 0 01-.562-.56v-3.86c0-.337.281-.617.562-.617h2.307V2.63c0-.28.28-.503.618-.56l7.032-.67c.337-.057.618.279.618.559v5.036h3.038V6.94zM97.65 9.458c-.113-.28-.056-.56.225-.784 2.306-1.455 5.456-2.294 8.663-2.294 6.918 0 10.125 3.637 10.125 11.528v10.297a.623.623 0 01-.619.616h-5.063a.622.622 0 01-.618-.616l-.282-1.063c-1.293 1.4-3.937 2.295-6.862 2.295-4.613 0-7.65-2.966-7.594-7.332.056-3.917 3.094-6.491 7.594-6.491 2.306 0 4.387.84 5.175 2.126v-1.678c0-1.735-1.238-2.799-3.094-2.799-1.575 0-3.487.504-4.781 1.287-.225.112-.45-.056-.619-.335l-2.25-4.757zm10.744 12.256c-.675-.672-1.35-1.008-2.194-1.008-1.012 0-1.687.56-1.687 1.456 0 .895.675 1.454 1.687 1.454.844 0 1.519-.335 2.194-1.007v-.895zM127.125 0c.338 0 .619.28.619.56V28.26a.623.623 0 01-.619.616h-7.031a.623.623 0 01-.619-.615V.56c0-.28.281-.56.619-.56h7.031z" fill="#E93E51"/><path d="M233.719 59.433c.056.224-.113.504-.45.504h-7.932c-.337 0-.675-.224-.731-.504l-.562-4.197h-7.538l-1.856 4.197a1.083 1.083 0 01-.9.504h-7.931c-.338 0-.45-.28-.282-.504l13.219-26.415c.169-.224.619-.503 1.069-.503h8.156c.394 0 .788.28.9.503l4.838 26.415zm-11.307-17.404l-3.375 7.554h4.332l-.957-7.554zM251.269 52.773c.281 0 .506.224.45.56l-1.519 6.044c-.113.28-.394.56-.731.56h-14.457c-.337 0-.562-.28-.506-.56l4.163-26.303c.056-.335.393-.615.675-.615h7.087c.338 0 .563.28.506.615l-3.15 19.7h7.482zM269.213 52.773c.281 0 .506.224.45.56l-1.519 6.044c-.113.28-.394.56-.731.56h-14.457c-.337 0-.562-.28-.506-.56l4.163-26.303c.056-.335.393-.615.675-.615h7.087c.338 0 .563.28.506.615l-3.15 19.7h7.482zM186.131 32.739c.113 0 .225.111.225.223v2.183c0 .112-.112.224-.225.224h-3.656v1.287h2.869c.112 0 .225.112.169.168l-.225 2.015c0 .111-.113.167-.225.167h-2.644v3.414c0 .112-.113.224-.225.224h-2.531c-.113 0-.225-.112-.225-.224v-9.458c0-.112.112-.224.225-.224h6.468zM191.925 42.812c-3.094 0-5.119-2.07-5.119-5.149 0-3.134 2.025-5.148 5.119-5.148s5.119 2.07 5.119 5.148-2.025 5.149-5.119 5.149zm0-7.443c-1.181 0-1.969.895-1.969 2.294 0 1.343.788 2.295 1.969 2.295s1.969-.896 1.969-2.295c0-1.343-.788-2.294-1.969-2.294zM206.156 42.364c.056.112-.056.224-.169.224h-3.093a.38.38 0 01-.338-.224l-1.519-3.134h-.168v3.134c0 .112-.113.224-.225.224h-2.532c-.112 0-.225-.112-.225-.224v-9.458c0-.111.113-.223.225-.223h3.825c2.194 0 3.713 1.287 3.713 3.245 0 1.12-.675 2.295-1.744 2.743l2.25 3.693zm-4.387-5.54c.506 0 .843-.28.843-.784 0-.503-.337-.783-.843-.783h-.844v1.51h.844v.057z" fill="#1A4586"/></symbol><symbol id="mhfa-icon-website" viewBox="0 0 50 36"><path d="M5.146 5.77a1.195 1.195 0 100-2.392 1.195 1.195 0 000 2.391zM9.095 5.77a1.195 1.195 0 100-2.392 1.195 1.195 0 000 2.391zM13.046 5.77a1.195 1.195 0 100-2.392 1.195 1.195 0 000 2.391z" fill="currentColor"/><path d="M45.374 0h-40.8C2.079 0 0 2.027 0 4.574v26.663c0 2.495 2.027 4.574 4.574 4.574h40.852c2.495 0 4.574-2.027 4.574-4.574V4.574C49.948 2.079 47.921 0 45.374 0zm2.91 31.237c0 1.611-1.299 2.91-2.91 2.91H4.522c-1.611 0-2.91-1.299-2.91-2.91V4.574c0-1.611 1.299-2.91 2.91-2.91h40.852c1.611 0 2.91 1.299 2.91 2.91v26.663z" fill="currentColor"/><path d="M48.7 8.316H1.404v-.52-.52h47.298v1.04zM38.811 23.129H23.766c-.483 0-.897-.312-.897-.676 0-.364.414-.676.897-.676H38.81c.483 0 .898.312.898.676 0 .364-.415.676-.898.676zM38.812 27.91H23.766c-.483 0-.897-.311-.897-.675 0-.364.414-.676.897-.676h15.046c.483 0 .897.312.897.676 0 .364-.414.676-.897.676z" fill="currentColor"/><path d="M38.811 27.859H23.766c-.483 0-.897-.312-.897-.676 0-.364.414-.676.897-.676H38.81c.483 0 .898.312.898.676 0 .364-.415.676-.898.676zM38.811 30.977H23.766c-.483 0-.897-.312-.897-.676 0-.363.414-.675.897-.675H38.81c.483 0 .898.312.898.675 0 .364-.415.676-.898.676zM38.811 19.958H23.766c-.483 0-.897-.312-.897-.675 0-.364.414-.676.897-.676H38.81c.483 0 .898.312.898.676 0 .363-.415.675-.898.675z" fill="currentColor"/><path stroke="currentColor" stroke-width="1.04" d="M9.875 10.915h29.106v4.158H9.875zM9.875 18.711h9.875v5.197H9.875z"/></symbol><symbol id="mhfa-icon-texting" viewBox="0 0 35 51"><path d="M18.815 26.767a1.143 1.143 0 100-2.287 1.143 1.143 0 000 2.287zM23.337 26.767a1.143 1.143 0 100-2.287 1.143 1.143 0 000 2.287zM27.754 26.767a1.143 1.143 0 100-2.287 1.143 1.143 0 000 2.287zM14.24 47.765a1.663 1.663 0 100-3.326 1.663 1.663 0 000 3.326zM11.174 3.586a.688.688 0 00-.675.676c0 .364.311.676.675.676h6.081a.688.688 0 00.676-.676.688.688 0 00-.676-.676h-6.08z" fill="currentColor"/><path d="M33.16 18.347h-4.678V4.262C28.482 1.923 26.56 0 24.22 0H4.262C1.923 0 0 1.923 0 4.262v42.1c0 2.339 1.923 4.262 4.262 4.262H24.22c2.34 0 4.262-1.923 4.262-4.262V33.264h4.678c.936 0 1.715-.832 1.715-1.82V20.167c0-.987-.78-1.819-1.715-1.819zM1.611 4.262a2.662 2.662 0 012.651-2.65H24.22a2.662 2.662 0 012.651 2.65v2.39H1.611v-2.39zm25.26 42.048a2.662 2.662 0 01-2.65 2.65H4.26a2.662 2.662 0 01-2.65-2.65v-2.963h25.26v2.963zm0-4.522H1.611V8.264h25.26v10.083H13.566c-.936 0-1.716.832-1.716 1.82v11.278c0 .987.78 1.819 1.716 1.819h1.974l.832 4.73 4.678-4.73h5.821v8.524zm6.549-10.343c0 .104-.104.208-.26.208H20.478l-3.17 3.222-.572-3.274h-3.17c-.156 0-.26-.104-.26-.208V20.166c0-.104.104-.208.26-.208H33.16c.156 0 .26.104.26.208v11.279z" fill="currentColor"/></symbol><symbol id="mhfa-icon-online-chat" viewBox="0 0 50 36"><path d="M5.146 5.77a1.195 1.195 0 100-2.392 1.195 1.195 0 000 2.391zM9.095 5.77a1.195 1.195 0 100-2.392 1.195 1.195 0 000 2.391zM13.046 5.77a1.195 1.195 0 100-2.392 1.195 1.195 0 000 2.391z" fill="currentColor"/><path d="M45.374 0h-40.8C2.079 0 0 2.027 0 4.574v26.663c0 2.495 2.027 4.574 4.574 4.574h40.852c2.495 0 4.574-2.027 4.574-4.574V4.574C49.948 2.079 47.921 0 45.374 0zm2.91 31.237c0 1.611-1.299 2.91-2.91 2.91H4.522c-1.611 0-2.91-1.299-2.91-2.91V4.574c0-1.611 1.299-2.91 2.91-2.91h40.852c1.611 0 2.91 1.299 2.91 2.91v26.663z" fill="currentColor"/><path d="M48.7 8.42H1.404V7.9v-.52h47.298v1.04zM25.285 16.684h-7.262a.465.465 0 01-.466-.468c0-.26.207-.468.466-.468h7.314c.26 0 .467.208.467.468s-.208.468-.519.468zM25.285 18.815h-7.262a.465.465 0 01-.466-.468c0-.26.207-.467.466-.467h7.314c.26 0 .467.207.467.467s-.208.468-.519.468zM25.285 20.946h-3.578a.465.465 0 01-.467-.468c0-.26.207-.468.467-.468h3.578c.26 0 .467.208.467.468.052.26-.155.468-.466.468z" fill="currentColor"/><path d="M36.593 15.177H30.68v-1.248c0-.78-.623-1.455-1.349-1.455H13.822c-.726 0-1.348.624-1.348 1.455v8.94c0 .78.622 1.455 1.348 1.455h1.556l.675 3.795 3.682-3.743v1.248c0 .78.623 1.455 1.349 1.455h9.596l3.682 3.794.675-3.794h1.556c.726 0 1.348-.624 1.348-1.455v-8.992c0-.832-.622-1.455-1.348-1.455zM16.779 25.572l-.467-2.599h-2.49c-.103 0-.207-.104-.207-.156V13.93c0-.052.104-.155.207-.155h15.51c.103 0 .207.103.207.155v8.94c0 .052-.104.156-.208.156h-10.01l-2.542 2.547zm20.021 0c0 .052-.103.156-.207.156h-2.49l-.467 2.598-2.541-2.598H21.084c-.104 0-.208-.104-.208-.156v-1.248h8.455c.726 0 1.349-.623 1.349-1.455v-6.393h5.913c.103 0 .207.104.207.156v8.94z" fill="currentColor"/></symbol><symbol id="mhfa-icon-location" viewBox="0 0 43 43"><path d="M42.59 10.09a1.062 1.062 0 00-.914-.187l-8.111 2.114a1.057 1.057 0 00.533 2.047l6.787-1.77v24.602L25.75 40.844 11.935 36.7a1.058 1.058 0 00-.697.031l-9.123 3.65V15.87l6.384-2.553a1.057 1.057 0 00-.785-1.964l-7.05 2.82c-.4.16-.664.55-.664.982v26.786a1.058 1.058 0 001.45.982l10.231-4.092 13.745 4.123c.186.056.383.06.57.01l16.213-4.229c.466-.121.791-.542.791-1.023V10.926c0-.327-.152-.636-.41-.837z" fill="currentColor"/><path d="M19.047 27.481c.93 1.437 1.56 2.34 1.585 2.378.198.283.522.452.868.452h.002c.347 0 .671-.171.868-.456 0 0 .634-.92 1.575-2.373 1.952-3.014 5.455-8.719 6.99-13.075.529-1.504.786-2.716.786-3.706C31.721 4.8 27.136 0 21.5 0S11.278 4.8 11.278 10.7c0 .173.009.353.025.53.326 4.005 4.39 11.047 7.744 16.251zM21.5 2.115c4.47 0 8.106 3.851 8.106 8.586 0 .736-.224 1.747-.666 3.004-1.462 4.15-4.87 9.692-6.77 12.627-.248.384-.475.73-.673 1.03-.2-.3-.426-.646-.673-1.028-4.488-6.964-7.19-12.532-7.414-15.287a3.717 3.717 0 01-.017-.346c0-4.735 3.636-8.586 8.107-8.586z" fill="currentColor"/><path d="M21.5 14.803a4.587 4.587 0 004.582-4.582A4.587 4.587 0 0021.5 5.639a4.587 4.587 0 00-4.581 4.582 4.587 4.587 0 004.581 4.582zm0-7.05a2.47 2.47 0 012.468 2.468 2.47 2.47 0 01-2.468 2.467 2.47 2.47 0 01-2.467-2.467A2.47 2.47 0 0121.5 7.754z" fill="currentColor"/></symbol><symbol id="mhfa-icon-calling" viewBox="0 0 29 51"><path d="M24.324 0H4.262C1.923 0 0 1.923 0 4.262v42.36c0 2.339 1.923 4.262 4.262 4.262h20.062c2.34 0 4.262-1.923 4.262-4.262V4.314C28.638 1.924 26.716 0 24.324 0zM4.262 1.663h20.062a2.662 2.662 0 012.651 2.65v2.392H1.611V4.314a2.662 2.662 0 012.651-2.65zm22.765 6.653v33.732H1.611V8.316h25.416zm-2.703 41.008H4.262a2.662 2.662 0 01-2.65-2.65V43.71h25.415v2.963c0 1.455-1.195 2.65-2.703 2.65z" fill="currentColor"/><path d="M14.293 48.129a1.715 1.715 0 100-3.43 1.715 1.715 0 000 3.43z" fill="currentColor"/><path d="M14.189 48.129a1.715 1.715 0 100-3.43 1.715 1.715 0 000 3.43zM11.123 3.69a.688.688 0 00-.676.676c0 .364.312.676.676.676h6.133a.688.688 0 00.675-.676c0-.364-.26-.676-.623-.676h-6.185zM14.19 33.19c-2.195 1.051-4.773-2.195-4.773-2.195l3.055-2.96s1.623 1.814 2.292 1.527c0 0 2.196-1.336 3.915-4.964.286-.669-2.006-1.91-2.006-1.91l2.196-3.628s3.438 1.718 3.151 3.724c-.095 2.005-1.718 7.447-7.83 10.407zM13.905 17.341c-2.196.095-4.201 1.05-5.73 2.769a8.368 8.368 0 00-2.1 5.92c0 .382.382.668.764.668a.73.73 0 00.478-.19.73.73 0 00.19-.478c-.095-1.814.478-3.533 1.72-4.965 1.24-1.337 2.864-2.196 4.678-2.292a.73.73 0 00.477-.19.73.73 0 00.191-.478c.095-.477-.286-.764-.668-.764zM10.945 22.497c-.764.86-1.146 1.91-1.05 3.055a.73.73 0 00.19.478.729.729 0 00.478.19.73.73 0 00.477-.19.73.73 0 00.191-.478c0-.764.191-1.527.764-2.005.477-.573 1.241-.859 2.005-.954a.73.73 0 00.477-.192.73.73 0 00.191-.477.73.73 0 00-.19-.477.73.73 0 00-.478-.191c-1.241-.096-2.292.477-3.055 1.241z" fill="currentColor"/></symbol><symbol id="mhfa-graphic-light-c"><g clip-path="url(#clip-graphic-light-c)"><path d="M66.861-.465h443.501l404.5 256.498-915 79.502 67-336z" fill="url(#paint-graphic-light-c)"/></g></symbol></svg>