<?xml version="1.0" encoding="UTF-8"?><!DOCTYPE svg PUBLIC "-//W3C//DTD SVG 1.1//EN" "http://www.w3.org/Graphics/SVG/1.1/DTD/svg11.dtd"><svg xmlns="http://www.w3.org/2000/svg" xmlns:xlink="http://www.w3.org/1999/xlink"><defs/><symbol id="mhfa-icon-website" viewBox="0 0 50 36"><path d="M5.146 5.77a1.195 1.195 0 100-2.392 1.195 1.195 0 000 2.391zM9.095 5.77a1.195 1.195 0 100-2.392 1.195 1.195 0 000 2.391zM13.046 5.77a1.195 1.195 0 100-2.392 1.195 1.195 0 000 2.391z" fill="currentColor"/><path d="M45.374 0h-40.8C2.079 0 0 2.027 0 4.574v26.663c0 2.495 2.027 4.574 4.574 4.574h40.852c2.495 0 4.574-2.027 4.574-4.574V4.574C49.948 2.079 47.921 0 45.374 0zm2.91 31.237c0 1.611-1.299 2.91-2.91 2.91H4.522c-1.611 0-2.91-1.299-2.91-2.91V4.574c0-1.611 1.299-2.91 2.91-2.91h40.852c1.611 0 2.91 1.299 2.91 2.91v26.663z" fill="currentColor"/><path d="M48.7 8.316H1.404v-.52-.52h47.298v1.04zM38.811 23.129H23.766c-.483 0-.897-.312-.897-.676 0-.364.414-.676.897-.676H38.81c.483 0 .898.312.898.676 0 .364-.415.676-.898.676zM38.812 27.91H23.766c-.483 0-.897-.311-.897-.675 0-.364.414-.676.897-.676h15.046c.483 0 .897.312.897.676 0 .364-.414.676-.897.676z" fill="currentColor"/><path d="M38.811 27.859H23.766c-.483 0-.897-.312-.897-.676 0-.364.414-.676.897-.676H38.81c.483 0 .898.312.898.676 0 .364-.415.676-.898.676zM38.811 30.977H23.766c-.483 0-.897-.312-.897-.676 0-.363.414-.675.897-.675H38.81c.483 0 .898.312.898.675 0 .364-.415.676-.898.676zM38.811 19.958H23.766c-.483 0-.897-.312-.897-.675 0-.364.414-.676.897-.676H38.81c.483 0 .898.312.898.676 0 .363-.415.675-.898.675z" fill="currentColor"/><path stroke="currentColor" stroke-width="1.04" d="M9.875 10.915h29.106v4.158H9.875zM9.875 18.711h9.875v5.197H9.875z"/></symbol><symbol id="mhfa-icon-texting" viewBox="0 0 35 51"><path d="M18.815 26.767a1.143 1.143 0 100-2.287 1.143 1.143 0 000 2.287zM23.337 26.767a1.143 1.143 0 100-2.287 1.143 1.143 0 000 2.287zM27.754 26.767a1.143 1.143 0 100-2.287 1.143 1.143 0 000 2.287zM14.24 47.765a1.663 1.663 0 100-3.326 1.663 1.663 0 000 3.326zM11.174 3.586a.688.688 0 00-.675.676c0 .364.311.676.675.676h6.081a.688.688 0 00.676-.676.688.688 0 00-.676-.676h-6.08z" fill="currentColor"/><path d="M33.16 18.347h-4.678V4.262C28.482 1.923 26.56 0 24.22 0H4.262C1.923 0 0 1.923 0 4.262v42.1c0 2.339 1.923 4.262 4.262 4.262H24.22c2.34 0 4.262-1.923 4.262-4.262V33.264h4.678c.936 0 1.715-.832 1.715-1.82V20.167c0-.987-.78-1.819-1.715-1.819zM1.611 4.262a2.662 2.662 0 012.651-2.65H24.22a2.662 2.662 0 012.651 2.65v2.39H1.611v-2.39zm25.26 42.048a2.662 2.662 0 01-2.65 2.65H4.26a2.662 2.662 0 01-2.65-2.65v-2.963h25.26v2.963zm0-4.522H1.611V8.264h25.26v10.083H13.566c-.936 0-1.716.832-1.716 1.82v11.278c0 .987.78 1.819 1.716 1.819h1.974l.832 4.73 4.678-4.73h5.821v8.524zm6.549-10.343c0 .104-.104.208-.26.208H20.478l-3.17 3.222-.572-3.274h-3.17c-.156 0-.26-.104-.26-.208V20.166c0-.104.104-.208.26-.208H33.16c.156 0 .26.104.26.208v11.279z" fill="currentColor"/></symbol><symbol id="mhfa-icon-online-chat" viewBox="0 0 50 36"><path d="M5.146 5.77a1.195 1.195 0 100-2.392 1.195 1.195 0 000 2.391zM9.095 5.77a1.195 1.195 0 100-2.392 1.195 1.195 0 000 2.391zM13.046 5.77a1.195 1.195 0 100-2.392 1.195 1.195 0 000 2.391z" fill="currentColor"/><path d="M45.374 0h-40.8C2.079 0 0 2.027 0 4.574v26.663c0 2.495 2.027 4.574 4.574 4.574h40.852c2.495 0 4.574-2.027 4.574-4.574V4.574C49.948 2.079 47.921 0 45.374 0zm2.91 31.237c0 1.611-1.299 2.91-2.91 2.91H4.522c-1.611 0-2.91-1.299-2.91-2.91V4.574c0-1.611 1.299-2.91 2.91-2.91h40.852c1.611 0 2.91 1.299 2.91 2.91v26.663z" fill="currentColor"/><path d="M48.7 8.42H1.404V7.9v-.52h47.298v1.04zM25.285 16.684h-7.262a.465.465 0 01-.466-.468c0-.26.207-.468.466-.468h7.314c.26 0 .467.208.467.468s-.208.468-.519.468zM25.285 18.815h-7.262a.465.465 0 01-.466-.468c0-.26.207-.467.466-.467h7.314c.26 0 .467.207.467.467s-.208.468-.519.468zM25.285 20.946h-3.578a.465.465 0 01-.467-.468c0-.26.207-.468.467-.468h3.578c.26 0 .467.208.467.468.052.26-.155.468-.466.468z" fill="currentColor"/><path d="M36.593 15.177H30.68v-1.248c0-.78-.623-1.455-1.349-1.455H13.822c-.726 0-1.348.624-1.348 1.455v8.94c0 .78.622 1.455 1.348 1.455h1.556l.675 3.795 3.682-3.743v1.248c0 .78.623 1.455 1.349 1.455h9.596l3.682 3.794.675-3.794h1.556c.726 0 1.348-.624 1.348-1.455v-8.992c0-.832-.622-1.455-1.348-1.455zM16.779 25.572l-.467-2.599h-2.49c-.103 0-.207-.104-.207-.156V13.93c0-.052.104-.155.207-.155h15.51c.103 0 .207.103.207.155v8.94c0 .052-.104.156-.208.156h-10.01l-2.542 2.547zm20.021 0c0 .052-.103.156-.207.156h-2.49l-.467 2.598-2.541-2.598H21.084c-.104 0-.208-.104-.208-.156v-1.248h8.455c.726 0 1.349-.623 1.349-1.455v-6.393h5.913c.103 0 .207.104.207.156v8.94z" fill="currentColor"/></symbol><symbol id="mhfa-icon-location" viewBox="0 0 43 43"><path d="M42.59 10.09a1.062 1.062 0 00-.914-.187l-8.111 2.114a1.057 1.057 0 00.533 2.047l6.787-1.77v24.602L25.75 40.844 11.935 36.7a1.058 1.058 0 00-.697.031l-9.123 3.65V15.87l6.384-2.553a1.057 1.057 0 00-.785-1.964l-7.05 2.82c-.4.16-.664.55-.664.982v26.786a1.058 1.058 0 001.45.982l10.231-4.092 13.745 4.123c.186.056.383.06.57.01l16.213-4.229c.466-.121.791-.542.791-1.023V10.926c0-.327-.152-.636-.41-.837z" fill="currentColor"/><path d="M19.047 27.481c.93 1.437 1.56 2.34 1.585 2.378.198.283.522.452.868.452h.002c.347 0 .671-.171.868-.456 0 0 .634-.92 1.575-2.373 1.952-3.014 5.455-8.719 6.99-13.075.529-1.504.786-2.716.786-3.706C31.721 4.8 27.136 0 21.5 0S11.278 4.8 11.278 10.7c0 .173.009.353.025.53.326 4.005 4.39 11.047 7.744 16.251zM21.5 2.115c4.47 0 8.106 3.851 8.106 8.586 0 .736-.224 1.747-.666 3.004-1.462 4.15-4.87 9.692-6.77 12.627-.248.384-.475.73-.673 1.03-.2-.3-.426-.646-.673-1.028-4.488-6.964-7.19-12.532-7.414-15.287a3.717 3.717 0 01-.017-.346c0-4.735 3.636-8.586 8.107-8.586z" fill="currentColor"/><path d="M21.5 14.803a4.587 4.587 0 004.582-4.582A4.587 4.587 0 0021.5 5.639a4.587 4.587 0 00-4.581 4.582 4.587 4.587 0 004.581 4.582zm0-7.05a2.47 2.47 0 012.468 2.468 2.47 2.47 0 01-2.468 2.467 2.47 2.47 0 01-2.467-2.467A2.47 2.47 0 0121.5 7.754z" fill="currentColor"/></symbol><symbol id="mhfa-icon-calling" viewBox="0 0 29 51"><path d="M24.324 0H4.262C1.923 0 0 1.923 0 4.262v42.36c0 2.339 1.923 4.262 4.262 4.262h20.062c2.34 0 4.262-1.923 4.262-4.262V4.314C28.638 1.924 26.716 0 24.324 0zM4.262 1.663h20.062a2.662 2.662 0 012.651 2.65v2.392H1.611V4.314a2.662 2.662 0 012.651-2.65zm22.765 6.653v33.732H1.611V8.316h25.416zm-2.703 41.008H4.262a2.662 2.662 0 01-2.65-2.65V43.71h25.415v2.963c0 1.455-1.195 2.65-2.703 2.65z" fill="currentColor"/><path d="M14.293 48.129a1.715 1.715 0 100-3.43 1.715 1.715 0 000 3.43z" fill="currentColor"/><path d="M14.189 48.129a1.715 1.715 0 100-3.43 1.715 1.715 0 000 3.43zM11.123 3.69a.688.688 0 00-.676.676c0 .364.312.676.676.676h6.133a.688.688 0 00.675-.676c0-.364-.26-.676-.623-.676h-6.185zM14.19 33.19c-2.195 1.051-4.773-2.195-4.773-2.195l3.055-2.96s1.623 1.814 2.292 1.527c0 0 2.196-1.336 3.915-4.964.286-.669-2.006-1.91-2.006-1.91l2.196-3.628s3.438 1.718 3.151 3.724c-.095 2.005-1.718 7.447-7.83 10.407zM13.905 17.341c-2.196.095-4.201 1.05-5.73 2.769a8.368 8.368 0 00-2.1 5.92c0 .382.382.668.764.668a.73.73 0 00.478-.19.73.73 0 00.19-.478c-.095-1.814.478-3.533 1.72-4.965 1.24-1.337 2.864-2.196 4.678-2.292a.73.73 0 00.477-.19.73.73 0 00.191-.478c.095-.477-.286-.764-.668-.764zM10.945 22.497c-.764.86-1.146 1.91-1.05 3.055a.73.73 0 00.19.478.729.729 0 00.478.19.73.73 0 00.477-.19.73.73 0 00.191-.478c0-.764.191-1.527.764-2.005.477-.573 1.241-.859 2.005-.954a.73.73 0 00.477-.192.73.73 0 00.191-.477.73.73 0 00-.19-.477.73.73 0 00-.478-.191c-1.241-.096-2.292.477-3.055 1.241z" fill="currentColor"/></symbol></svg>