<svg viewBox="0 0 29 51" fill="none" xmlns="http://www.w3.org/2000/svg">
  <path d="M24.3243 0H4.26195C1.92308 0 0 1.92308 0 4.26195V46.6216C0 48.9605 1.92308 50.8836 4.26195 50.8836H24.3243C26.6632 50.8836 28.5863 48.9605 28.5863 46.6216V4.31393C28.6383 1.92308 26.7152 0 24.3243 0ZM4.26195 1.6632H24.3243C25.7796 1.6632 26.9751 2.85863 26.9751 4.31393V6.70478H1.61123V4.31393C1.61123 2.85863 2.80665 1.6632 4.26195 1.6632ZM27.027 8.31601V42.0478H1.61123V8.31601H27.027ZM24.3243 49.3243H4.26195C2.80665 49.3243 1.61123 48.1289 1.61123 46.6736V43.711H27.027V46.6736C27.027 48.1289 25.8316 49.3243 24.3243 49.3243Z" fill="currentColor"/>
  <path d="M14.2928 48.1288C15.2401 48.1288 16.008 47.3609 16.008 46.4137C16.008 45.4664 15.2401 44.6985 14.2928 44.6985C13.3455 44.6985 12.5776 45.4664 12.5776 46.4137C12.5776 47.3609 13.3455 48.1288 14.2928 48.1288Z" fill="currentColor"/>
  <path d="M14.1888 48.1288C15.1361 48.1288 15.904 47.3609 15.904 46.4137C15.904 45.4664 15.1361 44.6985 14.1888 44.6985C13.2415 44.6985 12.4736 45.4664 12.4736 46.4137C12.4736 47.3609 13.2415 48.1288 14.1888 48.1288Z" fill="currentColor"/>
  <path d="M11.1225 3.69019C10.7586 3.69019 10.4468 4.00204 10.4468 4.36586C10.4468 4.72969 10.7586 5.04154 11.1225 5.04154H17.2555C17.6193 5.04154 17.9312 4.72969 17.9312 4.36586C17.9312 4.00204 17.6713 3.69019 17.3075 3.69019H11.1225Z" fill="currentColor"/>
  <path d="M14.1909 33.1907C11.9949 34.241 9.41699 30.9947 9.41699 30.9947L12.4723 28.0348C12.4723 28.0348 14.0955 29.8489 14.7638 29.5625C14.7638 29.5625 16.9598 28.2258 18.6785 24.5976C18.9649 23.9292 16.6734 22.688 16.6734 22.688L18.8694 19.0598C18.8694 19.0598 22.3067 20.7784 22.0202 22.7835C21.9248 24.7886 20.3016 30.2309 14.1909 33.1907Z" fill="currentColor"/>
  <path d="M13.9047 17.3411C11.7086 17.4365 9.70358 18.3913 8.17591 20.11C6.74373 21.7331 5.97989 23.8336 6.07537 26.0297C6.07537 26.4116 6.45729 26.698 6.83921 26.698C7.03017 26.698 7.22112 26.6025 7.3166 26.5071C7.41208 26.4116 7.50756 26.2206 7.50756 26.0297C7.41208 24.2156 7.98496 22.4969 9.22618 21.0647C10.4674 19.728 12.0906 18.8687 13.9047 18.7733C14.0956 18.7733 14.2866 18.6778 14.3821 18.5823C14.4775 18.4868 14.573 18.2959 14.573 18.1049C14.6685 17.6275 14.2866 17.3411 13.9047 17.3411Z" fill="currentColor"/>
  <path d="M10.9446 22.497C10.1807 23.3563 9.79882 24.4066 9.8943 25.5523C9.8943 25.7433 9.98978 25.9342 10.0853 26.0297C10.1807 26.1252 10.3717 26.2207 10.5627 26.2207C10.7536 26.2207 10.9446 26.1252 11.0401 26.0297C11.1355 25.9342 11.231 25.7433 11.231 25.5523C11.231 24.7885 11.422 24.0247 11.9948 23.5473C12.4722 22.9744 13.2361 22.688 13.9999 22.5925C14.1909 22.5925 14.3818 22.497 14.4773 22.4015C14.5728 22.306 14.6683 22.1151 14.6683 21.9241C14.6683 21.7332 14.5728 21.5422 14.4773 21.4467C14.3818 21.3513 14.1909 21.2558 13.9999 21.2558C12.7587 21.1603 11.7084 21.7332 10.9446 22.497Z" fill="currentColor"/>
</svg>
