<svg viewBox="0 0 43 43" fill="none" xmlns="http://www.w3.org/2000/svg">
  <path d="M42.5891 10.0893C42.3302 9.88927 41.9933 9.82146 41.6759 9.9027L33.5645 12.0175C32.9994 12.1648 32.6607 12.7423 32.808 13.3075C32.9553 13.8723 33.5322 14.2093 34.098 14.0641L40.8853 12.2945V36.8961L25.7495 40.8444L11.9351 36.7003C11.7059 36.6314 11.4604 36.6428 11.2384 36.7313L2.11476 40.3808V15.8714L8.4993 13.3175C9.04141 13.1006 9.30507 12.4852 9.08822 11.9431C8.87172 11.4013 8.25561 11.137 7.71384 11.3542L0.664648 14.1739C0.263312 14.3343 0 14.7232 0 15.1555V41.9424C0 42.2932 0.174165 42.6212 0.464668 42.8181C0.642275 42.9382 0.849138 42.9998 1.05738 42.9998C1.19024 42.9998 1.32344 42.975 1.45011 42.9241L11.6811 38.8319L25.4256 42.9551C25.6118 43.0112 25.8087 43.0146 25.9963 42.9657L42.2094 38.7362C42.6751 38.6147 43.0001 38.1941 43.0001 37.7129V10.926C43.0001 10.5987 42.8483 10.2896 42.5891 10.0893Z" fill="currentColor"/>
  <path d="M19.0472 27.4812C19.9769 28.9182 20.6061 29.8214 20.6323 29.8592C20.8302 30.1425 21.1541 30.3115 21.4996 30.3115H21.5024C21.849 30.3105 22.1732 30.1398 22.3701 29.8548C22.3701 29.8548 23.0045 28.9351 23.9448 27.4815C25.8968 24.4684 29.4 18.7633 30.9348 14.4068C31.4639 12.903 31.721 11.6907 31.721 10.7008C31.721 4.8002 27.1356 0 21.4996 0C15.8637 0 11.2783 4.8002 11.2783 10.7008C11.2783 10.8725 11.2866 11.0533 11.3031 11.2305C11.6287 15.2353 15.6934 22.2772 19.0472 27.4812ZM21.4996 2.11476C25.9698 2.11476 29.6062 5.96634 29.6062 10.7008C29.6062 11.4374 29.3821 12.4483 28.9402 13.7046C27.478 17.855 24.0708 23.3973 22.1698 26.3322C21.9216 26.716 21.6951 27.0616 21.4969 27.3617C21.2976 27.0616 21.0711 26.716 20.8236 26.334C16.3356 19.3698 13.634 13.8024 13.4099 11.0467C13.3986 10.9259 13.3931 10.8106 13.3931 10.7008C13.3931 5.96634 17.0295 2.11476 21.4996 2.11476Z" fill="currentColor"/>
  <path d="M21.5004 14.8029C24.0268 14.8029 26.0824 12.7473 26.0824 10.2209C26.0824 7.69447 24.0268 5.63892 21.5004 5.63892C18.974 5.63892 16.9185 7.69447 16.9185 10.2209C16.9185 12.7473 18.974 14.8029 21.5004 14.8029ZM21.5004 7.75367C22.8607 7.75367 23.9676 8.86062 23.9676 10.2209C23.9676 11.5812 22.8607 12.6881 21.5004 12.6881C20.1402 12.6881 19.0332 11.5812 19.0332 10.2209C19.0332 8.86062 20.1402 7.75367 21.5004 7.75367Z" fill="currentColor"/>
</svg>
