<svg viewBox="0 0 50 36" fill="none" xmlns="http://www.w3.org/2000/svg">
  <path d="M5.14562 5.76927C5.80584 5.76927 6.34105 5.23406 6.34105 4.57384C6.34105 3.91363 5.80584 3.37842 5.14562 3.37842C4.48541 3.37842 3.9502 3.91363 3.9502 4.57384C3.9502 5.23406 4.48541 5.76927 5.14562 5.76927Z" fill="currentColor"/>
  <path d="M9.09533 5.76927C9.75554 5.76927 10.2908 5.23406 10.2908 4.57384C10.2908 3.91363 9.75554 3.37842 9.09533 3.37842C8.43511 3.37842 7.8999 3.91363 7.8999 4.57384C7.8999 5.23406 8.43511 5.76927 9.09533 5.76927Z" fill="currentColor"/>
  <path d="M13.0455 5.76927C13.7057 5.76927 14.241 5.23406 14.241 4.57384C14.241 3.91363 13.7057 3.37842 13.0455 3.37842C12.3853 3.37842 11.8501 3.91363 11.8501 4.57384C11.8501 5.23406 12.3853 5.76927 13.0455 5.76927Z" fill="currentColor"/>
  <path d="M45.3742 0H4.5738C2.079 0 0 2.02703 0 4.5738V31.237C0 33.7318 2.02703 35.8108 4.5738 35.8108H45.4262C47.921 35.8108 50 33.7838 50 31.237V4.5738C49.948 2.079 47.921 0 45.3742 0ZM48.2848 31.237C48.2848 32.8482 46.9854 34.1476 45.3742 34.1476H4.52183C2.9106 34.1476 1.61123 32.8482 1.61123 31.237V4.5738C1.61123 2.96258 2.9106 1.6632 4.52183 1.6632H45.3742C46.9854 1.6632 48.2848 2.96258 48.2848 4.5738V31.237Z" fill="currentColor"/>
  <path d="M48.7006 8.41987H1.40332C1.40332 8.41987 1.40344 8.17999 1.40344 7.90012C1.40344 7.62026 1.40332 7.38037 1.40332 7.38037H48.7006C48.7006 7.38037 48.7006 7.62026 48.7006 7.90012C48.7006 8.17999 48.7006 8.41987 48.7006 8.41987Z" fill="currentColor"/>
  <path d="M25.2852 16.6841H18.0235C17.7641 16.6841 17.5566 16.4762 17.5566 16.2163C17.5566 15.9564 17.7641 15.7485 18.0235 15.7485H25.337C25.5964 15.7485 25.8038 15.9564 25.8038 16.2163C25.8038 16.4762 25.5964 16.6841 25.2852 16.6841Z" fill="currentColor"/>
  <path d="M25.2852 18.8152H18.0235C17.7641 18.8152 17.5566 18.6073 17.5566 18.3474C17.5566 18.0875 17.7641 17.8796 18.0235 17.8796H25.337C25.5964 17.8796 25.8038 18.0875 25.8038 18.3474C25.8038 18.6073 25.5964 18.8152 25.2852 18.8152Z" fill="currentColor"/>
  <path d="M25.2855 20.946H21.7066C21.4472 20.946 21.2397 20.7381 21.2397 20.4783C21.2397 20.2184 21.4472 20.0105 21.7066 20.0105H25.2855C25.5449 20.0105 25.7524 20.2184 25.7524 20.4783C25.8042 20.7381 25.5968 20.946 25.2855 20.946Z" fill="currentColor"/>
  <path d="M36.5928 15.1768H30.6797V13.9294C30.6797 13.1498 30.0573 12.4741 29.3311 12.4741H13.8222C13.0961 12.4741 12.4736 13.0978 12.4736 13.9294V22.8691C12.4736 23.6488 13.0961 24.3244 13.8222 24.3244H15.3783L16.0526 28.1186L19.7353 24.3764V25.6238C19.7353 26.4034 20.3577 27.0791 21.0839 27.0791H30.6797L34.3624 30.8733L35.0367 27.0791H36.5928C37.319 27.0791 37.9414 26.4554 37.9414 25.6238V16.6321C37.9414 15.8005 37.319 15.1768 36.5928 15.1768ZM16.7788 25.5718L16.312 22.9731H13.8222C13.7185 22.9731 13.6148 22.8691 13.6148 22.8172V13.9294C13.6148 13.8774 13.7185 13.7735 13.8222 13.7735H29.3311C29.4349 13.7735 29.5386 13.8774 29.5386 13.9294V22.8691C29.5386 22.9211 29.4349 23.0251 29.3311 23.0251H19.3204L16.7788 25.5718ZM36.8003 25.5718C36.8003 25.6238 36.6965 25.7278 36.5928 25.7278H34.1031L33.6363 28.3265L31.0947 25.7278H21.0839C20.9802 25.7278 20.8764 25.6238 20.8764 25.5718V24.3244H29.3311C30.0573 24.3244 30.6797 23.7007 30.6797 22.8691V16.4762H36.5928C36.6965 16.4762 36.8003 16.5802 36.8003 16.6321V25.5718V25.5718Z" fill="currentColor"/>
</svg>
