<svg viewBox="0 0 49 51" fill="none" xmlns="http://www.w3.org/2000/svg">
<path d="M43.4348 38.3808L47.1617 35.5692C48.6656 34.4577 49.254 32.4962 48.731 30.7308L47.3579 26.2192C47.2271 25.7615 47.2271 25.2385 47.3579 24.7808L48.731 20.2692C49.254 18.5038 48.6656 16.5423 47.1617 15.4308L43.4348 12.6192C43.0425 12.2923 42.781 11.9 42.5848 11.4423L41.0156 6.99615C40.4271 5.23077 38.7925 4.05385 36.8963 3.98846L32.254 3.92308C31.731 3.92308 31.2733 3.79231 30.881 3.46538L27.0233 0.784615C25.5194 -0.261538 23.4271 -0.261538 21.9233 0.784615L18.0656 3.46538C17.6733 3.72692 17.2156 3.92308 16.6925 3.92308L11.9848 3.98846C10.154 4.05385 8.51942 5.23077 7.86558 6.99615L6.29635 11.4423C6.16558 11.9 5.83865 12.2923 5.44635 12.6192L1.71942 15.4308C0.280961 16.5423 -0.372886 18.5038 0.215576 20.2692L1.58865 24.7808C1.71942 25.2385 1.71942 25.7615 1.58865 26.2192L0.215576 30.7308C-0.307501 32.4962 0.280961 34.4577 1.78481 35.5692L5.51173 38.3808C5.90404 38.7077 6.16558 39.1 6.36173 39.5577L7.93096 44.0038C8.51942 45.7692 10.154 46.9462 12.0502 47.0115L16.7579 47.0769C17.281 47.0769 17.7387 47.2077 18.131 47.5346L21.9887 50.2154C22.7079 50.7385 23.6233 51 24.5387 51C25.454 51 26.304 50.7385 27.0887 50.2154L30.9463 47.5346C31.3387 47.2731 31.7963 47.0769 32.3194 47.0769L37.0271 47.0115C38.8579 46.9462 40.4925 45.7692 41.1463 44.0038L42.7156 39.5577C42.7156 39.1 43.0425 38.7077 43.4348 38.3808ZM42.2579 36.8115C41.5387 37.3346 41.0156 38.0538 40.754 38.9038L39.1848 43.35C38.8579 44.3308 37.9425 44.9846 36.8963 44.9846L32.1887 45.1154C31.3387 45.1154 30.4887 45.3769 29.7694 45.9L25.9117 48.5808C25.0617 49.1692 23.9502 49.1692 23.1002 48.5808L19.2425 45.9C18.5233 45.3769 17.6733 45.1154 16.8233 45.1154L12.0502 44.9846C11.004 44.9846 10.0887 44.2654 9.76173 43.35L8.1925 38.9038C7.93096 38.0538 7.40788 37.3346 6.68865 36.8115L2.96173 34C2.11173 33.3462 1.78481 32.3 2.11173 31.3192L3.48481 26.8077C3.74635 25.9577 3.74635 25.0423 3.48481 24.2577L2.11173 19.7462C1.78481 18.7654 2.17711 17.6538 2.96173 17.0654L6.68865 14.2538C7.40788 13.7308 7.93096 13.0115 8.1925 12.1615L9.76173 7.71538C10.0887 6.73461 11.004 6.08077 12.0502 6.08077L16.7579 6.01538C17.6079 6.01538 18.4579 5.75385 19.1771 5.23077L23.0348 2.55C23.4271 2.28846 23.9502 2.09231 24.4733 2.09231C24.9963 2.09231 25.454 2.22308 25.9117 2.55L29.7694 5.23077C30.4887 5.75385 31.3387 6.01538 32.1887 6.01538L36.8963 6.08077C37.9425 6.08077 38.8579 6.8 39.1848 7.71538L40.754 12.1615C41.0156 13.0115 41.5387 13.7308 42.2579 14.2538L45.9848 17.0654C46.8348 17.7192 47.1617 18.7654 46.8348 19.7462L45.5271 24.1923C45.2656 25.0423 45.2656 25.9577 45.5271 26.7423L46.9002 31.2538C47.2271 32.2346 46.8348 33.3462 46.0502 33.9346L42.2579 36.8115Z" fill="currentColor"/>
<path d="M20.2235 8.30389C20.2889 8.30389 20.3542 8.30389 20.4196 8.30389C21.0081 8.17312 21.5965 8.04235 22.2504 7.97697C22.7735 7.91158 23.1658 7.38851 23.1004 6.86543C23.035 6.34235 22.5119 5.95005 21.9889 6.01543C21.335 6.08081 20.6158 6.21158 19.9619 6.34235C19.4389 6.47312 19.1119 6.9962 19.2427 7.51928C19.3735 8.04235 19.7658 8.30389 20.2235 8.30389Z" fill="currentColor"/>
<path d="M16.4965 41.2578C15.9734 40.9963 15.3849 40.6693 14.9272 40.3424C14.4695 40.0809 13.8811 40.1463 13.5542 40.604C13.2272 41.0617 13.358 41.6501 13.8157 41.977C14.4042 42.3693 14.9926 42.6963 15.5811 43.0232C15.7119 43.0886 15.908 43.154 16.0388 43.154C16.3657 43.154 16.758 42.9578 16.8888 42.6309C17.1503 42.1078 16.9542 41.5193 16.4965 41.2578Z" fill="currentColor"/>
<path d="M14.2733 10.854C14.4695 10.854 14.6656 10.7886 14.7964 10.7233C15.3195 10.3963 15.8425 10.0694 16.3656 9.80787C16.8233 9.54633 17.0195 8.95787 16.7579 8.50017C16.4964 8.04248 15.9079 7.84633 15.4502 8.10787C14.8618 8.43479 14.2733 8.76171 13.6848 9.15402C13.2271 9.48094 13.0964 10.0694 13.4233 10.5271C13.6195 10.7232 13.9464 10.854 14.2733 10.854Z" fill="currentColor"/>
<path d="M22.3158 43.023C21.7274 42.9576 21.0735 42.8268 20.4851 42.6961C19.962 42.5653 19.4389 42.8922 19.3081 43.4153C19.1774 43.9384 19.5043 44.4615 20.0274 44.5922C20.6812 44.723 21.4004 44.8538 22.0543 44.9191C22.1197 44.9191 22.1197 44.9191 22.1851 44.9191C22.6427 44.9191 23.1004 44.5268 23.1658 44.0691C23.2312 43.6115 22.9043 43.0884 22.3158 43.023Z" fill="currentColor"/>
<path d="M7.6038 30.6654C7.47303 30.1424 6.88456 29.8808 6.36149 30.0116C5.83841 30.1424 5.57687 30.7308 5.70764 31.2539C5.90379 31.9077 6.16533 32.5616 6.42687 33.1501C6.55764 33.5424 6.94995 33.7385 7.34226 33.7385C7.47303 33.7385 7.60379 33.7385 7.73456 33.6731C8.25764 33.477 8.4538 32.8885 8.25764 32.3654C7.9961 31.8424 7.79995 31.2539 7.6038 30.6654Z" fill="currentColor"/>
<path d="M6.36183 21.054C6.42722 21.054 6.55799 21.1194 6.62337 21.1194C7.01568 21.1194 7.40799 20.8578 7.53876 20.4001C7.73491 19.8117 7.93107 19.2232 8.1926 18.6347C8.38876 18.1117 8.1926 17.5886 7.66953 17.3271C7.14645 17.1309 6.62337 17.3271 6.36183 17.8501C6.1003 18.504 5.83876 19.1578 5.6426 19.8117C5.51184 20.3347 5.83876 20.8578 6.36183 21.054Z" fill="currentColor"/>
<path d="M26.5656 7.97697C27.1541 8.04235 27.8079 8.17312 28.3964 8.30389C28.4618 8.30389 28.5272 8.30389 28.5925 8.30389C29.0502 8.30389 29.4425 7.97697 29.5733 7.51928C29.7041 6.9962 29.3772 6.47312 28.8541 6.34235C28.2002 6.21158 27.481 6.08081 26.8272 6.01543C26.3041 5.95005 25.781 6.34235 25.7156 6.86543C25.6502 7.38851 26.0425 7.91158 26.5656 7.97697Z" fill="currentColor"/>
<path d="M10.4156 36.1578C10.0887 35.7001 9.43488 35.6347 9.04257 35.9617C8.58488 36.2886 8.51949 36.877 8.84642 37.3347C9.23872 37.8578 9.69642 38.3809 10.1541 38.904C10.3503 39.1001 10.6118 39.2309 10.8733 39.2309C11.1349 39.2309 11.331 39.1655 11.5272 38.9693C11.9195 38.577 11.9195 37.9886 11.5926 37.5963C11.1349 37.1386 10.7426 36.6155 10.4156 36.1578Z" fill="currentColor"/>
<path d="M8.97714 15.1038C9.17329 15.2346 9.36945 15.2999 9.5656 15.2999C9.89253 15.2999 10.1541 15.1692 10.3502 14.9076C10.7425 14.4499 11.1348 13.9269 11.5271 13.4692C11.9194 13.0769 11.8541 12.423 11.4618 12.0961C11.0694 11.7038 10.4156 11.7692 10.0887 12.1615C9.63099 12.6846 9.17329 13.2076 8.78099 13.7307C8.45406 14.1884 8.51945 14.7769 8.97714 15.1038Z" fill="currentColor"/>
<path d="M5.90406 27.4617C6.42714 27.4617 6.88483 26.9386 6.81945 26.4155C6.81945 26.0886 6.81945 25.7617 6.81945 25.5002C6.81945 25.2386 6.81945 24.9117 6.81945 24.6502C6.81945 24.1271 6.42714 23.6694 5.90406 23.604C5.38099 23.604 4.92329 23.9963 4.85791 24.5194C4.85791 24.8463 4.85791 25.1732 4.85791 25.5002C4.85791 25.8271 4.85791 26.2194 4.85791 26.5463L5.83868 26.4809L4.85791 26.5463C4.92329 27.0694 5.3156 27.4617 5.90406 27.4617Z" fill="currentColor"/>
<path d="M41.3427 20.2693C41.4734 20.6616 41.8657 20.9885 42.2581 20.9885C42.3234 20.9885 42.4542 20.9885 42.5196 20.9232C43.0427 20.7924 43.3042 20.2039 43.1734 19.6809C42.9773 19.027 42.7158 18.3732 42.4542 17.7847C42.2581 17.2616 41.6696 17.0655 41.1465 17.2616C40.6234 17.4578 40.4273 18.0462 40.6234 18.5693C40.9504 19.0924 41.1465 19.6809 41.3427 20.2693Z" fill="currentColor"/>
<path d="M28.4618 42.6963C27.8734 42.8271 27.2849 42.9579 26.6311 43.0233C26.108 43.0887 25.7157 43.5463 25.7811 44.1348C25.8464 44.6579 26.2387 44.9848 26.7618 44.9848C26.8272 44.9848 26.8272 44.9848 26.8926 44.9848C27.5464 44.9194 28.2657 44.7887 28.9195 44.6579C29.4426 44.5271 29.7695 44.004 29.6387 43.481C29.508 42.8925 28.9849 42.5656 28.4618 42.6963Z" fill="currentColor"/>
<path d="M44.0884 24.3884C44.0884 23.8653 43.6307 23.4077 43.0422 23.473C42.5192 23.473 42.0615 23.9961 42.1269 24.5192V24.5846C42.1269 24.9115 42.1269 25.2384 42.1269 25.5C42.1269 25.8269 42.1269 26.0884 42.1269 26.4154C42.1269 26.9384 42.5192 27.3961 43.0422 27.4615H43.1076C43.6307 27.4615 44.0884 27.0692 44.0884 26.5461C44.0884 26.2192 44.0884 25.8923 44.0884 25.5653C44.0884 25.2384 44.0884 24.8461 44.0884 24.5192V24.3884Z" fill="currentColor"/>
<path d="M39.9693 35.896C39.5116 35.5691 38.9232 35.6344 38.5963 36.0921C38.2039 36.6152 37.8116 37.0729 37.4193 37.5306C37.027 37.9229 37.0924 38.5767 37.4847 38.9037C37.6809 39.0998 37.9424 39.1652 38.1386 39.1652C38.4001 39.1652 38.6616 39.0344 38.8578 38.8383C39.3155 38.3152 39.7732 37.7921 40.1655 37.2691C40.4924 36.8767 40.3616 36.2229 39.9693 35.896Z" fill="currentColor"/>
<path d="M42.585 30.0116C42.0619 29.8808 41.5389 30.1424 41.3427 30.6654C41.1466 31.2539 40.9504 31.8424 40.6889 32.4308C40.4927 32.9539 40.6889 33.477 41.2119 33.7385C41.3427 33.8039 41.4735 33.8039 41.6043 33.8039C41.9966 33.8039 42.3235 33.6078 42.5196 33.2154C42.7812 32.5616 43.0427 31.9077 43.2389 31.2539C43.3696 30.7308 43.1081 30.1424 42.585 30.0116Z" fill="currentColor"/>
<path d="M32.45 9.74225C32.9731 10.0038 33.5616 10.3307 34.0847 10.6576C34.2808 10.7884 34.4116 10.7884 34.6077 10.7884C34.9347 10.7884 35.2616 10.6576 35.4577 10.3307C35.7847 9.87302 35.5885 9.28456 35.1962 8.95764C34.6077 8.56533 34.0193 8.23841 33.4308 7.91148C32.9731 7.64995 32.3847 7.8461 32.1231 8.36918C31.7308 8.89225 31.927 9.48071 32.45 9.74225Z" fill="currentColor"/>
<path d="M38.5307 14.8423C38.7269 15.1039 38.9884 15.2346 39.3153 15.2346C39.5115 15.2346 39.7076 15.1693 39.9038 15.0385C40.3615 14.7116 40.4269 14.1231 40.0999 13.6654C39.7076 13.1423 39.2499 12.6193 38.7923 12.0962C38.3999 11.7039 37.8115 11.7039 37.4192 12.0308C37.0269 12.4231 37.0269 13.0116 37.3538 13.4039C37.7461 13.8616 38.1384 14.3193 38.5307 14.8423Z" fill="currentColor"/>
<path d="M34.0851 40.2768C33.562 40.6037 33.0389 40.9307 32.5159 41.1922C32.0582 41.4538 31.862 42.0422 32.0582 42.4999C32.2543 42.8268 32.5812 43.023 32.9082 43.023C33.0389 43.023 33.2351 42.9576 33.3659 42.8922C33.9543 42.5653 34.5428 42.2384 35.1312 41.8461C35.5889 41.5191 35.7197 40.9307 35.3928 40.473C35.1312 40.1461 34.5428 40.0153 34.0851 40.2768Z" fill="currentColor"/>
<path d="M15.0009 22.9509C15.0009 24.5742 15.0009 26.1914 15.0009 27.8147C15.0009 28.309 15.4242 28.7301 15.9211 28.7301C17.6877 28.7301 19.4604 28.7301 21.227 28.7301C21.4785 28.7301 21.7362 28.7301 21.9877 28.7301C21.681 28.4249 21.3742 28.1198 21.0675 27.8147C21.0675 29.5722 21.0675 31.3359 21.0675 33.0934C21.0675 33.3437 21.0675 33.6 21.0675 33.8502C21.0675 34.3445 21.4908 34.7656 21.9877 34.7656C23.6193 34.7656 25.251 34.7656 26.8765 34.7656C27.3734 34.7656 27.7966 34.3445 27.7966 33.8502C27.7966 32.0926 27.7966 30.329 27.7966 28.5714C27.7966 28.3212 27.7966 28.0649 27.7966 27.8147C27.4899 28.1198 27.1832 28.4249 26.8765 28.7301C28.6431 28.7301 30.4159 28.7301 32.1825 28.7301C32.434 28.7301 32.6916 28.7301 32.9431 28.7301C33.44 28.7301 33.8632 28.309 33.8632 27.8147C33.8632 26.1914 33.8632 24.5742 33.8632 22.9509C33.8632 22.4566 33.44 22.0355 32.9431 22.0355C31.1765 22.0355 29.4038 22.0355 27.6371 22.0355C27.3856 22.0355 27.128 22.0355 26.8765 22.0355C27.1832 22.3406 27.4899 22.6458 27.7966 22.9509C27.7966 21.1933 27.7966 19.4297 27.7966 17.6721C27.7966 17.4219 27.7966 17.1656 27.7966 16.9154C27.7966 16.4211 27.3734 16 26.8765 16C25.2449 16 23.6132 16 21.9877 16C21.4908 16 21.0675 16.4211 21.0675 16.9154C21.0675 18.6729 21.0675 20.4366 21.0675 22.1942C21.0675 22.4444 21.0675 22.7007 21.0675 22.9509C21.3742 22.6458 21.681 22.3406 21.9877 22.0355C20.221 22.0355 18.4483 22.0355 16.6817 22.0355C16.4302 22.0355 16.1725 22.0355 15.9211 22.0355C15.4365 22.0355 14.9764 22.4566 15.0009 22.9509C15.0255 23.4452 15.4058 23.8663 15.9211 23.8663C17.6877 23.8663 19.4604 23.8663 21.227 23.8663C21.4785 23.8663 21.7362 23.8663 21.9877 23.8663C22.4845 23.8663 22.9078 23.4452 22.9078 22.9509C22.9078 21.1933 22.9078 19.4297 22.9078 17.6721C22.9078 17.4219 22.9078 17.1656 22.9078 16.9154C22.6011 17.2205 22.2944 17.5257 21.9877 17.8308C23.6193 17.8308 25.251 17.8308 26.8765 17.8308C26.5698 17.5257 26.2631 17.2205 25.9564 16.9154C25.9564 18.6729 25.9564 20.4366 25.9564 22.1942C25.9564 22.4444 25.9564 22.7007 25.9564 22.9509C25.9564 23.4452 26.3797 23.8663 26.8765 23.8663C28.6431 23.8663 30.4159 23.8663 32.1825 23.8663C32.434 23.8663 32.6916 23.8663 32.9431 23.8663C32.6364 23.5612 32.3297 23.256 32.023 22.9509C32.023 24.5742 32.023 26.1914 32.023 27.8147C32.3297 27.5095 32.6364 27.2044 32.9431 26.8993C31.1765 26.8993 29.4038 26.8993 27.6371 26.8993C27.3856 26.8993 27.128 26.8993 26.8765 26.8993C26.3797 26.8993 25.9564 27.3204 25.9564 27.8147C25.9564 29.5722 25.9564 31.3359 25.9564 33.0934C25.9564 33.3437 25.9564 33.6 25.9564 33.8502C26.2631 33.545 26.5698 33.2399 26.8765 32.9348C25.2449 32.9348 23.6132 32.9348 21.9877 32.9348C22.2944 33.2399 22.6011 33.545 22.9078 33.8502C22.9078 32.0926 22.9078 30.329 22.9078 28.5714C22.9078 28.3212 22.9078 28.0649 22.9078 27.8147C22.9078 27.3204 22.4845 26.8993 21.9877 26.8993C20.221 26.8993 18.4483 26.8993 16.6817 26.8993C16.4302 26.8993 16.1725 26.8993 15.9211 26.8993C16.2278 27.2044 16.5345 27.5095 16.8412 27.8147C16.8412 26.1914 16.8412 24.5742 16.8412 22.9509C16.8412 22.4749 16.4179 22.0111 15.9211 22.0355C15.4242 22.0599 15.0009 22.4383 15.0009 22.9509Z" fill="currentColor"/>
</svg>
