<svg viewBox="0 0 35 51" fill="none" xmlns="http://www.w3.org/2000/svg">
  <path d="M18.8153 26.7671C19.4468 26.7671 19.9588 26.2552 19.9588 25.6237C19.9588 24.9922 19.4468 24.4802 18.8153 24.4802C18.1838 24.4802 17.6719 24.9922 17.6719 25.6237C17.6719 26.2552 18.1838 26.7671 18.8153 26.7671Z" fill="currentColor"/>
  <path d="M23.3368 26.7671C23.9683 26.7671 24.4803 26.2552 24.4803 25.6237C24.4803 24.9922 23.9683 24.4802 23.3368 24.4802C22.7053 24.4802 22.1934 24.9922 22.1934 25.6237C22.1934 26.2552 22.7053 26.7671 23.3368 26.7671Z" fill="currentColor"/>
  <path d="M27.7543 26.7671C28.3858 26.7671 28.8977 26.2552 28.8977 25.6237C28.8977 24.9922 28.3858 24.4802 27.7543 24.4802C27.1228 24.4802 26.6108 24.9922 26.6108 25.6237C26.6108 26.2552 27.1228 26.7671 27.7543 26.7671Z" fill="currentColor"/>
  <path d="M14.2408 47.7651C15.1594 47.7651 15.904 47.0205 15.904 46.1019C15.904 45.1834 15.1594 44.4387 14.2408 44.4387C13.3223 44.4387 12.5776 45.1834 12.5776 46.1019C12.5776 47.0205 13.3223 47.7651 14.2408 47.7651Z" fill="currentColor"/>
  <path d="M11.1742 3.58618C10.8104 3.58618 10.4985 3.89803 10.4985 4.26186C10.4985 4.62568 10.8104 4.93753 11.1742 4.93753H17.2553C17.6191 4.93753 17.931 4.62568 17.931 4.26186C17.931 3.89803 17.6191 3.58618 17.2553 3.58618H11.1742Z" fill="currentColor"/>
  <path d="M33.1601 18.3472H28.4823V4.26195C28.4823 1.92308 26.5593 0 24.2204 0H4.26195C1.92308 0 0 1.92308 0 4.26195V46.3617C0 48.7006 1.92308 50.6237 4.26195 50.6237H24.2204C26.5593 50.6237 28.4823 48.7006 28.4823 46.3617V33.264H33.1601C34.0956 33.264 34.8753 32.4324 34.8753 31.4449V20.1663C34.8753 19.1788 34.0956 18.3472 33.1601 18.3472ZM1.61123 4.26195C1.61123 2.80665 2.80665 1.61123 4.26195 1.61123H24.2204C25.6757 1.61123 26.8711 2.80665 26.8711 4.26195V6.65281H1.61123V4.26195ZM26.8711 46.3098C26.8711 47.7651 25.6757 48.9605 24.2204 48.9605H4.26195C2.80665 48.9605 1.61123 47.7651 1.61123 46.3098V43.3472H26.8711V46.3098ZM26.8711 41.7879H1.61123V8.26403H26.8711V18.3472H13.5655C12.6299 18.3472 11.8503 19.1788 11.8503 20.1663V31.4449C11.8503 32.4324 12.6299 33.264 13.5655 33.264H15.5405L16.3721 37.9938L21.0499 33.264H26.8711V41.7879ZM33.42 31.4449C33.42 31.5489 33.316 31.6528 33.1601 31.6528H20.4782L17.3077 34.8753L16.736 31.6008H13.5655C13.4096 31.6008 13.3056 31.4969 13.3056 31.3929V20.1663C13.3056 20.0624 13.4096 19.9584 13.5655 19.9584H33.1601C33.316 19.9584 33.42 20.0624 33.42 20.1663V31.4449Z" fill="currentColor"/>
</svg>
