<svg viewBox="0 0 50 36" fill="none" xmlns="http://www.w3.org/2000/svg">
  <path d="M5.14562 5.76927C5.80584 5.76927 6.34105 5.23406 6.34105 4.57384C6.34105 3.91363 5.80584 3.37842 5.14562 3.37842C4.48541 3.37842 3.9502 3.91363 3.9502 4.57384C3.9502 5.23406 4.48541 5.76927 5.14562 5.76927Z" fill="currentColor"/>
  <path d="M9.09533 5.76927C9.75554 5.76927 10.2908 5.23406 10.2908 4.57384C10.2908 3.91363 9.75554 3.37842 9.09533 3.37842C8.43511 3.37842 7.8999 3.91363 7.8999 4.57384C7.8999 5.23406 8.43511 5.76927 9.09533 5.76927Z" fill="currentColor"/>
  <path d="M13.0455 5.76927C13.7057 5.76927 14.241 5.23406 14.241 4.57384C14.241 3.91363 13.7057 3.37842 13.0455 3.37842C12.3853 3.37842 11.8501 3.91363 11.8501 4.57384C11.8501 5.23406 12.3853 5.76927 13.0455 5.76927Z" fill="currentColor"/>
  <path d="M45.3742 0H4.5738C2.079 0 0 2.02703 0 4.5738V31.237C0 33.7318 2.02703 35.8108 4.5738 35.8108H45.4262C47.921 35.8108 50 33.7838 50 31.237V4.5738C49.948 2.079 47.921 0 45.3742 0ZM48.2848 31.237C48.2848 32.8482 46.9854 34.1476 45.3742 34.1476H4.52183C2.9106 34.1476 1.61123 32.8482 1.61123 31.237V4.5738C1.61123 2.96258 2.9106 1.6632 4.52183 1.6632H45.3742C46.9854 1.6632 48.2848 2.96258 48.2848 4.5738V31.237Z" fill="currentColor"/>
  <path d="M48.7006 8.31587H1.40332C1.40332 8.31587 1.40344 8.07598 1.40344 7.79612C1.40344 7.51625 1.40332 7.27637 1.40332 7.27637H48.7006C48.7006 7.27637 48.7006 7.51625 48.7006 7.79612C48.7006 8.07598 48.7006 8.31587 48.7006 8.31587Z" fill="currentColor"/>
  <path d="M38.8114 23.1287H23.7659C23.2827 23.1287 22.8687 22.8168 22.8687 22.453C22.8687 22.0892 23.2827 21.7773 23.7659 21.7773H38.8114C39.2945 21.7773 39.7086 22.0892 39.7086 22.453C39.7086 22.8168 39.2945 23.1287 38.8114 23.1287Z" fill="currentColor"/>
  <path d="M38.8119 27.9107H23.7663C23.2832 27.9107 22.8691 27.5988 22.8691 27.235C22.8691 26.8712 23.2832 26.5593 23.7663 26.5593H38.8119C39.295 26.5593 39.7091 26.8712 39.7091 27.235C39.7091 27.5988 39.295 27.9107 38.8119 27.9107Z" fill="currentColor"/>
  <path d="M38.8114 27.8587H23.7659C23.2827 27.8587 22.8687 27.5468 22.8687 27.183C22.8687 26.8192 23.2827 26.5073 23.7659 26.5073H38.8114C39.2945 26.5073 39.7086 26.8192 39.7086 27.183C39.7086 27.5468 39.2945 27.8587 38.8114 27.8587Z" fill="currentColor"/>
  <path d="M38.8114 30.9771H23.7659C23.2827 30.9771 22.8687 30.6652 22.8687 30.3014C22.8687 29.9376 23.2827 29.6257 23.7659 29.6257H38.8114C39.2945 29.6257 39.7086 29.9376 39.7086 30.3014C39.7086 30.6652 39.2945 30.9771 38.8114 30.9771Z" fill="currentColor"/>
  <path d="M38.8114 19.9583H23.7659C23.2827 19.9583 22.8687 19.6464 22.8687 19.2826C22.8687 18.9188 23.2827 18.6069 23.7659 18.6069H38.8114C39.2945 18.6069 39.7086 18.9188 39.7086 19.2826C39.7086 19.6464 39.2945 19.9583 38.8114 19.9583Z" fill="currentColor"/>
  <rect x="9.87473" y="10.9148" width="29.106" height="4.158" stroke="currentColor" stroke-width="1.0395"/>
  <rect x="9.87473" y="18.7112" width="9.87526" height="5.1975" stroke="currentColor" stroke-width="1.0395"/>
</svg>
