<svg viewBox="0 0 309 168" fill="none" xmlns="http://www.w3.org/2000/svg">
  <path d="M133.6 58.5C134.2 58.5 134.7 59 134.7 59.6V106.6C134.7 107.1 134.3 107.6 133.6 107.6H120.3C119.7 107.6 119.3 107.1 119.3 106.6V90.7H109.3V106.6C109.3 107.1 108.9 107.6 108.2 107.6H95C94.5 107.6 94 107.1 94 106.6V59.6C94 59 94.5 58.5 95 58.5H108.3C108.9 58.5 109.4 59 109.4 59.6V78.2H119.4V59.6C119.4 59 119.8 58.5 120.4 58.5H133.6Z" fill="currentColor"/>
  <path d="M174.9 103.6C175 104.1 174.9 104.4 174.4 104.7C170.6 107.2 165.2 108.7 159.7 108.7C147.1 108.7 138.7 100.5 138.7 88.2C138.7 75.8 146.9 67.6 159.3 67.6C171.1 67.6 178.1 75.2 178.1 88.1C178.1 89.2 178 90.2 177.8 91.3C177.7 91.9 177.4 92.2 176.7 92.2H153.9C153.9 92.2 153.9 96.7 159.9 96.7C163.5 96.7 167.6 95.8 170.8 94.4C171.3 94.2 171.7 94.5 171.9 95L174.9 103.6ZM163.9 84.6C163.9 81.5 162 79.4 159.1 79.4C155.9 79.4 153.8 81.5 153.8 84.6H163.9Z" fill="currentColor"/>
  <path d="M184.5 72.9C184.3 72.4 184.4 71.9 184.9 71.5C189 68.9 194.6 67.4 200.3 67.4C212.6 67.4 218.3 73.9 218.3 88V106.4C218.3 107 217.8 107.5 217.2 107.5H208.2C207.6 107.5 207.1 107 207.1 106.4L206.6 104.5C204.3 107 199.6 108.6 194.4 108.6C186.2 108.6 180.8 103.3 180.9 95.5C181 88.5 186.4 83.9 194.4 83.9C198.5 83.9 202.2 85.4 203.6 87.7V84.7C203.6 81.6 201.4 79.7 198.1 79.7C195.3 79.7 191.9 80.6 189.6 82C189.2 82.2 188.8 81.9 188.5 81.4L184.5 72.9ZM203.7 94.8C202.5 93.6 201.3 93 199.8 93C198 93 196.8 94 196.8 95.6C196.8 97.2 198 98.2 199.8 98.2C201.3 98.2 202.5 97.6 203.7 96.4V94.8Z" fill="currentColor"/>
  <path d="M237 56C237.6 56 238.1 56.5 238.1 57V106.5C238.1 107.1 237.6 107.6 237 107.6H224.5C223.9 107.6 223.4 107.1 223.4 106.5V57C223.4 56.5 223.9 56 224.5 56H237Z" fill="currentColor"/>
  <path d="M266.4 68.4999C267 68.4999 267.5 68.8999 267.5 69.4999L266.7 76.3999C266.6 76.9999 266.2 77.4999 265.6 77.4999H261V106.6C261 107.2 260.5 107.7 259.9 107.7H247.4C246.8 107.7 246.3 107.2 246.3 106.6V77.3999H242.2C241.7 77.3999 241.2 76.9999 241.2 76.3999V69.4999C241.2 68.8999 241.7 68.3999 242.2 68.3999H246.3V60.5999C246.3 60.0999 246.8 59.6999 247.4 59.5999L259.9 58.3999C260.5 58.2999 261 58.8999 261 59.3999V68.3999H266.4V68.4999Z" fill="currentColor"/>
  <path d="M284.3 56C284.9 56 285.4 56.5 285.4 57.1V71.5C287.3 69 290.7 67.5 294.6 67.5C303.1 67.5 308.2 72.3 308.2 80.6V106.6C308.2 107.2 307.7 107.7 307.1 107.7H294.6C294 107.7 293.5 107.2 293.6 106.6V84.2C293.6 81.4 292.3 79.7 290.1 79.7C286 79.7 285.4 83.7 285.4 83.7V106.5C285.4 107.1 284.9 107.6 284.3 107.6H271.8C271.2 107.6 270.7 107.1 270.7 106.5V57.1C270.7 56.5 271.2 56 271.8 56H284.3Z" fill="currentColor"/>
  <path d="M55.2 2.5C55.8 2.5 56.2 3 56.2 3.6V50.6C56.2 51.1 55.8 51.6 55.2 51.6H42C41.4 51.6 40.9 51.1 40.9 50.6V29.7L33.7 50.5C33.5 51.1 32.6 51.6 31.9 51.6H24.1C23.5 51.6 22.5 51.1 22.3 50.5L15.1 29.7V50.6C15.1 51.1 14.6 51.6 14 51.6H1C0.4 51.6 0 51.1 0 50.6V3.6C0 3 0.4 2.5 1 2.5H15.9C16.8 2.5 17.9 3.1 18.3 3.9L28.1 31.1L37.9 3.9C38.3 3.1 39.4 2.5 40.3 2.5H55.2Z" fill="currentColor"/>
  <path d="M96.3001 47.6C96.4001 48.1 96.3001 48.4 95.8001 48.7C92.0001 51.2 86.6001 52.7 81.1001 52.7C68.5001 52.7 60.1001 44.5 60.1001 32.2C60.1001 19.8 68.3001 11.6 80.7001 11.6C92.5001 11.6 99.5001 19.2 99.5001 32.1C99.5001 33.2 99.4001 34.2 99.2001 35.3C99.1001 35.9 98.8001 36.2 98.1001 36.2H75.4001C75.4001 36.2 75.4001 40.7 81.4001 40.7C85.0001 40.7 89.1001 39.8 92.3001 38.4C92.8001 38.2 93.2001 38.5 93.4001 39L96.3001 47.6ZM85.4001 28.6C85.4001 25.5 83.5001 23.4 80.6001 23.4C77.4001 23.4 75.3001 25.5 75.3001 28.6H85.4001Z" fill="currentColor"/>
  <path d="M114.5 15.4C116.8 12.9 121.6 11.4 125.9 11.4C135.6 11.4 140.8 15.9 140.8 27V50.5C140.8 51.1 140.3 51.6 139.7 51.6H127.2C126.6 51.6 126.1 51.1 126.2 50.5V29.2C126.2 26.4 124.9 24.7 122.7 24.7C118.6 24.7 118 28.7 118 28.7V50.5C118 51.1 117.5 51.6 116.9 51.6H104.4C103.8 51.6 103.3 51.1 103.3 50.5V13.5C103.3 12.9 103.7 12.5 104.3 12.5H112.3C112.8 12.5 113.2 12.7 113.4 13.2L114.5 15.4Z" fill="currentColor"/>
  <path d="M168.8 12.4C169.4 12.4 169.9 12.8 169.9 13.4L169.1 20.3C169 20.9 168.6 21.4 168 21.4H163.4V50.5C163.4 51.1 162.9 51.6 162.3 51.6H149.8C149.2 51.6 148.7 51.1 148.7 50.5V21.4H144.6C144.1 21.4 143.6 21 143.6 20.4V13.5C143.6 12.9 144.1 12.4 144.6 12.4H148.7V4.70004C148.7 4.20004 149.2 3.80004 149.8 3.70004L162.3 2.50004C162.9 2.40004 163.4 3.00004 163.4 3.50004V12.5H168.8V12.4Z" fill="currentColor"/>
  <path d="M173.6 16.9C173.4 16.4 173.5 15.9 174 15.5C178.1 12.9 183.7 11.4 189.4 11.4C201.7 11.4 207.4 17.9 207.4 32V50.4C207.4 51 206.9 51.5 206.3 51.5H197.3C196.7 51.5 196.2 51 196.2 50.4L195.7 48.5C193.4 51 188.7 52.6 183.5 52.6C175.3 52.6 169.9 47.3 170 39.5C170.1 32.5 175.5 27.9 183.5 27.9C187.6 27.9 191.3 29.4 192.7 31.7V28.7C192.7 25.6 190.5 23.7 187.2 23.7C184.4 23.7 181 24.6 178.7 26C178.3 26.2 177.9 25.9 177.6 25.4L173.6 16.9ZM192.7 38.8C191.5 37.6 190.3 37 188.8 37C187 37 185.8 38 185.8 39.6C185.8 41.2 187 42.2 188.8 42.2C190.3 42.2 191.5 41.6 192.7 40.4V38.8Z" fill="currentColor"/>
  <path d="M226 0C226.6 0 227.1 0.5 227.1 1V50.5C227.1 51.1 226.6 51.6 226 51.6H213.5C212.9 51.6 212.4 51.1 212.4 50.5V1C212.4 0.5 212.9 0 213.5 0H226Z" fill="currentColor"/>
  <path d="M147.6 166.7C147.7 167.1 147.4 167.6 146.8 167.6H132.7C132.1 167.6 131.5 167.2 131.4 166.7L130.4 159.2H117L113.7 166.7C113.3 167.3 112.7 167.6 112.1 167.6H97.9999C97.3999 167.6 97.1999 167.1 97.4999 166.7L121 119.5C121.3 119.1 122.1 118.6 122.9 118.6H137.4C138.1 118.6 138.8 119.1 139 119.5L147.6 166.7ZM127.5 135.6L121.5 149.1H129.2L127.5 135.6Z" fill="currentColor"/>
  <path d="M178.8 154.8C179.3 154.8 179.7 155.2 179.6 155.8L176.9 166.6C176.7 167.1 176.2 167.6 175.6 167.6H149.9C149.3 167.6 148.9 167.1 149 166.6L156.4 119.6C156.5 119 157.1 118.5 157.6 118.5H170.2C170.8 118.5 171.2 119 171.1 119.6L165.5 154.8H178.8Z" fill="currentColor"/>
  <path d="M210.7 154.8C211.2 154.8 211.6 155.2 211.5 155.8L208.8 166.6C208.6 167.1 208.1 167.6 207.5 167.6H181.8C181.2 167.6 180.8 167.1 180.9 166.6L188.3 119.6C188.4 119 189 118.5 189.5 118.5H202.1C202.7 118.5 203.1 119 203 119.6L197.4 154.8H210.7Z" fill="currentColor"/>
  <path d="M63.0001 119C63.2001 119 63.4001 119.2 63.4001 119.4V123.3C63.4001 123.5 63.2001 123.7 63.0001 123.7H56.5001V126H61.6001C61.8001 126 62.0001 126.2 61.9001 126.3L61.5001 129.9C61.5001 130.1 61.3001 130.2 61.1001 130.2H56.4001V136.3C56.4001 136.5 56.2001 136.7 56.0001 136.7H51.5001C51.3001 136.7 51.1001 136.5 51.1001 136.3V119.4C51.1001 119.2 51.3001 119 51.5001 119H63.0001Z" fill="currentColor"/>
  <path d="M73.3002 137C67.8002 137 64.2002 133.3 64.2002 127.8C64.2002 122.2 67.8002 118.6 73.3002 118.6C78.8002 118.6 82.4002 122.3 82.4002 127.8C82.4002 133.3 78.8002 137 73.3002 137ZM73.3002 123.7C71.2002 123.7 69.8002 125.3 69.8002 127.8C69.8002 130.2 71.2002 131.9 73.3002 131.9C75.4002 131.9 76.8002 130.3 76.8002 127.8C76.8002 125.4 75.4002 123.7 73.3002 123.7Z" fill="currentColor"/>
  <path d="M98.6001 136.2C98.7001 136.4 98.5001 136.6 98.3001 136.6H92.8001C92.5001 136.6 92.3001 136.4 92.2001 136.2L89.5001 130.6H89.2001V136.2C89.2001 136.4 89.0001 136.6 88.8001 136.6H84.3001C84.1001 136.6 83.9001 136.4 83.9001 136.2V119.3C83.9001 119.1 84.1001 118.9 84.3001 118.9H91.1001C95.0001 118.9 97.7001 121.2 97.7001 124.7C97.7001 126.7 96.5001 128.8 94.6001 129.6L98.6001 136.2ZM90.8001 126.3C91.7001 126.3 92.3001 125.8 92.3001 124.9C92.3001 124 91.7001 123.5 90.8001 123.5H89.3001V126.2H90.8001V126.3Z" fill="currentColor"/>
</svg>
