<svg viewBox="0 0 270 61" fill="none" xmlns="http://www.w3.org/2000/svg">
<path d="M75.15 32.7385C75.4875 32.7385 75.7687 33.0183 75.7687 33.3541V59.6569C75.7687 59.9367 75.5438 60.2165 75.15 60.2165H67.6688C67.3313 60.2165 67.1063 59.9367 67.1063 59.6569V50.7587H61.4813V59.6569C61.4813 59.9367 61.2562 60.2165 60.8625 60.2165H53.4375C53.1562 60.2165 52.875 59.9367 52.875 59.6569V33.3541C52.875 33.0183 53.1562 32.7385 53.4375 32.7385H60.9188C61.2563 32.7385 61.5375 33.0183 61.5375 33.3541V43.7633H67.1625V33.3541C67.1625 33.0183 67.3875 32.7385 67.725 32.7385H75.15Z" fill="currentColor"/>
<path d="M98.3813 57.978C98.4375 58.2578 98.3813 58.4257 98.1 58.5936C95.9625 59.9927 92.925 60.8321 89.8313 60.8321C82.7438 60.8321 78.0188 56.2431 78.0188 49.3596C78.0188 42.4202 82.6313 37.8312 89.6063 37.8312C96.2438 37.8312 100.181 42.0844 100.181 49.3037C100.181 49.9193 100.125 50.4789 100.013 51.0945C99.9563 51.4303 99.7875 51.5982 99.3938 51.5982H86.5688C86.5688 51.5982 86.5688 54.1165 89.9438 54.1165C91.9688 54.1165 94.2751 53.6129 96.0751 52.8294C96.3563 52.7174 96.5813 52.8853 96.6938 53.1651L98.3813 57.978ZM92.1938 47.345C92.1938 45.6101 91.1251 44.4349 89.4938 44.4349C87.6938 44.4349 86.5126 45.6101 86.5126 47.345H92.1938Z" fill="currentColor"/>
<path d="M103.781 40.7972C103.669 40.5174 103.725 40.2376 104.006 40.0137C106.313 38.5587 109.463 37.7193 112.669 37.7193C119.588 37.7193 122.794 41.3569 122.794 49.2477V59.5449C122.794 59.8807 122.513 60.1605 122.175 60.1605H117.113C116.775 60.1605 116.494 59.8807 116.494 59.5449L116.213 58.4816C114.919 59.8807 112.275 60.7761 109.35 60.7761C104.738 60.7761 101.7 57.8101 101.756 53.4449C101.813 49.5275 104.85 46.9532 109.35 46.9532C111.656 46.9532 113.738 47.7926 114.525 49.0798V47.4009C114.525 45.666 113.288 44.6027 111.431 44.6027C109.856 44.6027 107.944 45.1064 106.65 45.8899C106.425 46.0018 106.2 45.8339 106.031 45.5541L103.781 40.7972ZM114.581 53.0532C113.906 52.3816 113.231 52.0459 112.388 52.0459C111.375 52.0459 110.7 52.6055 110.7 53.5009C110.7 54.3963 111.375 54.9559 112.388 54.9559C113.231 54.9559 113.906 54.6202 114.581 53.9486V53.0532Z" fill="currentColor"/>
<path d="M133.313 31.3394C133.65 31.3394 133.931 31.6193 133.931 31.8991V59.6009C133.931 59.9367 133.65 60.2165 133.313 60.2165H126.281C125.944 60.2165 125.663 59.9367 125.663 59.6009V31.8991C125.663 31.6193 125.944 31.3394 126.281 31.3394H133.313Z" fill="currentColor"/>
<path d="M149.85 38.3349C150.188 38.3349 150.469 38.5587 150.469 38.8945L150.019 42.756C149.963 43.0917 149.738 43.3716 149.4 43.3716H146.813V59.6569C146.813 59.9927 146.531 60.2725 146.194 60.2725H139.163C138.825 60.2725 138.544 59.9927 138.544 59.6569V43.3156H136.238C135.956 43.3156 135.675 43.0917 135.675 42.756V38.8945C135.675 38.5587 135.956 38.2789 136.238 38.2789H138.544V33.9138C138.544 33.6339 138.825 33.4101 139.163 33.3541L146.194 32.6826C146.531 32.6266 146.813 32.9624 146.813 33.2422V38.2789H149.85V38.3349Z" fill="currentColor"/>
<path d="M159.919 31.3394C160.256 31.3394 160.538 31.6193 160.538 31.955V40.0138C161.606 38.6147 163.519 37.7752 165.713 37.7752C170.494 37.7752 173.363 40.4615 173.363 45.1064V59.6569C173.363 59.9927 173.081 60.2725 172.744 60.2725H165.713C165.375 60.2725 165.094 59.9927 165.15 59.6569V47.1211C165.15 45.5541 164.419 44.6027 163.181 44.6027C160.875 44.6027 160.538 46.8413 160.538 46.8413V59.6009C160.538 59.9367 160.256 60.2165 159.919 60.2165H152.888C152.55 60.2165 152.269 59.9367 152.269 59.6009V31.955C152.269 31.6193 152.55 31.3394 152.888 31.3394H159.919Z" fill="currentColor"/>
<path d="M31.05 1.39908C31.3875 1.39908 31.6125 1.6789 31.6125 2.01468V28.3174C31.6125 28.5972 31.3875 28.8771 31.05 28.8771H23.625C23.2875 28.8771 23.0063 28.5972 23.0063 28.3174V16.6211L18.9563 28.2615C18.8438 28.5972 18.3375 28.8771 17.9437 28.8771H13.5563C13.2188 28.8771 12.6562 28.5972 12.5437 28.2615L8.49375 16.6211V28.3174C8.49375 28.5972 8.2125 28.8771 7.875 28.8771H0.5625C0.225 28.8771 0 28.5972 0 28.3174V2.01468C0 1.6789 0.225 1.39908 0.5625 1.39908H8.94375C9.45 1.39908 10.0687 1.73486 10.2937 2.18257L15.8063 17.4046L21.3188 2.18257C21.5438 1.73486 22.1625 1.39908 22.6687 1.39908H31.05V1.39908Z" fill="currentColor"/>
<path d="M54.1687 26.6385C54.2249 26.9184 54.1687 27.0862 53.8874 27.2541C51.7499 28.6532 48.7124 29.4927 45.6187 29.4927C38.5312 29.4927 33.8062 24.9037 33.8062 18.0202C33.8062 11.0807 38.4187 6.49175 45.3937 6.49175C52.0312 6.49175 55.9687 10.745 55.9687 17.9642C55.9687 18.5798 55.9124 19.1395 55.7999 19.7551C55.7437 20.0908 55.5749 20.2587 55.1812 20.2587H42.4124C42.4124 20.2587 42.4124 22.7771 45.7874 22.7771C47.8124 22.7771 50.1187 22.2734 51.9187 21.4899C52.1999 21.378 52.4249 21.5459 52.5374 21.8257L54.1687 26.6385ZM48.0374 16.0055C48.0374 14.2707 46.9687 13.0954 45.3374 13.0954C43.5374 13.0954 42.3562 14.2707 42.3562 16.0055H48.0374Z" fill="currentColor"/>
<path d="M64.4062 8.61834C65.6999 7.21926 68.4 6.37981 70.8187 6.37981C76.275 6.37981 79.2 8.89816 79.2 15.1101V28.2615C79.2 28.5972 78.9187 28.8771 78.5812 28.8771H71.5499C71.2124 28.8771 70.9312 28.5972 70.9874 28.2615V16.3413C70.9874 14.7743 70.2562 13.8229 69.0187 13.8229C66.7124 13.8229 66.3749 16.0615 66.3749 16.0615V28.2615C66.3749 28.5972 66.0937 28.8771 65.7562 28.8771H58.725C58.3875 28.8771 58.1062 28.5972 58.1062 28.2615V7.55504C58.1062 7.21926 58.3312 6.9954 58.6687 6.9954H63.1687C63.45 6.9954 63.675 7.10733 63.7875 7.38715L64.4062 8.61834Z" fill="currentColor"/>
<path d="M94.9499 6.93946C95.2874 6.93946 95.5686 7.16331 95.5686 7.49909L95.1187 11.3606C95.0624 11.6963 94.8374 11.9762 94.4999 11.9762H91.9124V28.2615C91.9124 28.5973 91.6312 28.8771 91.2937 28.8771H84.2624C83.9249 28.8771 83.6436 28.5973 83.6436 28.2615V11.9762H81.3374C81.0562 11.9762 80.7749 11.7523 80.7749 11.4165V7.55506C80.7749 7.21928 81.0562 6.93946 81.3374 6.93946H83.6436V2.63028C83.6436 2.35047 83.9249 2.12661 84.2624 2.07065L91.2937 1.39909C91.6312 1.34313 91.9124 1.67891 91.9124 1.95872V6.99542H94.9499V6.93946Z" fill="currentColor"/>
<path d="M97.65 9.45779C97.5375 9.17797 97.5938 8.89816 97.875 8.6743C100.181 7.21926 103.331 6.37981 106.538 6.37981C113.456 6.37981 116.663 10.0174 116.663 17.9082V28.2055C116.663 28.5413 116.381 28.8211 116.044 28.8211H110.981C110.644 28.8211 110.363 28.5413 110.363 28.2055L110.081 27.1422C108.788 28.5413 106.144 29.4367 103.219 29.4367C98.6063 29.4367 95.5688 26.4706 95.625 22.1055C95.6813 18.1881 98.7188 15.6138 103.219 15.6138C105.525 15.6138 107.606 16.4532 108.394 17.7404V16.0615C108.394 14.3266 107.156 13.2633 105.3 13.2633C103.725 13.2633 101.813 13.767 100.519 14.5504C100.294 14.6624 100.069 14.4945 99.9 14.2147L97.65 9.45779ZM108.394 21.7138C107.719 21.0422 107.044 20.7064 106.2 20.7064C105.188 20.7064 104.513 21.266 104.513 22.1615C104.513 23.0569 105.188 23.6165 106.2 23.6165C107.044 23.6165 107.719 23.2807 108.394 22.6092V21.7138Z" fill="currentColor"/>
<path d="M127.125 0C127.463 0 127.744 0.279817 127.744 0.559633V28.2615C127.744 28.5972 127.463 28.8771 127.125 28.8771H120.094C119.756 28.8771 119.475 28.5972 119.475 28.2615V0.559633C119.475 0.279817 119.756 0 120.094 0H127.125Z" fill="currentColor"/>
<path d="M233.719 59.433C233.775 59.6569 233.606 59.9367 233.269 59.9367H225.337C225 59.9367 224.662 59.7129 224.606 59.433L224.044 55.2358H216.506L214.65 59.433C214.425 59.7688 214.087 59.9367 213.75 59.9367H205.819C205.481 59.9367 205.369 59.6569 205.537 59.433L218.756 33.0184C218.925 32.7945 219.375 32.5147 219.825 32.5147H227.981C228.375 32.5147 228.769 32.7945 228.881 33.0184L233.719 59.433ZM222.412 42.0285L219.037 49.5835H223.369L222.412 42.0285Z" fill="currentColor"/>
<path d="M251.269 52.7734C251.55 52.7734 251.775 52.9972 251.719 53.333L250.2 59.3771C250.087 59.6569 249.806 59.9367 249.469 59.9367H235.012C234.675 59.9367 234.45 59.6569 234.506 59.3771L238.669 33.0743C238.725 32.7385 239.062 32.4587 239.344 32.4587H246.431C246.769 32.4587 246.994 32.7385 246.937 33.0743L243.787 52.7734H251.269Z" fill="currentColor"/>
<path d="M269.213 52.7734C269.494 52.7734 269.719 52.9972 269.663 53.333L268.144 59.3771C268.031 59.6569 267.75 59.9367 267.413 59.9367H252.956C252.619 59.9367 252.394 59.6569 252.45 59.3771L256.613 33.0743C256.669 32.7385 257.006 32.4587 257.288 32.4587H264.375C264.713 32.4587 264.938 32.7385 264.881 33.0743L261.731 52.7734H269.213Z" fill="currentColor"/>
<path d="M186.131 32.7385C186.244 32.7385 186.356 32.8504 186.356 32.9624V35.1449C186.356 35.2569 186.244 35.3688 186.131 35.3688H182.475V36.6559H185.344C185.456 36.6559 185.569 36.7679 185.513 36.8238L185.288 38.8385C185.288 38.9504 185.175 39.0064 185.063 39.0064H182.419V42.4202C182.419 42.5321 182.306 42.644 182.194 42.644H179.663C179.55 42.644 179.438 42.5321 179.438 42.4202V32.9624C179.438 32.8504 179.55 32.7385 179.663 32.7385H186.131Z" fill="currentColor"/>
<path d="M191.925 42.8119C188.831 42.8119 186.806 40.7413 186.806 37.6633C186.806 34.5293 188.831 32.5147 191.925 32.5147C195.019 32.5147 197.044 34.5853 197.044 37.6633C197.044 40.7413 195.019 42.8119 191.925 42.8119ZM191.925 35.3688C190.744 35.3688 189.956 36.2642 189.956 37.6633C189.956 39.0064 190.744 39.9578 191.925 39.9578C193.106 39.9578 193.894 39.0624 193.894 37.6633C193.894 36.3202 193.106 35.3688 191.925 35.3688Z" fill="currentColor"/>
<path d="M206.156 42.3642C206.212 42.4761 206.1 42.5881 205.987 42.5881H202.894C202.725 42.5881 202.612 42.4761 202.556 42.3642L201.037 39.2303H200.869V42.3642C200.869 42.4761 200.756 42.5881 200.644 42.5881H198.112C198 42.5881 197.887 42.4761 197.887 42.3642V32.9064C197.887 32.7945 198 32.6826 198.112 32.6826H201.937C204.131 32.6826 205.65 33.9697 205.65 35.9284C205.65 37.0477 204.975 38.2229 203.906 38.6706L206.156 42.3642ZM201.769 36.8238C202.275 36.8238 202.612 36.544 202.612 36.0404C202.612 35.5367 202.275 35.2569 201.769 35.2569H200.925V36.7679H201.769V36.8238Z" fill="currentColor"/>
</svg>
